<?xml version="1.0" encoding="UTF-8"?>
<svg id="Capa_2" data-name="Capa 2" xmlns="http://www.w3.org/2000/svg" viewBox="0 0 121.81 122.5">
  <defs>
    <style>
      .cls-1 {
        fill: #212121;
      }

      .cls-2 {
        fill: #fefefe;
      }

      .cls-3 {
        fill: #e1c7c2;
      }

      .cls-4 {
        fill: #fdfdfd;
      }
    </style>
  </defs>
  <g id="Capa_1-2" data-name="Capa 1">
    <g>
      <rect class="cls-4" x="0" y="0" width="121.81" height="122.5" rx="60.91" ry="60.91"/>
      <path class="cls-1" d="M25.84,25.31h16.74c7.62.21,15.36,2.8,20.16,8.94,3.52,4.49,4.92,10.22,4.52,15.88,6.5-.21,13.53.15,18.92,4.16,6.89,5.12,7.71,15,2.02,21.38-4.85,5.44-12.82,6.35-19.69,5.27v20.27h-14.2v-32.14c-1.41.54-2.81,1.1-4.27,1.49-2.48.67-5,.94-7.56,1.1h-16.65V25.31Z"/>
      <path class="cls-1" d="M100.47,92.17s-.87.04-.89-.04l.76-12.18c-.46-.38-.73-.09-.84.41-.22,1.02-.12,2.5-.18,3.57-.08,1.39-.2,2.8-.27,4.19s-.05,2.71-.18,4.06c-.21-.03-.82.1-.89-.15l.12-13.24c-.27-.38-.75-.18-.8.25v13.05c-.11.16-.64.06-.85.08l-.6-12.12c-.43-.55-.86.03-.83.56l.72,11.56c-.28-.04-.71.13-.88-.15l-3.03-11.32c.12-.9.69-1.7,1.32-2.32,1.06-1.05,2.34-1.29,2.67-2.95.76-3.87.73-9.16.63-13.11-.18-7.33-.78-15.6-1.89-22.84-.48-3.15-1.8-7.6-1.09-10.67s6.18-3.05,7.11-.08-.22,6.97-.64,10.03c-.94,6.77-1.18,13.79-1.44,20.62-.17,4.51-.44,9.33.19,13.82.1.74.33,2.1.66,2.74.79,1.53,4.08,2.45,3.89,4.78l-2.78,11.46Z"/>
      <path class="cls-3" d="M96.8,94.08c6.08-.95,5.36,8.48-.23,6.97-3.63-.98-3.23-6.43.23-6.97Z"/>
      <path class="cls-2" d="M38.61,70.49V26.56c7.05-.42,11.81,5.44,13.7,11.61,1.46,4.76,1.68,10.28,1.1,15.21-.94,8-5.37,17.6-14.81,17.11Z"/>
      <path class="cls-2" d="M68.52,79.41v-27.94c3.8-.1,6.35,3.41,7.5,6.65,1.25,3.53,1.28,7.82.79,11.51-.58,4.31-2.59,11.17-8.29,9.79Z"/>
    </g>
  </g>
</svg>