<?xml version="1.0" encoding="UTF-8"?>
<svg id="Layer_1" data-name="Layer 1" xmlns="http://www.w3.org/2000/svg" viewBox="0 0 209.74 101.74">
  <defs>
    <style>
      .cls-1 {
        fill: #ffe5e3;
      }

      .cls-2 {
        fill: #212121;
      }
    </style>
  </defs>
  <g>
    <g>
      <path class="cls-2" d="M0,16.87h15.82c16.01,0,25.54,9.79,25.54,22.77s-9.73,23.43-25.88,23.43H0V16.87ZM12.71,61.93h1.19c6.95,0,13.9-7.41,13.9-22.1,0-16.15-8.41-21.77-13.9-21.77h-1.19v43.88Z"/>
      <path class="cls-2" d="M52.74,13.49c3.44,0,6.29,2.91,6.29,6.35,0,3.24-2.84,6.02-6.29,6.02-3.24,0-6.09-2.78-6.09-6.02,0-3.44,2.85-6.35,6.09-6.35ZM47.25,63.06l.13-33.02h10.92v33.02h-11.05Z"/>
      <path class="cls-2" d="M61.34,30.04h11.91l9.66,20.78h.33l7.21-20.78h3.64l-15.82,34.15h-.53l-16.41-34.15Z"/>
      <path class="cls-2" d="M116.06,63.06V30.04h10.59v5.1h.33c1.85-3.04,5.23-5.62,9.99-5.62,6.62,0,8.93,3.9,8.93,9.99l.07,23.56h-11.12v-22.83c0-3.9-.33-6.68-3.38-6.68-3.57,0-4.37,3.84-4.37,9.13v20.38h-11.05Z"/>
      <path class="cls-2" d="M184.55,62.73c-2.05.73-4.83.99-7.01.99-3.71,0-6.88-1.39-7.88-5.96-3.18,3.9-5.29,5.62-8.8,5.89-.4.07-.79.07-1.26.07-4.57,0-8.67-3.31-8.67-9.2,0-8.4,8.6-11.85,16.35-11.98-.86-7.15-2.85-10.79-7.48-10.79-1.19,0-2.65.2-4.24.6l-.26-1.19c2.98-1.32,6.75-2.05,9.99-2.05,6.15,0,10.85,2.45,12.11,8.67,1.99,10.52,2.78,16.48,3.51,19.79.66,2.65,1.26,3.57,2.45,3.9.33.07.66.07,1.06.07l.13,1.19ZM165.09,58.43c1.26,0,2.78-.6,4.3-1.85-.46-2.45-1.06-7.68-1.99-12.9-4.9.86-5.69,6.15-5.69,8.87,0,3.71,1.46,5.89,3.38,5.89Z"/>
    </g>
    <g>
      <path class="cls-2" d="M26.92,100.61v-46.25h15.48c10.06,0,18.86,4.57,18.86,14.56,0,5.43-4.43,13.7-16.67,13.7-1.72,0-3.24-.07-4.76-.33v18.33h-12.9ZM39.83,80.9c.46.13.93.2,1.39.2,4.57,0,6.48-6.75,6.48-13.17,0-8.34-4.17-12.37-7.54-12.37h-.33v25.34Z"/>
      <path class="cls-2" d="M93.89,100.28c-2.05.73-4.83.99-7.01.99-3.7,0-6.88-1.39-7.87-5.95-3.18,3.9-5.29,5.62-8.8,5.89-.4.07-.79.07-1.26.07-4.57,0-8.67-3.31-8.67-9.2,0-8.4,8.6-11.84,16.34-11.98-.86-7.15-2.84-10.78-7.48-10.78-1.19,0-2.65.2-4.23.6l-.27-1.19c2.98-1.32,6.75-2.05,9.99-2.05,6.15,0,10.85,2.45,12.11,8.67,1.98,10.52,2.78,16.47,3.51,19.78.66,2.65,1.26,3.57,2.45,3.9.33.07.66.07,1.06.07l.13,1.19ZM74.43,95.98c1.26,0,2.78-.6,4.3-1.85-.46-2.45-1.06-7.68-1.98-12.9-4.9.86-5.69,6.15-5.69,8.87,0,3.71,1.46,5.89,3.37,5.89Z"/>
      <path class="cls-2" d="M116.19,95.52h-.13c-1.15,1.89-2.73,3.59-4.89,4.62-1.7.8-3.23.9-4.7,1-1.3.09-4.58.34-6.22-.53-4.24-2.24-1.03-13.67.22-34.82.2-3.38.29-6.38.47-12.37.34-11.23.34-20.4.28-26.54,0-1.19-.3-1.41-1.27-2h7.82c-.54.42-1.01.5-1.04,2-.24,6.02-.43,12.14-.56,18.35-.15,6.95-.23,13.78-.23,20.49-.02,5.43.06,27.95,4.09,30.57.93.6,1.74.49,1.74.49,3.57,0,3.97-4.43,3.97-8.07v-21.11h11.05v33.01h-10.59v-5.09Z"/>
      <path class="cls-2" d="M133.06,89.03c-.07.46-.07.93-.07,1.39,0,6.42,4.7,9.4,10.72,9.4,4.3,0,7.15-2.18,7.15-5.49,0-8.67-18.79-5.16-18.79-16.61,0-4.43,3.04-10.78,12.57-10.78,10.52,0,13.43,5.29,13.43,9.26,0,.4,0,1.39-.13,1.65h-8.6c0-6.68-1.46-9.79-5.23-9.79-2.78,0-4.23,2.18-4.23,5.16,0,8.07,19.52,4.17,19.52,17.33,0,4.5-3.97,10.45-15.68,10.45-6.35,0-11.97-3.04-11.97-10.06,0-.6,0-1.26.13-1.92h1.19Z"/>
      <path class="cls-2" d="M196.98,100.28c-2.05.73-4.83.99-7.01.99-3.7,0-6.88-1.39-7.87-5.95-3.18,3.9-5.29,5.62-8.8,5.89-.4.07-.79.07-1.26.07-4.57,0-8.67-3.31-8.67-9.2,0-8.4,8.6-11.84,16.34-11.98-.86-7.15-2.84-10.78-7.48-10.78-1.19,0-2.65.2-4.23.6l-.27-1.19c2.98-1.32,6.75-2.05,9.99-2.05,6.15,0,10.85,2.45,12.11,8.67,1.98,10.52,2.78,16.47,3.51,19.78.66,2.65,1.26,3.57,2.45,3.9.33.07.66.07,1.06.07l.13,1.19ZM177.53,95.98c1.26,0,2.78-.6,4.3-1.85-.46-2.45-1.06-7.68-1.98-12.9-4.9.86-5.69,6.15-5.69,8.87,0,3.71,1.46,5.89,3.37,5.89Z"/>
    </g>
    <circle class="cls-1" cx="204.75" cy="96.75" r="4.98"/>
  </g>
  <path class="cls-2" d="M99.95,24.88s-5.1-3.36-4.3-6.67c.8-3.31,4.09-18.21,4.09-18.21h1.28s-1.29,19.15-1.29,19.15c0,0-.11,1.15.66,1.15.58,0,.72-.55.81-1.18C101.33,18.1,102.05,0,102.05,0h1.25s-.28,21.4-.28,21.4c0,0-.06.84.71.84.77,0,.68-.89.68-.89V0s1.21,0,1.21,0l.74,19.12s-.01,1.12.72,1.09.68-1.12.68-1.12L106.72,0h1.22l4.39,18.06s1.21,2.57-4.57,6.82"/>
</svg>