<?xml version="1.0" encoding="UTF-8"?>
<svg id="Layer_1" data-name="Layer 1" xmlns="http://www.w3.org/2000/svg" viewBox="0 0 133.32 130.6">
  <defs>
    <style>
      .cls-1 {
        fill: #ffe5e3;
      }

      .cls-2 {
        fill: #fff;
      }
    </style>
  </defs>
  <path class="cls-2" d="M0,0h27.29c27.63,0,44.07,16.9,44.07,39.27s-16.78,40.41-44.64,40.41H0V0ZM21.92,77.75h2.06c11.99,0,23.98-12.79,23.98-38.13C47.95,11.76,33.45,2.06,23.98,2.06h-2.06v75.69Z"/>
  <path class="cls-2" d="M49.1,130.6V42.69h29.18c18.96,0,35.54,8.68,35.54,27.67,0,10.31-8.35,26.03-31.42,26.03-3.24,0-6.11-.13-8.98-.63v34.84h-24.32ZM73.42,93.12c.87.25,1.74.38,2.62.38,8.61,0,12.22-12.83,12.22-25.03,0-15.85-7.86-23.52-14.22-23.52h-.62v48.17Z"/>
  <circle class="cls-1" cx="123.5" cy="124.46" r="6.14"/>
  <g>
    <path class="cls-2" d="M128.22,88.96s5.93,3.53,5,6.99c-.93,3.46-4.75,19.08-4.75,19.08h-1.49s1.5-20.07,1.5-20.07c0,0,.13-1.21-.76-1.21-.67,0-.84.58-.94,1.24-.16,1.08-1,20.04-1,20.04h-1.45s.32-22.43.32-22.43c0,0,.07-.88-.83-.88-.89,0-.79.94-.79.94v22.36s-1.41,0-1.41,0l-.86-20.04s.02-1.18-.84-1.14-.8,1.18-.8,1.18l1.22,20.01h-1.42l-5.11-18.93s-1.41-2.69,5.32-7.15"/>
    <path class="cls-2" d="M129.24,10.26c.18,3.16-.4,4.6-1.47,11.88,0,0-.24,1.65-.57,4.13-.79,6.03-1.03,10.67-1.51,19.38-.46,8.3-.26,6.69-.49,10.28,0,0-1.43,21.75,1.01,30.22.2.68.57,1.27.57,1.27.46.74,1.05,1.23,1.45,1.52-3.03,0-6.06,0-9.09,0,.31-.32.74-.84,1.05-1.55.25-.58.33-1.06.36-1.3,2.02-15.02.87-29.07.87-29.07-.02-.29,0-.08-.09-1.07-1.14-13.43-1.23-19.24-2.69-29.85-.23-1.65-.38-2.6-.48-3.24-.02-.1-.11-.7-.23-1.4-.88-5.1-1.71-7.88-1.68-11.2.03-3.43.05-5.49,1.85-6.89,2.28-1.77,6.5-1.76,8.88-.04,1.95,1.41,2.07,3.54,2.27,6.92Z"/>
  </g>
</svg>