<?xml version="1.0" encoding="UTF-8"?>
<svg id="Layer_1" data-name="Layer 1" xmlns="http://www.w3.org/2000/svg" viewBox="0 0 286.65 37.28">
  <defs>
    <style>
      .cls-1, .cls-2 {
        fill: #212121;
      }

      .cls-2 {
        font-family: PFMarletDisplay-Black, 'PF Marlet Display';
        font-size: 48.95px;
        font-weight: 800;
      }

      .cls-3 {
        letter-spacing: 0em;
      }
    </style>
  </defs>
  <text class="cls-2" transform="translate(-2.94 37.79)"><tspan x="0" y="0">D</tspan><tspan class="cls-3" x="35" y="0">i</tspan><tspan x="48.56" y="0">vina</tspan></text>
  <g>
    <path class="cls-1" d="M147.5,37.28V2.01h11.81c7.67,0,14.38,3.48,14.38,11.1,0,4.14-3.38,10.45-12.72,10.45-1.31,0-2.47-.05-3.63-.25v13.98h-9.84ZM157.34,22.24c.35.1.71.15,1.06.15,3.48,0,4.95-5.15,4.95-10.04,0-6.36-3.18-9.44-5.75-9.44h-.25v19.33Z"/>
    <path class="cls-1" d="M198.57,37.03c-1.56.56-3.68.76-5.35.76-2.83,0-5.25-1.06-6.01-4.54-2.42,2.98-4.04,4.29-6.71,4.49-.3.05-.61.05-.96.05-3.48,0-6.61-2.52-6.61-7.01,0-6.41,6.56-9.03,12.47-9.13-.66-5.45-2.17-8.23-5.7-8.23-.91,0-2.02.15-3.23.45l-.2-.91c2.27-1.01,5.15-1.56,7.62-1.56,4.69,0,8.28,1.87,9.24,6.61,1.51,8.02,2.12,12.57,2.67,15.09.5,2.02.96,2.73,1.87,2.98.25.05.5.05.81.05l.1.91ZM183.74,33.75c.96,0,2.12-.45,3.28-1.41-.35-1.87-.81-5.85-1.51-9.84-3.74.66-4.34,4.69-4.34,6.76,0,2.83,1.11,4.49,2.57,4.49Z"/>
    <path class="cls-1" d="M215.58,33.4h-.1c-1.41,2.32-3.68,4.29-7.32,4.29-.26,0-2.38-.02-4.15-.02-2.34-.01-2.66-.03-2.66-.25V12.1h8.43v18.72c0,1.11.1,3.53,2.42,3.53,2.73,0,3.03-3.38,3.03-6.16V12.1h8.43v25.18h-8.07v-3.89Z"/>
    <path class="cls-1" d="M228.46,28.45c-.05.35-.05.71-.05,1.06,0,4.89,3.58,7.17,8.18,7.17,3.28,0,5.45-1.67,5.45-4.19,0-6.61-14.33-3.94-14.33-12.67,0-3.38,2.32-8.23,9.59-8.23,8.02,0,10.24,4.04,10.24,7.07,0,.3,0,1.06-.1,1.26h-6.56c0-5.1-1.11-7.47-3.99-7.47-2.12,0-3.23,1.67-3.23,3.94,0,6.16,14.89,3.18,14.89,13.22,0,3.43-3.03,7.97-11.96,7.97-4.84,0-9.13-2.32-9.13-7.67,0-.45,0-.96.1-1.46h.91Z"/>
    <path class="cls-1" d="M277.21,37.03c-1.56.56-3.68.76-5.35.76-2.83,0-5.25-1.06-6.01-4.54-2.42,2.98-4.04,4.29-6.71,4.49-.3.05-.61.05-.96.05-3.48,0-6.61-2.52-6.61-7.01,0-6.41,6.56-9.03,12.47-9.13-.66-5.45-2.17-8.23-5.7-8.23-.91,0-2.02.15-3.23.45l-.2-.91c2.27-1.01,5.15-1.56,7.62-1.56,4.69,0,8.28,1.87,9.24,6.61,1.51,8.02,2.12,12.57,2.67,15.09.5,2.02.96,2.73,1.87,2.98.25.05.5.05.81.05l.1.91ZM262.37,33.75c.96,0,2.12-.45,3.28-1.41-.35-1.87-.81-5.85-1.51-9.84-3.74.66-4.34,4.69-4.34,6.76,0,2.83,1.11,4.49,2.57,4.49Z"/>
  </g>
  <circle class="cls-1" cx="283.01" cy="33.75" r="3.64"/>
</svg>