<svg id="Capa_1" enable-background="new 0 0 512.002 512.002" viewBox="0 0 512.002 512.002" xmlns="http://www.w3.org/2000/svg"><g><path d="m502.002 319.477h-10.212c-2.513-60.037-27.369-116.065-70.375-158.327-37.491-36.842-85.2-59.71-136.617-65.94 1.949-4.119 3.039-8.719 3.039-13.57 0-17.555-14.282-31.837-31.837-31.837s-31.836 14.282-31.836 31.837c0 4.851 1.091 9.451 3.039 13.57-51.417 6.23-99.127 29.098-136.618 65.94-43.005 42.262-67.861 98.29-70.374 158.327h-10.211c-5.523 0-10 4.477-10 10 0 30.327 24.673 55 55 55h204.584l6.379 46.363c.454 3.299 2.52 6.155 5.51 7.619 2.992 1.465 6.515 1.344 9.397-.321l19.485-11.25 17.5 30.312c1.852 3.208 5.213 5.002 8.669 5.001 1.696 0 3.416-.432 4.991-1.341l38.971-22.5c4.783-2.761 6.422-8.877 3.66-13.66l-17.5-30.312 17.165-9.91h83.19c30.327 0 55-24.673 55-55 .001-5.524-4.476-10.001-9.999-10.001zm-257.837-237.838c0-6.527 5.31-11.837 11.836-11.837s11.837 5.31 11.837 11.837-5.31 11.837-11.837 11.837-11.836-5.309-11.836-11.837zm11.836 31.838c114.958 0 210.468 91.846 215.768 206h-155.152l-54.482-42.312c-3.211-2.493-7.612-2.796-11.134-.762-3.521 2.033-5.461 5.995-4.907 10.023l4.547 33.051h-210.408c5.3-114.154 100.81-206 215.768-206zm-201.001 250.999c-15.825 0-29.231-10.558-33.545-25h231.938l3.439 25zm279.327 31.25 17.5 30.312-21.651 12.5-17.5-30.312c-1.326-2.297-3.51-3.973-6.072-4.659-.851-.228-1.721-.341-2.587-.341-1.741 0-3.467.455-5 1.34l-15.266 8.814-14.497-105.364 84 65.236-15.266 8.814c-4.784 2.761-6.423 8.877-3.661 13.66zm122.675-31.25h-82.443l-32.19-25h148.177c-4.313 14.442-17.719 25-33.544 25z"/><path d="m160.501 164.066c-28.996 16.741-53.17 40.916-69.911 69.911-2.762 4.783-1.123 10.899 3.66 13.66 1.575.909 3.294 1.341 4.991 1.341 3.456 0 6.817-1.793 8.669-5.001 14.988-25.959 36.631-47.603 62.591-62.591 4.783-2.761 6.422-8.877 3.66-13.66-2.761-4.784-8.877-6.422-13.66-3.66z"/></g><g/><g/><g/><g/><g/><g/><g/><g/><g/><g/><g/><g/><g/><g/><g/></svg>