<svg id="Capa_1" enable-background="new 0 0 512.005 512.005" viewBox="0 0 512.005 512.005" xmlns="http://www.w3.org/2000/svg"><g><path d="m234.384 269.001-88.022-50.819c-3.047-1.76-6.794-1.789-9.867-.075-21.115 11.765-39.771 30.417-52.532 52.52-13.622 23.594-18.769 48.01-14.884 70.61 3.241 18.855 12.661 34.832 26.872 45.9l-23.002 39.84-64.65 11.173c-4.148.717-7.404 3.956-8.142 8.101s1.199 8.309 4.845 10.414l93.53 54c1.556.898 3.281 1.34 4.998 1.34 2.306 0 4.597-.796 6.443-2.351 3.221-2.711 4.398-7.15 2.944-11.102l-22.648-61.575 23.002-39.84c8.498 3.448 17.476 5.185 26.614 5.185 8.807 0 17.764-1.614 26.573-4.863 21.514-7.935 40.086-24.601 53.708-48.195 12.761-22.103 19.586-47.586 19.217-71.754-.053-3.519-1.952-6.75-4.999-8.509zm-92.951-30.571 77.881 44.965c-.32 7.966-1.563 16.165-3.64 24.268h-125.44c2.201-9 5.911-18.136 11.049-27.036 9.839-17.042 24.274-32.162 40.15-42.197zm-102.511 214.724 33.836-5.848 11.854 32.228zm120.615-74.461c-15.576 5.746-31.653 4.58-45.27-3.282-13.616-7.861-22.665-21.202-25.477-37.564-.569-3.311-.876-6.714-.926-10.186h120.871c-1.764 3.982-3.731 7.864-5.888 11.601-11.097 19.22-26.478 33.223-43.31 39.431z"/><path d="m503.706 438.15-64.65-11.174-23.002-39.84c14.211-11.068 23.63-27.045 26.872-45.9 3.885-22.6-1.262-47.016-14.884-70.61-12.761-22.103-31.417-40.755-52.532-52.52-3.073-1.713-6.82-1.684-9.867.075l-88.022 50.819c-3.047 1.759-4.945 4.99-4.999 8.508-.369 24.168 6.456 49.651 19.217 71.754 13.622 23.594 32.194 40.26 53.708 48.195 8.811 3.25 17.765 4.863 26.573 4.863 9.136 0 18.115-1.737 26.614-5.185l23.002 39.84-22.648 61.575c-1.454 3.952-.276 8.39 2.944 11.102 1.846 1.555 4.137 2.351 6.443 2.351 1.717 0 3.442-.441 4.998-1.34l93.53-54c3.646-2.105 5.584-6.269 4.845-10.414-.738-4.143-3.993-7.381-8.142-8.099zm-133.134-199.72c15.875 10.036 30.311 25.156 40.149 42.197 5.138 8.899 8.848 18.035 11.049 27.036h-125.44c-2.077-8.103-3.321-16.302-3.64-24.268zm-18.104 140.263c-16.832-6.208-32.212-20.211-43.309-39.43-2.157-3.737-4.124-7.619-5.888-11.601h120.871c-.05 3.471-.357 6.875-.926 10.186-2.812 16.362-11.861 29.703-25.477 37.564-13.619 7.86-29.695 9.026-45.271 3.281zm74.925 100.841 11.854-32.228 33.836 5.848z"/><path d="m5.002 18.663c5.319 3.071 10.69 6.041 16.109 8.909l6.069 85.398c.269 3.778 2.649 7.081 6.148 8.53 1.235.512 2.534.761 3.825.761 2.366 0 4.702-.84 6.554-2.445l64.696-56.111c11.723 3.605 23.575 6.781 35.53 9.52l27.973 80.941c1.237 3.58 4.391 6.153 8.146 6.648.438.058.874.085 1.307.085 3.291 0 6.408-1.626 8.282-4.398l47.955-70.923c6.127.226 12.263.339 18.405.339s12.279-.113 18.406-.339l47.955 70.923c1.875 2.772 4.991 4.398 8.282 4.398.434 0 .87-.028 1.307-.085 3.755-.495 6.909-3.068 8.146-6.648l27.973-80.942c11.955-2.739 23.807-5.915 35.53-9.52l64.696 56.111c1.852 1.606 4.188 2.445 6.554 2.445 1.291 0 2.59-.25 3.825-.761 3.5-1.449 5.88-4.751 6.148-8.53l6.069-85.398c5.419-2.868 10.79-5.838 16.109-8.909 4.783-2.761 6.421-8.877 3.66-13.66-2.762-4.784-8.877-6.422-13.66-3.66-73.172 42.246-156.509 64.576-241.001 64.576s-167.828-22.33-241-64.576c-4.78-2.76-10.896-1.122-13.658 3.66-2.762 4.783-1.123 10.899 3.66 13.661zm322.727 110.068-30.12-44.547c16.006-1.335 31.922-3.438 47.69-6.291zm138.564-37.129-40.635-35.242c15.083-5.413 29.917-11.55 44.447-18.397zm-420.581 0-3.812-53.638c14.529 6.846 29.364 12.984 44.446 18.396zm138.564 37.129-17.569-50.838c15.768 2.854 31.684 4.956 47.69 6.292z"/><path d="m255.999 169.754c-5.523 0-10 4.477-10 10v15c0 5.523 4.477 10 10 10s10-4.477 10-10v-15c0-5.523-4.477-10-10-10z"/><path d="m298.793 192.202-7.5 12.991c-2.762 4.783-1.123 10.899 3.66 13.66 1.575.91 3.294 1.341 4.991 1.341 3.456 0 6.817-1.793 8.669-5.001l7.5-12.991c2.762-4.783 1.123-10.899-3.66-13.66-4.783-2.763-10.899-1.123-13.66 3.66z"/><path d="m199.546 188.541c-4.783 2.762-6.422 8.877-3.66 13.66l7.5 12.991c1.853 3.208 5.213 5.001 8.669 5.001 1.696 0 3.416-.432 4.991-1.341 4.783-2.761 6.422-8.877 3.66-13.66l-7.5-12.991c-2.762-4.783-8.878-6.422-13.66-3.66z"/><path d="m255.999 426.255c-5.523 0-10 4.477-10 10v15c0 5.523 4.477 10 10 10s10-4.477 10-10v-15c0-5.523-4.477-10-10-10z"/><path d="m217.046 412.157c-4.782-2.76-10.899-1.123-13.66 3.66l-7.5 12.991c-2.762 4.783-1.123 10.898 3.66 13.66 1.575.909 3.294 1.341 4.991 1.341 3.456 0 6.817-1.793 8.669-5.001l7.5-12.991c2.762-4.782 1.123-10.899-3.66-13.66z"/><path d="m308.613 415.817c-2.762-4.783-8.877-6.422-13.66-3.66-4.783 2.761-6.422 8.877-3.66 13.66l7.5 12.991c1.852 3.208 5.213 5.001 8.669 5.001 1.696 0 3.416-.432 4.991-1.341 4.783-2.761 6.422-8.877 3.66-13.66z"/></g><g/><g/><g/><g/><g/><g/><g/><g/><g/><g/><g/><g/><g/><g/><g/></svg>