<svg id="Capa_1" enable-background="new 0 0 512.002 512.002" viewBox="0 0 512.002 512.002" xmlns="http://www.w3.org/2000/svg"><g><path d="m402.034 171.411-13.809 13.809c-2.606-4.849-5.471-9.538-8.577-14.05l11.072-11.072c3.905-3.905 3.905-10.237 0-14.142-3.906-3.905-10.236-3.905-14.143 0l-9.425 9.425c-3.583-3.954-7.374-7.717-11.355-11.272l9.467-9.467c3.905-3.905 3.905-10.237 0-14.142s-10.235-3.905-14.143 0l-11.219 11.219c-23.962-16.229-52.846-25.717-83.903-25.717-35.854 0-70.105 12.656-97.238 35.783l-15.719-15.719c-2.526-2.525-6.206-3.515-9.659-2.588-3.451.925-6.146 3.62-7.071 7.071-3.539 13.206-2.555 28.316 2.918 45.268-15.206 24.031-23.231 51.7-23.231 80.185 0 35.808 12.652 70.076 35.756 97.205-2.91 4.649-4.481 10.047-4.513 15.717-.047 8.19 3.103 15.875 8.868 21.641 5.724 5.723 13.339 8.868 21.462 8.868h.179c8.087-.046 15.623-3.224 21.22-8.949l.192-.196c20.702 10.295 43.699 15.715 66.836 15.715 22.845 0 45.583-5.292 66.085-15.343 5.497 5.251 12.711 8.157 20.434 8.207h.201c8.126 0 15.745-3.146 21.471-8.873 5.697-5.697 8.834-13.293 8.834-21.39 0-5.124-1.257-10.047-3.623-14.416 23.645-27.28 36.599-61.913 36.599-98.186 0-17.992-3.185-35.254-9.019-51.253l19.195-19.195c3.905-3.905 3.905-10.237 0-14.142-3.905-3.906-10.236-3.906-14.142-.001zm-28.68 28.681-11.978 11.978-11.313-11.313 15.171-15.172c3.003 4.641 5.718 9.485 8.12 14.507zm-46.273 34.959-25.456-25.456c-3.119-3.119-3.119-8.195 0-11.313l8.839-8.839 36.77 36.77-8.838 8.839c-3.12 3.117-8.194 3.119-11.315-.001zm25.917-65.515-17.077 17.077-11.314-11.313 17.03-17.03c4.012 3.521 7.807 7.284 11.361 11.266zm-96.997-43.535c25.526 0 49.357 7.395 69.464 20.156l-37.983 37.982c-8.401 8.402-10.336 20.859-5.806 31.13l-24.996 24.433-83.724-83.724c23.316-19.386 52.51-29.977 83.045-29.977zm-13.623 127.683-21.927 21.433c-44.779-47.981-70.726-89.026-75.431-118.79zm-103.331-54.458c13.369 26.354 35.765 56.371 67.098 89.876l-50.58 49.441c-19.119-23.235-29.564-52.252-29.564-82.542 0-19.801 4.475-39.147 13.046-56.775zm28.593 180.206h-.062c-2.781 0-5.381-1.068-7.323-3.011-1.957-1.957-3.026-4.58-3.011-7.384.016-2.702 1.057-5.199 2.931-7.031l134.3-131.278 11.474 11.474-131.276 134.3c-1.834 1.874-4.331 2.914-7.033 2.93zm36.337-4.299 51.553-52.74 51.724 53.074c-16.148 6.915-33.664 10.535-51.252 10.535-17.881-.001-35.663-3.736-52.025-10.869zm146.072.718c-1.946 1.946-4.547 3.015-7.332 3.015h-.069c-2.696-.017-5.183-1.056-7.004-2.923l-66.129-67.855 13.479-13.789 67.056 67.058c3.996 3.994 3.996 10.497-.001 14.494zm35.952-119.85c0 30.535-10.592 59.728-29.978 83.044l-59.05-59.051 24.433-24.995c3.598 1.587 7.464 2.381 11.331 2.381 7.171 0 14.341-2.729 19.8-8.188l28.571-28.571c3.187 11.253 4.893 23.121 4.893 35.38z"/><path d="m256.001 0c-141.159 0-256.001 114.842-256.001 256.001s114.842 256 256.001 256 256.001-114.841 256.001-256-114.842-256.001-256.001-256.001zm0 492.002c-130.132 0-236.001-105.87-236.001-236 0-130.132 105.869-236.002 236.001-236.002s236.001 105.87 236.001 236.001-105.869 236.001-236.001 236.001z"/></g><g/><g/><g/><g/><g/><g/><g/><g/><g/><g/><g/><g/><g/><g/><g/></svg>