<svg id="Capa_1" enable-background="new 0 0 512.012 512.012" viewBox="0 0 512.012 512.012" xmlns="http://www.w3.org/2000/svg"><g><path d="m493.115 287.25c-17.891-69.004-53.766-131.896-103.747-181.878-49.98-49.98-112.872-85.855-181.892-103.751-26.78-6.9-53.951 8.789-63.206 36.5l-124.952 374.174c-.053.16-.103.32-.147.482-4.964 17.81-.018 36.919 12.922 49.883 9.625 9.606 22.648 14.805 36.015 14.805 4.619 0 9.281-.622 13.855-1.896.162-.045.323-.094.483-.148l45.715-15.266v17.607c0 18.885 15.364 34.25 34.25 34.25s34.25-15.365 34.25-34.25v-40.482l259.958-86.811c27.71-9.255 43.402-36.427 36.496-63.219zm-370.687-120.58c13.735.233 26.873 5.754 36.679 15.559 20.727 20.726 20.727 54.451 0 75.177-18.678 18.678-47.912 20.66-68.799 5.448zm64.233 226.818c-5.522 0-10 4.477-10 10v26.378c-.003.145-.003.291 0 .437v47.459c0 7.857-6.393 14.25-14.25 14.25s-14.25-6.393-14.25-14.25v-31.279c.003-.145.003-.291 0-.437v-25.058c0-5.523-4.478-10-10-10s-10 4.477-10 10v18.081l-51.795 17.297c-10.81 2.925-22.343-.074-30.131-7.848-7.788-7.802-10.788-19.333-7.861-30.145l45.376-135.879c11.598 7.014 24.68 10.5 37.749 10.5 18.761 0 37.493-7.188 51.751-21.446 28.524-28.524 28.524-74.938 0-103.462-12.009-12.008-27.655-19.348-44.267-21.045l21.74-65.101c8.248.7 16.5-.126 24.445-2.445 6.841 10.181 16.401 18.414 27.596 23.634 11.2 5.223 23.66 7.252 35.859 5.947 4.967 11.219 12.956 20.993 23.079 28.082 10.122 7.088 22.038 11.252 34.281 12.083 2.944 11.913 9.115 22.926 17.853 31.664s19.75 14.908 31.662 17.852c.831 12.244 4.996 24.16 12.084 34.281 7.087 10.123 16.86 18.112 28.081 23.08-1.307 12.2.725 24.659 5.946 35.859 5.221 11.195 13.453 20.756 23.635 27.596-2.318 7.944-3.144 16.198-2.445 24.445l-28.012 9.354c-.206-21.581-8.82-42.518-24.306-58.005-32.377-32.375-85.056-32.375-117.431 0-29.405 29.405-32.102 75.56-8.092 108.038l-38.297 12.789v-12.707c0-5.522-4.478-9.999-10-9.999zm68.592 3.14c-22.619-24.702-21.973-63.206 1.94-87.119 24.578-24.577 64.569-24.576 89.146 0 13.329 13.328 19.951 31.979 18.169 50.635zm195.031-65.128-17.712 5.915c.125-6.242 1.49-12.417 4.066-18.243 2.169-4.908.078-10.654-4.738-13.019-9.853-4.838-17.517-12.663-22.163-22.628-4.647-9.966-5.715-20.867-3.089-31.523 1.285-5.21-1.772-10.505-6.927-11.999-10.543-3.053-19.449-9.428-25.756-18.437-6.308-9.006-9.252-19.555-8.516-30.508.359-5.354-3.57-10.038-8.906-10.613-10.912-1.176-20.789-5.908-28.564-13.683-7.775-7.774-12.507-17.652-13.684-28.566-.575-5.334-5.22-9.263-10.613-8.905-10.95.741-21.502-2.208-30.508-8.515-9.008-6.308-15.383-15.214-18.436-25.756-1.492-5.155-6.79-8.211-11.999-6.928-10.659 2.627-21.559 1.559-31.522-3.088-9.966-4.647-17.791-12.311-22.63-22.164-2.365-4.817-8.111-6.905-13.019-4.738-5.828 2.576-12.001 3.941-18.242 4.065l5.915-17.711c5.888-17.628 22.759-27.72 39.229-23.472 65.557 16.998 125.294 51.069 172.755 98.529 47.462 47.462 81.533 107.2 98.526 172.742 4.25 16.485-5.84 33.356-23.467 39.245z"/><path d="m136.107 349.278c-7.835 0-15.136-4.215-19.053-11-2.761-4.782-8.874-6.421-13.66-3.66-4.783 2.761-6.422 8.877-3.66 13.66 7.479 12.953 21.416 21 36.373 21 5.522 0 10-4.477 10-10s-4.478-10-10-10z"/><path d="m219.984 188.743c2.56 0 5.119-.977 7.071-2.929 8.671-8.671 12.085-21.416 8.911-33.26-1.43-5.334-6.91-8.499-12.248-7.07-5.335 1.43-8.5 6.914-7.07 12.248 1.33 4.964-.101 10.306-3.735 13.941-3.905 3.905-3.905 10.237 0 14.142 1.953 1.952 4.511 2.928 7.071 2.928z"/><path d="m233.273 244.749c1.953 1.953 4.512 2.929 7.071 2.929s5.119-.977 7.071-2.929c7.541-7.541 18.625-10.512 28.926-7.751 5.34 1.432 10.818-1.737 12.247-7.071 1.43-5.334-1.736-10.818-7.071-12.247-17.185-4.605-35.667.351-48.244 12.928-3.905 3.904-3.905 10.236 0 14.141z"/><path d="m188.476 309.139h-.007c-5.522 0-9.996 4.477-9.996 10s4.48 10 10.003 10 10-4.477 10-10-4.478-10-10-10z"/><path d="m77.977 398.639h-.008c-5.522 0-9.996 4.477-9.996 10s4.481 10 10.004 10 10-4.477 10-10-4.478-10-10-10z"/><path d="m182.977 111.139h-.008c-5.522 0-9.996 4.477-9.996 10s4.481 10 10.004 10 10-4.477 10-10-4.478-10-10-10z"/><path d="m311.485 314.64h-.008c-5.522 0-9.996 4.477-9.996 10s4.481 10 10.004 10 10-4.477 10-10-4.478-10-10-10z"/><path d="m273.485 348.64h-.008c-5.522 0-9.996 4.477-9.996 10s4.481 10 10.004 10 10-4.477 10-10-4.478-10-10-10z"/><path d="m131.987 229.818c5.522 0 10-4.477 10-10s-4.478-10-10-10h-.008c-5.522 0-9.996 4.477-9.996 10s4.481 10 10.004 10z"/></g><g/><g/><g/><g/><g/><g/><g/><g/><g/><g/><g/><g/><g/><g/><g/></svg>