<svg id="Capa_1" enable-background="new 0 0 512.002 512.002" viewBox="0 0 512.002 512.002" xmlns="http://www.w3.org/2000/svg"><g><path d="m502.002 315.675h-10.211c-2.512-60.037-27.368-116.065-70.375-158.327-37.491-36.842-85.2-59.71-136.617-65.94 1.948-4.119 3.039-8.719 3.039-13.57 0-17.555-14.282-31.836-31.837-31.836s-31.837 14.282-31.837 31.836c0 4.851 1.091 9.451 3.039 13.57-51.416 6.23-99.125 29.098-136.616 65.94-43.007 42.262-67.862 98.29-70.375 158.327h-10.212c-5.522 0-10 4.477-10 10 0 30.327 24.673 55 55 55h93.791c11.23 48.814 55.036 85.326 107.21 85.326s95.98-36.512 107.21-85.326h93.791c30.327 0 55-24.673 55-55 0-5.523-4.478-10-10-10zm-257.838-237.837c0-6.527 5.31-11.836 11.837-11.836s11.837 5.31 11.837 11.836-5.31 11.837-11.837 11.837-11.837-5.31-11.837-11.837zm11.837 31.837c114.958 0 210.468 91.846 215.769 206h-113.424c-16.118-40.764-55.919-69.675-102.345-69.675s-86.227 28.911-102.345 69.674h-113.424c5.302-114.154 100.812-205.999 215.769-205.999zm-201.001 251c-15.825 0-29.231-10.558-33.545-25h126.429c-1.236 6.589-1.883 13.384-1.883 20.326 0 1.566.033 3.124.099 4.674zm201.001 85.326c-49.626 0-90-40.374-90-90s40.374-90 90-90 90 40.374 90 90-40.374 90-90 90zm201.001-85.326h-91.1c.065-1.55.099-3.108.099-4.674 0-6.943-.647-13.737-1.883-20.326h126.429c-4.314 14.441-17.72 25-33.545 25z"/><path d="m170.501 177.584c4.783-2.761 6.422-8.877 3.66-13.66-2.762-4.782-8.873-6.422-13.66-3.66-28.996 16.74-53.171 40.915-69.911 69.911-2.762 4.783-1.123 10.899 3.66 13.66 1.575.91 3.294 1.341 4.99 1.341 3.456 0 6.818-1.793 8.67-5.001 14.987-25.96 36.631-47.603 62.591-62.591z"/><path d="m296.001 346.001h-30v-45c0-5.523-4.478-10-10-10s-10 4.477-10 10v55c0 5.523 4.478 10 10 10h40c5.522 0 10-4.477 10-10s-4.478-10-10-10z"/></g><g/><g/><g/><g/><g/><g/><g/><g/><g/><g/><g/><g/><g/><g/><g/></svg>