<svg id="Capa_1" enable-background="new 0 0 512.002 512.002" viewBox="0 0 512.002 512.002" xmlns="http://www.w3.org/2000/svg"><g><path d="m425.987 501.477-20-380c-.28-5.312-4.668-9.475-9.986-9.475h-63.405v-34.502c0-42.733-34.767-77.5-77.5-77.5s-77.5 34.767-77.5 77.5v34.502h-61.595c-5.318 0-9.707 4.163-9.986 9.475l-20 380c-.144 2.739.844 5.418 2.732 7.408s4.511 3.117 7.254 3.117h320c2.744 0 5.366-1.127 7.254-3.117s2.876-4.669 2.732-7.408zm-305.235-279.475h270.498l11.842 224.999h-294.183zm76.844-144.502c0-31.706 25.794-57.5 57.5-57.5s57.5 25.794 57.5 57.5v34.502h-115zm-20 54.502v35c0 5.523 4.477 10 10 10s10-4.477 10-10v-35h115v35c0 5.523 4.477 10 10 10s10-4.477 10-10v-35h53.917l3.684 70h-268.393l3.684-70zm-71.055 360 1.316-25h296.288l1.316 25z"/><path d="m346.001 331.037h-5.392c.226-1.673.341-3.365.341-5.062 0-13.579-7.408-26.291-19.334-33.176-.915-.528-1.843-1.015-2.781-1.461l11.957-17.794c3.08-4.584 1.861-10.797-2.723-13.877-4.583-3.079-10.797-1.861-13.877 2.723l-17.4 25.895c-1.079.196-2.15.443-3.211.741-9.699-10.224-23.243-16.141-37.58-16.141-14.363 0-28.058 6.017-37.779 16.36-.91-.229-1.83-.424-2.759-.585l-17.652-26.27c-3.081-4.583-9.293-5.803-13.877-2.723s-5.803 9.293-2.723 13.877l12.059 17.947c-13.094 5.968-22.218 19.181-22.218 34.485 0 1.697.115 3.388.341 5.062h-5.391c-5.523 0-10 4.477-10 10v20c0 27.57 22.43 50 50 50h100c27.57 0 50-22.43 50-50v-20c-.001-5.524-4.478-10.001-10.001-10.001zm-154.95-5.061c0-9.856 8.018-17.874 17.874-17.874 4.774 0 9.263 1.859 12.639 5.235 3.905 3.905 10.237 3.905 14.142 0 3.717-3.717 3.896-9.633.536-13.562 5.562-4.401 12.522-6.889 19.758-6.889 10.509 0 20.325 5.179 26.258 13.854 2.951 4.315 8.728 5.628 13.254 3.015 6.981-4.03 13.587-1.088 16.104.365 5.845 3.375 9.334 9.302 9.334 15.856 0 1.719-.25 3.424-.733 5.062h-128.433c-.483-1.638-.733-3.344-.733-5.062zm144.95 35.061c0 16.542-13.458 30-30 30h-100c-16.542 0-30-13.458-30-30v-10h160z"/></g><g/><g/><g/><g/><g/><g/><g/><g/><g/><g/><g/><g/><g/><g/><g/></svg>