<svg id="Capa_1" enable-background="new 0 0 512.002 512.002" viewBox="0 0 512.002 512.002" xmlns="http://www.w3.org/2000/svg"><g><path d="m452.468 288.378c4.998-19.048 7.532-38.682 7.532-58.378 0-61.436-23.924-119.193-67.366-162.635-43.441-43.44-101.199-67.365-162.634-67.365s-119.193 23.925-162.634 67.365c-43.442 43.442-67.366 101.2-67.366 162.635s23.924 119.193 67.366 162.634c43.441 43.442 101.199 67.366 162.634 67.366 19.697 0 39.331-2.534 58.378-7.533 20.844 35.585 59.49 59.534 103.624 59.534 66.168 0 120-53.832 120-120 0-44.134-23.949-82.779-59.534-103.623zm-222.468 151.622c-115.794 0-210-94.206-210-210s94.206-210 210-210 210 94.206 210 210c0 16.712-1.998 33.376-5.943 49.606-13.093-4.915-27.266-7.604-42.055-7.604-38.016 0-71.96 17.769-93.962 45.439l-53.897-53.898 40.613-40.613 7.071 7.071c5.651 5.65 13.185 8.763 21.213 8.763s15.562-3.112 21.213-8.763l49.498-49.498c3.905-3.905 3.905-10.237 0-14.142s-10.237-3.904-14.143 0l-27.426 27.427-14.142-14.142 27.426-27.426c3.905-3.905 3.906-10.237 0-14.143-3.906-3.904-10.237-3.904-14.143 0l-27.426 27.427-14.142-14.142 27.427-27.427c3.905-3.905 3.905-10.237 0-14.142s-10.237-3.904-14.143 0l-49.497 49.498c-5.651 5.65-8.763 13.184-8.763 21.213s3.112 15.563 8.762 21.213l7.071 7.072-40.612 40.611-41.17-41.17c7.34-9.979 11.432-21.57 11.689-33.449.34-15.694-6.135-30.999-18.23-43.095-12.125-12.124-29.21-20.781-46.877-23.75-19.956-3.354-37.207 1.063-48.582 12.437-.001.001 0 0 0 0-11.373 11.375-15.792 28.629-12.437 48.582 2.97 17.667 11.626 34.753 23.751 46.877 12.189 12.189 27.131 18.284 42.073 18.284 11.967 0 23.933-3.91 34.486-11.728l41.155 41.155-72.524 72.524c-3.905 3.905-3.905 10.237 0 14.142 1.953 1.953 4.512 2.929 7.071 2.929s5.119-.977 7.071-2.929l72.524-72.524 56.739 56.739c-9.392 17.102-14.738 36.728-14.738 57.578 0 14.789 2.69 28.962 7.605 42.055-16.23 3.945-32.893 5.943-49.606 5.943zm55.613-274.497 42.426 42.426-7.929 7.929c-1.873 1.873-4.384 2.905-7.071 2.905s-5.198-1.032-7.071-2.905l-28.285-28.285c-1.873-1.873-2.904-4.384-2.904-7.071s1.031-5.197 2.905-7.071zm-117.466 36.186c-.009.009-.018.018-.026.027-16.443 16.417-39.398 16.409-55.834-.027-9.115-9.115-15.907-22.592-18.17-36.051-2.22-13.203.279-24.547 6.856-31.124 5.004-5.004 12.769-7.647 22.013-7.647 2.904 0 5.955.261 9.111.792 13.459 2.263 26.936 9.055 36.051 18.17 16.436 16.436 16.445 39.391.027 55.834-.01.009-.019.017-.028.026zm223.855 290.313c-55.141 0-100-44.86-100-100s44.86-100 100-100 100 44.86 100 100-44.86 100-100 100z"/><path d="m392.002 314.502c-42.734 0-77.5 34.767-77.5 77.5s34.767 77.5 77.5 77.5 77.5-34.767 77.5-77.5c0-42.734-34.767-77.5-77.5-77.5zm56.629 67.5h-23.258c-.753-14.825-3.195-29.493-7.455-41.322 15.871 8.047 27.53 23.243 30.713 41.322zm-56.629 67.008c-3.813-2.406-11.807-18.261-13.361-47.007h26.721c-1.553 28.745-9.547 44.6-13.36 47.007zm-13.361-67.008c1.553-28.746 9.548-44.601 13.361-47.008 3.813 2.406 11.807 18.262 13.36 47.008zm-12.556-41.322c-4.26 11.829-6.702 26.497-7.455 41.322h-23.258c3.184-18.079 14.842-33.274 30.713-41.322zm-30.713 61.322h23.258c.753 14.825 3.195 29.493 7.455 41.321-15.871-8.047-27.529-23.242-30.713-41.321zm82.546 41.321c4.26-11.829 6.702-26.496 7.455-41.321h23.258c-3.183 18.079-14.842 33.274-30.713 41.321z"/></g><g/><g/><g/><g/><g/><g/><g/><g/><g/><g/><g/><g/><g/><g/><g/></svg>