<svg id="Capa_1" enable-background="new 0 0 512.003 512.003" viewBox="0 0 512.003 512.003" xmlns="http://www.w3.org/2000/svg"><g><path d="m119.009 411.899c.867.232 1.738.343 2.595.343 4.415 0 8.456-2.947 9.653-7.414l3.768-14.062c1.43-5.335-1.736-10.818-7.071-12.248-5.334-1.431-10.818 1.736-12.248 7.071l-3.768 14.062c-1.429 5.335 1.737 10.818 7.071 12.248z"/><path d="m161.707 361.828c1.197 4.468 5.237 7.414 9.653 7.414.856 0 1.728-.111 2.595-.343 5.335-1.43 8.5-6.913 7.071-12.248l-3.769-14.062c-1.43-5.335-6.915-8.502-12.248-7.071-5.335 1.43-8.5 6.913-7.071 12.248z"/><path d="m267.707 283.826c1.197 4.468 5.237 7.415 9.653 7.415.856 0 1.728-.111 2.594-.343 5.335-1.429 8.501-6.913 7.071-12.247l-3.768-14.062c-1.43-5.335-6.914-8.503-12.247-7.071-5.335 1.429-8.501 6.913-7.071 12.247z"/><path d="m230.01 262.898c.867.232 1.738.343 2.595.343 4.415 0 8.456-2.947 9.653-7.414l3.768-14.062c1.43-5.335-1.736-10.818-7.071-12.248-5.336-1.43-10.818 1.736-12.248 7.071l-3.768 14.062c-1.43 5.335 1.737 10.818 7.071 12.248z"/><path d="m510.663 247.488-140-242.487c-1.786-3.094-5.088-5-8.66-5s-6.874 1.906-8.66 5l-74.939 129.8-13.74-23.799c-1.787-3.094-5.088-5-8.661-5s-6.874 1.906-8.66 5l-74.94 129.8-13.74-23.799c-1.786-3.094-5.087-5-8.66-5s-6.874 1.906-8.66 5l-140 242.487c-2.762 4.783-1.123 10.899 3.66 13.66 44.024 25.417 94.164 38.853 145 38.853 50.835 0 100.976-13.435 145-38.853 4.783-2.761 6.422-8.877 3.66-13.66l-31.017-53.723c46.822-1.889 92.698-15.143 133.358-38.617 2.297-1.326 3.973-3.51 4.659-6.072.687-2.562.327-5.292-.999-7.588l-22.49-38.954c-.003-.006-.006-.011-.01-.017s-.007-.011-.01-.017l-8.507-14.734c46.822-1.889 92.697-15.143 133.357-38.617 2.297-1.326 3.973-3.51 4.659-6.072.685-2.565.326-5.294-1-7.591zm-148.66-217.487 103.729 179.663c-31.958 16.593-67.687 25.337-103.729 25.337-8.877 0-17.833-.533-26.665-1.586l-45.388-78.614zm-106.001 106.001 103.728 179.662c-31.974 16.604-67.625 25.338-103.728 25.338-8.877 0-17.832-.533-26.665-1.586l-45.388-78.614zm-106 106 103.728 179.663c-31.958 16.593-67.687 25.337-103.728 25.337s-71.771-8.744-103.728-25.337zm0 250c-43.994 0-87.426-10.806-126.247-31.334l12.509-21.667c34.998 18.335 74.195 28.001 113.737 28.001s78.739-9.666 113.737-28.001l12.51 21.667c-38.821 20.528-82.253 31.334-126.246 31.334zm106.231-106.001-14.681-25.428c4.82.285 9.645.429 14.45.429 39.61 0 78.72-9.655 113.738-28.002l12.51 21.668c-38.754 20.492-82.103 31.295-126.017 31.333zm106.001-106.001-14.681-25.428c4.82.285 9.646.429 14.45.429 39.542 0 78.74-9.666 113.737-28.001l12.51 21.667c-38.754 20.491-82.103 31.295-126.016 31.333z"/><path d="m341.011 194.897c.867.232 1.737.343 2.594.343 4.415 0 8.456-2.947 9.653-7.415l3.768-14.062c1.43-5.334-1.736-10.818-7.071-12.247-5.338-1.429-10.817 1.737-12.247 7.071l-3.768 14.062c-1.43 5.335 1.736 10.818 7.071 12.248z"/><path d="m373.708 159.825c1.197 4.468 5.237 7.415 9.653 7.415.856 0 1.728-.111 2.594-.343 5.335-1.429 8.501-6.913 7.071-12.247l-3.768-14.062c-1.43-5.335-6.913-8.501-12.247-7.071-5.335 1.429-8.501 6.913-7.071 12.247z"/></g><g/><g/><g/><g/><g/><g/><g/><g/><g/><g/><g/><g/><g/><g/><g/></svg>