<svg id="Capa_1" enable-background="new 0 0 512.001 512.001" viewBox="0 0 512.001 512.001" xmlns="http://www.w3.org/2000/svg"><g><path d="m100.368 385.672c-16.587 0-30.082 13.495-30.082 30.082v60.245c0 5.523 4.478 10 10 10s10-4.477 10-10v-20.124h20.163v20.124c0 5.523 4.478 10 10 10s10-4.477 10-10v-60.245c0-16.587-13.494-30.082-30.081-30.082zm10.081 50.203h-20.163v-20.122c0-5.559 4.522-10.082 10.082-10.082 5.559 0 10.081 4.522 10.081 10.082z"/><path d="m250.979 405.672c5.522 0 10-4.477 10-10s-4.478-10-10-10h-35.143c-5.522 0-10 4.477-10 10v80.327c0 5.523 4.478 10 10 10h35.143c5.522 0 10-4.477 10-10s-4.478-10-10-10h-25.143v-20.164h14.726c5.522 0 10-4.477 10-10s-4.478-10-10-10h-14.726v-20.163z"/><path d="m185.715 385.673h-35.143c-5.522 0-10 4.477-10 10s4.478 10 10 10h7.571v70.326c0 5.523 4.478 10 10 10s10-4.477 10-10v-70.326h7.571c5.522 0 10-4.477 10-10s-4.477-10-9.999-10z"/><path d="m30.082 405.672c5.559 0 10.081 4.522 10.081 10.082 0 5.523 4.478 10 10 10s10-4.477 10-10c0-16.587-13.494-30.082-30.081-30.082s-30.082 13.495-30.082 30.082v40.164c0 16.587 13.495 30.082 30.082 30.082s30.081-13.495 30.081-30.082c0-5.523-4.478-10-10-10s-10 4.477-10 10c0 5.559-4.522 10.082-10.081 10.082-5.56 0-10.082-4.522-10.082-10.082v-40.164c0-5.559 4.522-10.082 10.082-10.082z"/><path d="m502 431.09h-10.04c-5.522 0-10 4.477-10 10s4.478 10 10 10l.04 4.828c0 5.559-4.522 10.082-10.082 10.082-5.559 0-10.081-4.522-10.081-10.082v-40.164c0-5.559 4.522-10.081 10.081-10.081 3.795 0 7.24 2.125 8.991 5.547 2.516 4.917 8.542 6.862 13.458 4.346s6.862-8.541 4.347-13.458c-5.188-10.138-15.456-16.436-26.796-16.436-16.587 0-30.081 13.494-30.081 30.081v40.164c0 16.587 13.494 30.082 30.081 30.082s30.082-13.495 30.082-30.082v-14.827c0-5.523-4.478-10-10-10z"/><path d="m351.388 385.672c-5.522 0-10 4.477-10 10v80.327c0 5.523 4.478 10 10 10s10-4.477 10-10v-80.327c0-5.523-4.478-10-10-10z"/><path d="m426.694 385.672c-5.522 0-10 4.477-10 10v37.966l-21.218-42.438c-2.074-4.148-6.726-6.328-11.242-5.26-4.514 1.065-7.702 5.095-7.702 9.732v80.327c0 5.523 4.478 10 10 10s10-4.477 10-10v-37.966l21.219 42.438c1.722 3.443 5.221 5.529 8.942 5.529.762 0 1.532-.087 2.3-.269 4.514-1.065 7.702-5.095 7.702-9.732v-80.327c-.001-5.523-4.478-10-10.001-10z"/><path d="m315.538 442.183c9.361-5.104 15.727-15.038 15.727-26.43 0-16.587-13.495-30.082-30.082-30.082h-20.081c-5.522 0-10 4.477-10 10v80.329c0 5.523 4.478 10 10 10s10-4.477 10-10v-30.165h3.901l17.318 34.637c1.752 3.504 5.283 5.53 8.952 5.53 1.503 0 3.028-.34 4.464-1.058 4.94-2.47 6.942-8.477 4.473-13.417zm-24.435-36.512h10.081c5.56 0 10.082 4.522 10.082 10.082 0 5.521-4.46 10.018-9.967 10.08-.107-.001-.214-.001-.321.001h-9.875z"/><path d="m54.999 360.673h402.002c30.327 0 55-24.673 55-55 0-5.523-4.478-10-10-10h-10.211c-2.512-60.037-27.368-116.065-70.375-158.327-37.491-36.842-85.2-59.71-136.617-65.94 1.948-4.119 3.039-8.719 3.039-13.57 0-17.555-14.281-31.837-31.836-31.837s-31.837 14.282-31.837 31.837c0 4.851 1.091 9.451 3.039 13.57-51.417 6.23-99.127 29.098-136.617 65.94-43.007 42.262-67.862 98.291-70.375 158.327h-10.211c-5.522 0-10 4.477-10 10 0 30.327 24.673 55 54.999 55zm402.002-20h-402.002c-15.825 0-29.23-10.558-33.544-25h469.091c-4.314 14.442-17.72 25-33.545 25zm-201-294.673c6.526 0 11.836 5.31 11.836 11.837s-5.31 11.837-11.836 11.837c-6.527 0-11.837-5.31-11.837-11.837s5.31-11.837 11.837-11.837zm-.001 43.673c114.958 0 210.468 91.846 215.769 206h-431.537c5.301-114.154 100.81-206 215.768-206z"/><path d="m160.5 140.263c-28.995 16.74-53.17 40.915-69.91 69.911-2.762 4.783-1.123 10.899 3.66 13.66 1.575.91 3.294 1.341 4.99 1.341 3.456 0 6.818-1.793 8.67-5.001 14.987-25.96 36.631-47.603 62.59-62.59 4.783-2.761 6.422-8.877 3.66-13.66s-8.874-6.423-13.66-3.661z"/></g><g/><g/><g/><g/><g/><g/><g/><g/><g/><g/><g/><g/><g/><g/><g/></svg>