<svg id="Capa_1" enable-background="new 0 0 512.002 512.002" viewBox="0 0 512.002 512.002" xmlns="http://www.w3.org/2000/svg"><g><path d="m502.002 341.002h-16.266c.54-7.138.271-16.8-.8-30.043-2.458-30.357-14.733-59.594-34.565-82.326-19.48-22.331-43.725-35.138-66.515-35.138-21.751 0-45.041 11.89-63.924 32.261-19.016-20.55-42.138-32.261-63.93-32.261-21.751 0-45.041 11.89-63.925 32.26-19.016-20.55-42.138-32.26-63.93-32.26-22.79 0-47.033 12.807-66.515 35.138-19.831 22.732-32.106 51.97-34.564 82.326-1.072 13.242-1.341 22.904-.801 30.043h-16.267c-5.522 0-10 4.477-10 10 0 30.327 24.673 55 55 55h402.002c30.327 0 55-24.673 55-55 0-5.523-4.478-10-10-10zm-118.147-127.507c16.761 0 35.992 10.574 51.444 28.286 17.037 19.53 27.586 44.671 29.7 70.792 1.06 13.097 1.281 22.631.661 28.429h-31.788v-49.597c0-5.523-4.478-10-10-10h-72.37c-4.246-14.161-10.651-27.633-18.952-39.788 15.49-17.715 34.32-28.122 51.305-28.122zm-26.774 97.464c-.259-3.199-.627-6.386-1.102-9.554h57.894v39.597h-55.991c.54-7.139.271-16.801-.801-30.043zm-101.08-97.464c16.761 0 35.993 10.574 51.444 28.286 17.038 19.53 27.586 44.671 29.7 70.792 1.06 13.095 1.281 22.629.661 28.429h-31.788v-49.597c0-5.523-4.478-10-10-10h-72.37c-4.246-14.161-10.651-27.633-18.952-39.788 15.49-17.715 34.319-28.122 51.305-28.122zm-26.774 97.464c-.259-3.199-.627-6.386-1.102-9.554h57.894v39.597h-55.991c.539-7.139.271-16.801-.801-30.043zm-182.224 1.614c2.114-26.122 12.662-51.263 29.7-70.792 15.451-17.711 34.683-28.286 51.443-28.286s35.993 10.574 51.444 28.286c17.038 19.53 27.586 44.671 29.7 70.792 1.06 13.095 1.281 22.629.661 28.429h-31.787v-49.597c0-5.523-4.478-10-10-10h-80.035c-5.522 0-10 4.477-10 10v49.597h-31.787c-.62-5.8-.399-15.334.661-28.429zm111.162 28.429h-60.036v-39.597h60.036zm298.837 45h-402.002c-15.825 0-29.231-10.558-33.545-25h469.092c-4.314 14.442-17.72 25-33.545 25z"/><path d="m172.059 156.467c-2.505 4.922-.546 10.943 4.376 13.448 1.453.74 3.002 1.09 4.528 1.09 3.643 0 7.154-1.997 8.92-5.466 8.224-16.157 3.249-25.592-.043-31.836-2.465-4.675-3.388-6.425.043-13.164 2.505-4.922.546-10.943-4.376-13.448-4.921-2.505-10.942-.546-13.448 4.376-8.131 15.974-3.184 25.355.09 31.564 2.498 4.739 3.433 6.513-.09 13.436z"/><path d="m247.058 156.467c-2.505 4.922-.546 10.943 4.376 13.448 1.453.74 3.002 1.09 4.528 1.09 3.643 0 7.154-1.997 8.92-5.466 8.225-16.157 3.249-25.592-.043-31.836-2.465-4.675-3.387-6.425.043-13.164 2.505-4.922.546-10.943-4.376-13.448-4.92-2.505-10.943-.546-13.448 4.376-8.13 15.973-3.184 25.355.09 31.563 2.498 4.74 3.434 6.514-.09 13.437z"/><path d="m322.058 156.467c-2.505 4.922-.546 10.943 4.376 13.448 1.453.74 3.002 1.09 4.528 1.09 3.643 0 7.154-1.997 8.92-5.466 8.224-16.157 3.249-25.592-.043-31.836-2.465-4.675-3.387-6.425.043-13.164 2.505-4.922.546-10.943-4.376-13.448-4.921-2.505-10.942-.546-13.448 4.376-8.13 15.973-3.184 25.355.09 31.563 2.498 4.74 3.433 6.514-.09 13.437z"/></g><g/><g/><g/><g/><g/><g/><g/><g/><g/><g/><g/><g/><g/><g/><g/></svg>