<svg id="Capa_1" enable-background="new 0 0 512.002 512.002" viewBox="0 0 512.002 512.002" xmlns="http://www.w3.org/2000/svg"><g><path d="m502.002 381.002h-16.451l-4.599-45.995c-.511-5.112-4.812-9.005-9.95-9.005h-7.812c7.994-9.552 12.812-21.849 12.812-35.25 0-13.577-4.945-26.02-13.129-35.625h18.128c5.523 0 10-4.477 10-10v-45c0-5.523-4.477-10-10-10h-36.358l43.429-43.43c2.86-2.86 3.715-7.161 2.167-10.897-1.548-3.737-5.194-6.173-9.239-6.173h-50v-53.627c0-5.523-4.477-10-10-10s-10 4.477-10 10v53.627h-50c-4.044 0-7.691 2.437-9.239 6.173s-.692 8.038 2.167 10.898l43.429 43.429h-36.358c-5.523 0-10 4.477-10 10v45c0 5.523 4.477 10 10 10h18.129c-8.183 9.604-13.129 22.048-13.129 35.625 0 13.401 4.818 25.698 12.812 35.25h-7.813c-5.138 0-9.439 3.893-9.95 9.005l-4.599 45.995h-35.901l-4.599-45.995c-.511-5.112-4.812-9.005-9.95-9.005h-7.812c7.994-9.552 12.812-21.849 12.812-35.25 0-13.577-4.945-26.02-13.129-35.625h18.128c5.523 0 10-4.477 10-10v-45c0-5.523-4.477-10-10-10h-36.358l43.429-43.429c2.86-2.86 3.715-7.162 2.167-10.898-1.548-3.737-5.194-6.173-9.239-6.173h-50v-53.627c0-5.523-4.477-10-10-10s-10 4.477-10 10v53.627h-50c-4.044 0-7.691 2.437-9.239 6.173s-.692 8.038 2.167 10.897l43.429 43.43h-36.358c-5.523 0-10 4.477-10 10v45c0 5.523 4.477 10 10 10h18.128c-8.183 9.604-13.129 22.048-13.129 35.625 0 13.401 4.818 25.698 12.812 35.25h-7.812c-5.138 0-9.439 3.893-9.95 9.005l-4.599 45.995h-35.901l-4.599-45.995c-.511-5.112-4.812-9.005-9.95-9.005h-7.812c7.994-9.552 12.812-21.849 12.812-35.25 0-13.577-4.945-26.02-13.129-35.625h18.133c5.523 0 10-4.477 10-10v-45c0-5.523-4.477-10-10-10h-36.358l43.429-43.43c2.86-2.86 3.715-7.161 2.167-10.897-1.548-3.737-5.194-6.173-9.239-6.173h-50v-53.627c0-5.523-4.477-10-10-10s-10 4.477-10 10v53.627h-50c-4.044 0-7.691 2.437-9.239 6.173s-.692 8.038 2.167 10.898l43.429 43.429h-36.355c-5.523 0-10 4.477-10 10v45c0 5.523 4.477 10 10 10h18.129c-8.183 9.604-13.129 22.048-13.129 35.625 0 13.401 4.818 25.698 12.812 35.25h-7.813c-5.138 0-9.439 3.893-9.95 9.005l-4.599 45.995h-16.451c-5.523 0-10 4.477-10 10 0 30.327 24.673 55 55 55h402.002c30.327 0 55-24.673 55-55 0-5.523-4.477-10-10-10zm-45.143-231.375-35.857 35.858-35.858-35.858zm-85.858 60.501h100v25h-100zm15 80.624c0-19.299 15.701-35 35-35s35 15.701 35 35-15.701 35-35 35-35-15.701-35-35zm-94.142-141.125-35.858 35.858-35.857-35.858zm-85.858 60.501h100v25h-100zm15 80.624c0-19.299 15.701-35 35-35s35 15.701 35 35-15.701 35-35 35-35-15.701-35-35zm-94.143-141.125-35.857 35.858-35.858-35.858zm-85.857 60.501h100v25h-100zm15 80.624c0-19.299 15.701-35 35-35s35 15.701 35 35-15.701 35-35 35-35-15.701-35-35zm324.05 55.25h81.901l3.5 35h-88.901zm-165 0h81.9l3.5 35h-88.901zm-165.001 0h81.901l3.5 35h-88.901zm406.952 80h-402.002c-15.825 0-29.231-10.558-33.545-25h469.092c-4.314 14.442-17.72 25-33.545 25z"/></g><g/><g/><g/><g/><g/><g/><g/><g/><g/><g/><g/><g/><g/><g/><g/></svg>