<svg id="Capa_1" enable-background="new 0 0 512 512" viewBox="0 0 512 512" xmlns="http://www.w3.org/2000/svg"><g><path d="m502 185.232c5.523 0 10-4.477 10-10v-74.232c0-5.523-4.477-10-10-10h-492c-5.523 0-10 4.477-10 10v74.233c0 5.523 4.477 10 10 10 8.271 0 15 6.729 15 15s-6.729 15-15 15c-5.523 0-10 4.477-10 10v61.536c0 5.523 4.477 10 10 10 8.271 0 15 6.729 15 15s-6.729 15-15 15c-5.523 0-10 4.477-10 10v74.231c0 5.523 4.477 10 10 10h492c5.523 0 10-4.477 10-10v-74.233c0-5.523-4.477-10-10-10-8.271 0-15-6.729-15-15s6.729-15 15-15c5.523 0 10-4.477 10-10v-61.536c0-5.523-4.477-10-10-10-8.271 0-15-6.729-15-15s6.729-14.999 15-14.999zm-10-50h-345.465v-24.232h345.465zm-365.465-24.232v24.232h-106.535v-24.232zm-81.535 200.768c0-15.825-10.558-29.231-25-33.545v-44.446c14.441-4.313 25-17.72 25-33.545s-10.558-29.231-25-33.544v-11.456h106.535v24.884c-37.493 4.914-66.535 37.071-66.535 75.884s29.041 70.97 66.535 75.884v24.884h-106.535v-11.456c14.441-4.313 25-17.719 25-33.544zm91.535.767c-31.173 0-56.535-25.362-56.535-56.535s25.361-56.535 56.535-56.535 56.535 25.361 56.535 56.535-25.362 56.535-56.535 56.535zm-116.535 64.233h106.535v24.232h-106.535zm126.535 24.232v-24.232h345.465v24.232zm345.465-167.223v44.446c-14.441 4.313-25 17.72-25 33.545s10.558 29.231 25 33.544v11.456h-345.465v-24.884c37.494-4.914 66.535-37.071 66.535-75.884s-29.041-70.97-66.535-75.884v-24.884h345.465v11.456c-14.441 4.313-25 17.719-25 33.544s10.558 29.231 25 33.545z"/><path d="m431.999 252.535h-5.391c.226-1.673.341-3.364.341-5.062 0-13.579-7.408-26.291-19.334-33.176-.915-.528-1.843-1.015-2.781-1.461l11.957-17.794c3.08-4.584 1.861-10.797-2.723-13.877-4.583-3.081-10.797-1.861-13.877 2.723l-17.4 25.894c-1.079.196-2.151.443-3.211.742-9.699-10.225-23.243-16.141-37.58-16.141-14.363 0-28.058 6.017-37.779 16.36-.91-.229-1.83-.424-2.759-.585l-17.652-26.27c-3.08-4.584-9.293-5.803-13.877-2.723-4.584 3.081-5.803 9.293-2.723 13.877l12.059 17.947c-13.094 5.968-22.218 19.181-22.218 34.485 0 1.697.115 3.388.341 5.062h-5.391c-5.523 0-10 4.477-10 10v20c0 27.57 22.43 50 50 50h100c27.57 0 50-22.43 50-50v-20c-.002-5.524-4.479-10.001-10.002-10.001zm-154.95-5.062c0-9.856 8.018-17.874 17.874-17.874 4.774 0 9.263 1.859 12.638 5.235 3.905 3.905 10.237 3.905 14.143 0 3.717-3.717 3.896-9.633.536-13.562 5.562-4.401 12.522-6.89 19.759-6.89 10.509 0 20.326 5.179 26.258 13.854 2.951 4.315 8.727 5.628 13.254 3.015 6.981-4.03 13.586-1.088 16.104.365 5.845 3.375 9.334 9.302 9.334 15.856 0 1.719-.25 3.424-.733 5.062h-128.433c-.484-1.637-.734-3.342-.734-5.061zm144.95 35.062c0 16.542-13.458 30-30 30h-100c-16.542 0-30-13.458-30-30v-10h160z"/><path d="m136.535 224.464c-17.389 0-31.535 14.147-31.535 31.536s14.147 31.536 31.536 31.536 31.534-14.148 31.534-31.536-14.146-31.536-31.535-31.536zm0 43.071c-6.361 0-11.535-5.175-11.535-11.535s5.175-11.535 11.536-11.535c6.36 0 11.535 5.175 11.535 11.535-.001 6.36-5.175 11.535-11.536 11.535z"/></g><g/><g/><g/><g/><g/><g/><g/><g/><g/><g/><g/><g/><g/><g/><g/></svg>