<svg id="Capa_1" enable-background="new 0 0 512.001 512.001" viewBox="0 0 512.001 512.001" xmlns="http://www.w3.org/2000/svg"><g><path d="m509.663 335.76c2.497-2.978 3.043-7.132 1.4-10.653s-5.177-5.772-9.062-5.772h-154v-35.25l79.662-94.99c2.497-2.978 3.043-7.132 1.4-10.653s-5.177-5.772-9.062-5.772h-154.001v-35.251l79.662-94.991c2.497-2.978 3.043-7.132 1.4-10.653s-5.177-5.772-9.062-5.772h-164c-3.886 0-7.42 2.251-9.062 5.772s-1.097 7.676 1.4 10.653l79.662 94.989v35.251h-154c-3.886 0-7.42 2.251-9.062 5.772s-1.097 7.676 1.4 10.653l79.662 94.991v35.25h-154c-3.886 0-7.42 2.251-9.062 5.772s-1.097 7.676 1.4 10.653l79.662 94.991v35.25h-20.75c-5.523 0-10 4.477-10 10s4.477 10 10 10h61.5c5.523 0 10-4.477 10-10s-4.477-10-10-10h-20.75v-35.25l72-85.854 72 85.854v35.25h-20.75c-5.523 0-10 4.477-10 10s4.477 10 10 10h61.501c5.522 0 10-4.477 10-10s-4.478-10-10-10h-20.75v-35.25l72-85.854 72 85.854v35.25h-20.75c-5.522 0-10 4.477-10 10s4.478 10 10 10h61.5c5.522 0 10-4.477 10-10s-4.478-10-10-10h-20.75v-35.25zm-113.78 47.031h48.235l-24.118 28.758zm-221.883-117.908-24.118-28.758h48.236zm10 19.201 72-85.854 72.001 85.854v35.25h-144.001zm154.001-19.201-24.118-28.758h48.236zm60.563-72.215-19.672 23.457h-81.782l-19.672-23.457zm-142.564-74.451-24.118-28.758h48.235zm60.563-72.216-19.673 23.457h-81.78l-19.672-23.458h121.125zm-82 146.667-19.672 23.457h-81.781l-19.672-23.457zm-142.563 218.882-24.118-28.758h48.235zm40.89-48.759h-81.78l-19.672-23.458h121.125zm123.111 48.759-24.118-28.759h48.236zm40.89-48.759h-81.781l-19.672-23.458h121.126zm183.673-23.457-19.672 23.458h-81.781l-19.672-23.458z"/></g><g/><g/><g/><g/><g/><g/><g/><g/><g/><g/><g/><g/><g/><g/><g/></svg>