<svg id="Capa_1" enable-background="new 0 0 512.002 512.002" viewBox="0 0 512.002 512.002" xmlns="http://www.w3.org/2000/svg"><g><path d="m222.255 60c5.522 0 10-4.477 10-10s-4.478-10-10-10h-.008c-5.522 0-9.996 4.477-9.996 10s4.481 10 10.004 10z"/><path d="m469.751 391.622c0-26.896-21.882-48.778-48.777-48.778-.271 0-.543.002-.813.007-3.96-8.977-10.201-16.592-17.909-22.222v-270.629c0-5.523-4.478-10-10-10h-121.006c-4.646-22.794-24.85-40-48.995-40s-44.35 17.206-48.995 40h-121.005c-5.522 0-10 4.477-10 10v408.191c0 5.523 4.478 10 10 10h254.785v33.811c0 5.523 4.478 10 10 10h105.431c2.652 0 5.195-1.054 7.071-2.929 1.875-1.875 2.929-4.419 2.929-7.071l-.001-62.967c21.798-5.235 37.285-24.66 37.285-47.413zm-87.5-331.622v251.453c-4.034-.94-8.222-1.434-12.5-1.434s-8.466.494-12.5 1.434v-216.453c0-5.523-4.478-10-10-10h-30v-25zm-112.5 331.622c0 3.978.474 7.854 1.372 11.57h-163.873v-298.192h230.001v215.629c-7.708 5.63-13.949 13.245-17.909 22.222-.271-.004-.542-.007-.813-.007-26.896 0-48.778 21.882-48.778 48.778zm-87.5-331.622c5.522 0 10-4.477 10-10 0-16.542 13.458-30 30-30s30 13.458 30 30c0 5.523 4.478 10 10 10h35v25h-150v-25zm-120 388.191v-388.191h65v25h-30.001c-5.522 0-10 4.477-10 10v318.192c0 5.523 4.478 10 10 10h184.028c6.518 7.696 15.429 13.363 25.758 15.843v9.157h-244.785zm264.785 43.811v-23.811h85.43v23.811zm105.43-73.973v-8.174c0-5.523-4.478-10-10-10s-10 4.477-10 10v38.335h-85.43v-38.335c0-5.523-4.478-10-10-10s-10 4.477-10 10v8.173c-10.322-4.459-17.285-14.684-17.285-26.407 0-15.868 12.909-28.778 28.777-28.778 1.901 0 3.807.188 5.664.558 5.179 1.034 10.276-2.147 11.624-7.26 4.052-15.38 18.006-26.123 33.935-26.123s29.883 10.742 33.935 26.123c1.347 5.112 6.438 8.293 11.624 7.26 1.857-.37 3.763-.558 5.664-.558 15.868 0 28.777 12.91 28.777 28.778 0 11.725-6.962 21.95-17.285 26.408z"/><path d="m302.251 130.456h-160c-5.522 0-10 4.477-10 10s4.478 10 10 10h160c5.522 0 10-4.477 10-10s-4.478-10-10-10z"/><path d="m142.251 195.912h80c5.522 0 10-4.477 10-10s-4.478-10-10-10h-80c-5.522 0-10 4.477-10 10s4.478 10 10 10z"/><path d="m302.251 221.368h-160c-5.522 0-10 4.477-10 10s4.478 10 10 10h160c5.522 0 10-4.477 10-10s-4.478-10-10-10z"/><path d="m302.251 266.824h-160c-5.522 0-10 4.477-10 10s4.478 10 10 10h160c5.522 0 10-4.477 10-10s-4.478-10-10-10z"/><path d="m252.251 312.279h-110c-5.522 0-10 4.477-10 10s4.478 10 10 10h110c5.522 0 10-4.477 10-10s-4.478-10-10-10z"/><path d="m222.251 357.735h-80c-5.522 0-10 4.477-10 10s4.478 10 10 10h80c5.522 0 10-4.477 10-10s-4.478-10-10-10z"/></g><g/><g/><g/><g/><g/><g/><g/><g/><g/><g/><g/><g/><g/><g/><g/></svg>