<svg id="Capa_1" enable-background="new 0 0 512.002 512.002" viewBox="0 0 512.002 512.002" xmlns="http://www.w3.org/2000/svg"><g><path d="m502.002 227.331h-33.751v-118.169c0-3.081-1.394-5.836-3.585-7.671 2.291-4.449 3.585-9.491 3.585-14.829 0-15.232-13.834-30.929-22.988-41.315-.695-.789-1.356-1.54-1.975-2.248-1.898-2.178-4.647-3.428-7.537-3.428-2.891 0-5.639 1.25-7.538 3.429-.618.709-1.281 1.462-1.978 2.252-9.152 10.386-22.984 26.081-22.984 41.311 0 5.339 1.294 10.381 3.585 14.829-2.191 1.834-3.585 4.589-3.585 7.671v118.169h-54.072l-6.699-25h18.521c5.522 0 10-4.477 10-10s-4.478-10-10-10h-.015c-2.321-24.724-13.181-47.635-31.071-65.215-17.447-17.146-39.848-27.518-63.914-29.773v-2.168c0-5.523-4.478-10-10-10s-10 4.477-10 10v2.168c-24.066 2.255-46.466 12.627-63.914 29.773-17.889 17.581-28.75 40.491-31.07 65.215h-.016c-5.522 0-10 4.477-10 10s4.478 10 10 10h18.521l-6.698 25h-54.073v-118.17c0-3.081-1.394-5.836-3.585-7.671 2.291-4.449 3.585-9.491 3.585-14.829 0-15.229-13.832-30.925-22.984-41.311-.696-.79-1.359-1.542-1.978-2.252-1.899-2.178-4.647-3.429-7.538-3.429-2.89 0-5.639 1.25-7.537 3.428-.618.708-1.279 1.459-1.975 2.248-9.154 10.387-22.988 26.084-22.988 41.316 0 5.339 1.294 10.381 3.585 14.829-2.191 1.834-3.585 4.589-3.585 7.671v118.169h-33.751c-5.522 0-10 4.477-10 10v147.913c0 13.853 6.728 26.164 17.088 33.837v43.25c0 5.523 4.478 10 10 10h457.827c5.522 0 10-4.477 10-10v-43.25c10.359-7.674 17.087-19.984 17.087-33.837v-147.913c0-5.523-4.478-10-10-10zm-32.087 180c-7.39 0-14.272-3.717-18.411-9.944-1.854-2.789-4.979-4.464-8.328-4.464-3.348 0-6.475 1.676-8.328 4.464-4.139 6.227-11.021 9.944-18.411 9.944s-14.272-3.717-18.411-9.944c-1.854-2.789-4.979-4.464-8.328-4.464s-6.475 1.676-8.328 4.464c-4.139 6.227-11.021 9.944-18.411 9.944s-14.272-3.717-18.411-9.944c-1.854-2.789-4.979-4.464-8.328-4.464-3.348 0-6.475 1.676-8.328 4.464-4.139 6.227-11.021 9.944-18.411 9.944s-14.272-3.717-18.411-9.944c-1.854-2.789-4.979-4.464-8.328-4.464-3.348 0-6.475 1.676-8.328 4.464-4.139 6.227-11.021 9.944-18.411 9.944-7.389 0-14.271-3.718-18.412-9.944-1.854-2.789-4.979-4.464-8.327-4.464-3.349 0-6.475 1.676-8.328 4.464-4.139 6.227-11.021 9.944-18.411 9.944s-14.272-3.717-18.411-9.944c-1.854-2.789-4.98-4.464-8.328-4.464-3.349 0-6.475 1.676-8.328 4.464-4.139 6.227-11.021 9.944-18.41 9.944-7.39 0-14.272-3.717-18.411-9.944-1.854-2.789-4.979-4.464-8.328-4.464-3.348 0-6.475 1.676-8.328 4.464-4.139 6.227-11.021 9.944-18.411 9.944s-14.272-3.717-18.411-9.944c-1.854-2.789-4.979-4.464-8.328-4.464s-6.475 1.676-8.328 4.464c-4.139 6.227-11.021 9.944-18.411 9.944-12.18 0-22.088-9.908-22.088-22.087v-38.144c6.425 3.977 13.993 6.275 22.088 6.275 9.892 0 19.295-3.471 26.739-9.622 7.444 6.151 16.848 9.622 26.739 9.622s19.295-3.471 26.739-9.622c7.444 6.151 16.848 9.622 26.739 9.622s19.295-3.471 26.738-9.622c7.444 6.15 16.848 9.622 26.739 9.622s19.296-3.471 26.739-9.622c7.444 6.15 16.848 9.622 26.739 9.622s19.295-3.471 26.739-9.622c7.444 6.151 16.848 9.622 26.739 9.622s19.295-3.471 26.739-9.622c7.444 6.151 16.848 9.622 26.739 9.622s19.295-3.471 26.739-9.622c7.444 6.151 16.848 9.622 26.739 9.622s19.295-3.471 26.739-9.622c7.444 6.151 16.848 9.622 26.739 9.622 8.095 0 15.663-2.298 22.087-6.274v38.144c0 12.178-9.908 22.086-22.087 22.086zm-34.164-342.394c5.832 6.999 12.5 16.039 12.5 21.725 0 6.893-5.607 12.5-12.5 12.5s-12.5-5.607-12.5-12.5c0-5.686 6.669-14.727 12.5-21.725zm-12.5 54.225h25v108.169h-25zm-94.778 108.169h-62.472v-25h55.773zm-72.472-120.454c43.432 0 79.848 33.138 84.866 75.455h-169.73c5.017-42.317 41.432-75.455 84.864-75.455zm-65.773 95.454h55.773v25h-62.472zm-113.977-137.394c5.831 6.998 12.5 16.039 12.5 21.725 0 6.893-5.607 12.5-12.5 12.5s-12.5-5.607-12.5-12.5c0-5.687 6.668-14.727 12.5-21.725zm-12.5 54.225h25v108.169h-25zm-43.751 128.169h472.002v63.957c0 12.179-9.908 22.086-22.087 22.086-7.39 0-14.272-3.717-18.411-9.944-1.854-2.789-4.979-4.464-8.328-4.464s-6.475 1.676-8.328 4.464c-4.139 6.227-11.021 9.944-18.411 9.944s-14.272-3.717-18.411-9.944c-1.854-2.789-4.979-4.464-8.328-4.464s-6.475 1.676-8.328 4.464c-4.139 6.227-11.021 9.944-18.411 9.944s-14.272-3.717-18.411-9.944c-1.854-2.789-4.979-4.464-8.328-4.464s-6.475 1.676-8.328 4.464c-4.139 6.227-11.021 9.944-18.411 9.944s-14.272-3.717-18.411-9.944c-1.854-2.789-4.979-4.464-8.328-4.464s-6.475 1.676-8.328 4.464c-4.139 6.227-11.021 9.944-18.411 9.944-7.389 0-14.271-3.718-18.412-9.944-1.854-2.789-4.979-4.464-8.327-4.464-3.349 0-6.475 1.676-8.328 4.464-4.139 6.227-11.021 9.944-18.411 9.944s-14.272-3.717-18.411-9.944c-1.854-2.789-4.98-4.464-8.328-4.464-3.349 0-6.475 1.676-8.328 4.464-4.139 6.227-11.021 9.944-18.41 9.944-7.39 0-14.272-3.717-18.411-9.944-1.854-2.789-4.979-4.464-8.328-4.464s-6.475 1.676-8.328 4.464c-4.139 6.227-11.021 9.944-18.411 9.944s-14.272-3.717-18.411-9.944c-1.854-2.789-4.979-4.464-8.328-4.464s-6.475 1.676-8.328 4.464c-4.139 6.227-11.021 9.944-18.411 9.944-12.18 0-22.088-9.908-22.088-22.086v-63.957zm454.915 205h-437.827v-25.296c1.64.195 3.308.296 5 .296 9.892 0 19.295-3.471 26.739-9.622 7.444 6.151 16.848 9.622 26.739 9.622s19.295-3.471 26.739-9.622c7.444 6.151 16.848 9.622 26.739 9.622s19.295-3.471 26.738-9.622c7.444 6.15 16.848 9.622 26.739 9.622s19.295-3.472 26.739-9.622c7.444 6.15 16.848 9.622 26.739 9.622s19.295-3.471 26.739-9.622c7.444 6.151 16.848 9.622 26.739 9.622s19.295-3.471 26.739-9.622c7.444 6.151 16.848 9.622 26.739 9.622s19.295-3.471 26.739-9.622c7.444 6.151 16.848 9.622 26.739 9.622s19.295-3.471 26.739-9.622c7.444 6.151 16.848 9.622 26.739 9.622 1.692 0 3.36-.101 5-.296v25.296z"/></g><g/><g/><g/><g/><g/><g/><g/><g/><g/><g/><g/><g/><g/><g/><g/></svg>