<svg id="Capa_1" enable-background="new 0 0 512.022 512.022" viewBox="0 0 512.022 512.022" xmlns="http://www.w3.org/2000/svg"><g><path d="m312.022 0c-110.28 0-200 89.72-200 200 0 41.058 12.437 79.266 33.74 111.055l-132.859 126.513c-.059.056-.118.113-.175.171-16.97 16.971-16.97 44.584 0 61.555 8.485 8.485 19.631 12.728 30.777 12.728s22.292-4.243 30.777-12.728c.058-.058.115-.116.171-.175l126.514-132.859c31.789 21.303 69.997 33.74 111.055 33.74 110.28 0 200-89.72 200-200s-89.72-200-200-200zm-251.96 485.23c-9.179 9.094-24.046 9.068-33.192-.079-9.146-9.146-9.172-24.011-.08-33.19l90.9-86.558 28.929 28.929zm100.353-105.386-28.237-28.237 25.623-24.399c8.128 9.836 17.177 18.885 27.013 27.013zm151.607.156c-99.252 0-180-80.748-180-180s80.748-180 180-180 180 80.748 180 180-80.748 180-180 180z"/><path d="m312.022 45c-85.467 0-155 69.533-155 155s69.533 155 155 155 155-69.533 155-155-69.534-155-155-155zm0 290c-74.439 0-135-60.561-135-135s60.561-135 135-135 135 60.561 135 135-60.561 135-135 135z"/><path d="m363.244 126.834c-.271 0-.543.002-.814.007-8.687-19.691-28.341-32.832-50.409-32.832-22.067 0-41.722 13.141-50.409 32.832-.271-.004-.542-.007-.813-.007-26.896 0-48.777 21.882-48.777 48.778 0 22.754 15.486 42.179 37.285 47.413v62.967c0 5.523 4.477 10 10 10h105.431c2.652 0 5.196-1.054 7.071-2.929s2.929-4.419 2.929-7.071v-62.967c21.798-5.234 37.286-24.659 37.286-47.413-.002-26.897-21.884-48.778-48.78-48.778zm-93.938 149.158v-23.811h85.431v23.811zm105.43-73.973v-8.174c0-5.523-4.477-10-10-10s-10 4.477-10 10v38.336h-85.43v-38.336c0-5.523-4.477-10-10-10s-10 4.477-10 10v8.174c-10.322-4.459-17.285-14.684-17.285-26.407 0-15.868 12.91-28.778 28.777-28.778 1.902 0 3.808.188 5.663.558 5.187 1.034 10.279-2.147 11.626-7.26 4.051-15.38 18.005-26.123 33.934-26.123s29.884 10.742 33.934 26.123c1.347 5.113 6.438 8.294 11.626 7.26 1.855-.37 3.76-.558 5.663-.558 15.868 0 28.778 12.91 28.778 28.778 0 11.723-6.962 21.949-17.286 26.407z"/></g><g/><g/><g/><g/><g/><g/><g/><g/><g/><g/><g/><g/><g/><g/><g/></svg>