<svg id="Capa_1" enable-background="new 0 0 512.001 512.001" viewBox="0 0 512.001 512.001" xmlns="http://www.w3.org/2000/svg"><g><path d="m502.001 391.002h-69.493c2.038-1.519 3.926-3.086 5.656-4.696 11.693-10.88 16.305-23.694 12.986-36.083-3.73-13.923-13.21-19.126-25.211-25.713-9.146-5.02-21.378-11.734-37.549-25.169 5.294-12.07 8.258-18.755 16.113-25.058l21.751-17.455c13.488-10.824 17.649-27.577 10.201-40.871l15.426-8.906 3.974 2.294c1.575.909 3.294 1.342 4.991 1.341 3.456 0 6.817-1.793 8.669-5.001 2.762-4.783 1.123-10.899-3.66-13.66l-3.974-2.294v-4.589c0-5.523-4.477-10-10-10s-10 4.477-10 10v4.589l-15.426 8.906c-7.79-13.099-24.382-17.872-40.497-11.602l-25.992 10.11c-8.787 3.417-15.718 2.956-27.311 1.694.317-3.664 1.107-6.936 2.464-10.425l10.11-25.992c6.269-16.118 1.495-32.708-11.602-40.496l9.237-15.999h4.589c5.523 0 10-4.477 10-10s-4.477-10-10-10h-4.589l-2.294-3.974c-2.761-4.783-8.878-6.422-13.66-3.66-4.783 2.761-6.422 8.877-3.66 13.66l2.294 3.974-9.237 15.999c-13.294-7.45-30.048-3.288-40.871 10.2l-17.456 21.752c-6.343 7.904-13.071 10.855-25.286 16.212-3.892 1.707-8.22 3.605-13.08 5.917-17.03-4.541-35.281-6.705-55.376-6.705-53.642 0-96.314 29.586-114.146 79.144-9.849 27.369-10.839 58.695-2.791 88.208 6.497 23.824 18.511 45.701 35.201 64.349h-72.502c-5.523 0-10 4.477-10 10 0 30.327 24.673 55 55 55h402.002c30.327 0 55-24.673 55-55-.001-5.524-4.478-10.001-10.001-10.001zm-134.785-175.218 25.993-10.11c5.356-2.083 12.792-2.471 16.118 3.291l9.619 16.661c3.327 5.763-.727 12.007-5.209 15.604l-21.751 17.455c-11.732 9.414-16.268 19.756-22.01 32.849-2.239 5.104-4.776 10.889-8.116 17.546-5.584 11.129-14.264 20.319-25.102 26.577-14.762 8.523-31.96 10.786-48.424 6.375-16.465-4.412-30.226-14.971-38.749-29.732-8.522-14.762-10.787-31.959-6.375-48.424s14.971-30.226 29.733-38.749c9.751-5.63 20.686-8.56 31.834-8.56 1.242 0 2.487.036 3.732.109 7.435.436 13.713 1.131 19.253 1.744 14.213 1.574 25.436 2.816 39.454-2.636zm-93.637-59.39 17.456-21.752c3.597-4.482 9.842-8.536 15.603-5.209l16.661 9.619c5.762 3.327 5.375 10.762 3.291 16.119l-10.11 25.992c-2.017 5.184-3.23 10.256-3.726 15.745-1.001-.07-2.024-.136-3.073-.197-8.414-.492-16.779.286-24.857 2.277-12.315-9.553-24.88-17.268-38.05-23.264 10.315-4.687 18.888-9.465 26.805-19.33zm-204.669 88.823c14.853-41.274 50.489-65.916 95.328-65.916 39.339 0 69.73 8.634 98.741 28.484-.012.007-.024.013-.035.02-40.024 23.107-53.786 74.469-30.678 114.493 11.193 19.388 29.268 33.256 50.893 39.051 7.221 1.935 14.549 2.892 21.829 2.892 14.523 0 28.857-3.809 41.771-11.265 14.224-8.212 25.621-20.28 32.964-34.9 15.567 12.423 27.495 18.971 36.595 23.966 11.702 6.423 14.117 8.137 15.516 13.357 2.817 10.515-12.52 26.033-47.235 35.603h-273.627c-49.765-43.052-57.124-103.927-42.062-145.785zm388.092 190.785h-402.002c-15.825 0-29.231-10.558-33.544-25h85.804.047.037 278.369c.072.002.144.002.216.002.069 0 .139-.001.209-.002h104.41c-4.315 14.442-17.721 25-33.546 25z"/><path d="m93.25 106.466c-2.505 4.922-.546 10.943 4.376 13.448 1.453.74 3.002 1.09 4.528 1.09 3.642 0 7.154-1.997 8.92-5.466 8.224-16.157 3.249-25.592-.043-31.835-2.465-4.676-3.387-6.425.043-13.165 2.505-4.922.546-10.943-4.376-13.448-4.923-2.505-10.943-.546-13.448 4.376-8.13 15.974-3.184 25.356.09 31.564 2.499 4.74 3.434 6.513-.09 13.436z"/><path d="m148.25 106.466c-2.505 4.922-.546 10.943 4.376 13.448 1.453.74 3.002 1.09 4.528 1.09 3.642 0 7.154-1.997 8.92-5.466 8.224-16.157 3.249-25.592-.043-31.835-2.465-4.676-3.387-6.425.043-13.165 2.505-4.922.546-10.943-4.376-13.448-4.923-2.505-10.943-.546-13.448 4.376-8.13 15.974-3.184 25.356.09 31.564 2.499 4.74 3.434 6.513-.09 13.436z"/><path d="m203.25 106.466c-2.505 4.922-.546 10.943 4.376 13.448 1.453.74 3.002 1.09 4.528 1.09 3.642 0 7.154-1.997 8.92-5.466 8.224-16.157 3.249-25.592-.043-31.835-2.465-4.676-3.388-6.425.043-13.165 2.505-4.922.546-10.943-4.376-13.448s-10.943-.547-13.448 4.376c-8.13 15.974-3.184 25.356.089 31.564 2.5 4.74 3.435 6.513-.089 13.436z"/><path d="m164.59 247.515h-.007c-5.523 0-9.997 4.477-9.997 10s4.481 10 10.004 10 10-4.477 10-10-4.477-10-10-10z"/><path d="m115.59 294.516h-.007c-5.523 0-9.997 4.477-9.997 10s4.481 10 10.004 10 10-4.477 10-10-4.477-10-10-10z"/><path d="m193.59 333.515h-.007c-5.523 0-9.997 4.477-9.997 10s4.481 10 10.004 10 10-4.477 10-10-4.477-10-10-10z"/></g><g/><g/><g/><g/><g/><g/><g/><g/><g/><g/><g/><g/><g/><g/><g/></svg>