<svg id="Capa_1" enable-background="new 0 0 512 512" viewBox="0 0 512 512" xmlns="http://www.w3.org/2000/svg"><g><path d="m320.5 359.319v-34.52c0-5.523-4.478-10-10-10h-.59c19.643-15.803 32.235-40.031 32.235-67.145l-.001-69.338c31.275-5.815 53.856-32.925 53.856-64.889 0-36.399-29.613-66.012-66.013-66.012-1.362 0-2.726.042-4.087.126-11.184-28.382-38.784-47.541-69.901-47.541-31.116 0-58.716 19.159-69.9 47.541-1.361-.084-2.725-.126-4.087-.126-36.399 0-66.012 29.613-66.012 66.012 0 31.964 22.581 59.074 53.855 64.889v69.338c0 27.114 12.592 51.342 32.235 67.145h-.59c-5.523 0-10 4.477-10 10v34.52c-47.975 5.016-85.5 45.699-85.5 94.979v47.702c0 5.523 4.477 10 10 10h280c5.522 0 10-4.477 10-10v-47.701c0-49.281-37.525-89.964-85.5-94.98zm-130.644-199.737h132.288v30h-132.288zm-20-29.818v28.056c-19.867-5.38-33.855-23.38-33.855-44.393 0-25.371 20.641-46.012 46.012-46.012 3.039 0 6.083.3 9.05.891 5.189 1.036 10.278-2.148 11.625-7.26 6.363-24.168 28.286-41.046 53.311-41.046s46.949 16.878 53.314 41.045c1.346 5.112 6.434 8.295 11.624 7.26 2.967-.591 6.012-.891 9.05-.891 25.371 0 46.013 20.641 46.013 46.012 0 21.012-13.989 39.013-33.856 44.393v-28.056c0-5.523-4.478-10-10-10-5.523 0-10 4.477-10 10v9.818h-132.288v-9.818c0-5.523-4.477-10-10-10s-10 4.478-10 10.001zm20 117.89v-38.072h132.289v38.072c0 36.472-29.672 66.145-66.145 66.145-36.472 0-66.144-29.673-66.144-66.145zm-63.856 244.346v-37.701c0-41.63 33.869-75.5 75.5-75.5 5.523 0 10-4.477 10-10v-34h89v24h-39.001c-16.542 0-30 13.458-30 30v14.4h-10c-5.523 0-10 4.477-10 10s4.477 10 10 10h10v24.4h-10c-5.523 0-10 4.477-10 10s4.477 10 10 10h10v24.401zm260 0h-134.501v-24.4h10c5.522 0 10-4.477 10-10s-4.478-10-10-10h-10v-24.4h10c5.522 0 10-4.477 10-10s-4.478-10-10-10h-10v-14.4c0-5.514 4.486-10 10-10h49.001c41.631 0 75.5 33.869 75.5 75.5z"/><path d="m230.625 250.052c5.523 0 10-4.477 10-10s-4.477-10-10-10h-.007c-5.523 0-9.997 4.477-9.997 10s4.481 10 10.004 10z"/><path d="m281.382 250.052c5.522 0 10-4.477 10-10s-4.478-10-10-10h-.008c-5.522 0-9.996 4.477-9.996 10s4.482 10 10.004 10z"/></g><g/><g/><g/><g/><g/><g/><g/><g/><g/><g/><g/><g/><g/><g/><g/></svg>