<svg id="Capa_1" enable-background="new 0 0 512.001 512.001" viewBox="0 0 512.001 512.001" xmlns="http://www.w3.org/2000/svg"><g><path d="m475.047 211.489c10.265-17.024 13.433-37.808 8.187-57.451-.923-3.458-3.624-6.158-7.081-7.082-7.246-1.935-14.647-2.724-21.958-2.435-6.666-14.764-20.182-25.57-35.986-28.893-2.461-18.812-15.236-34.685-33.063-41.077.062-11.792-3.983-23.297-11.645-32.579-9.663-11.706-23.917-18.419-39.109-18.419-20.255 0-38.294 12.009-46.344 30.032-18.761.552-35.955 11.604-44.233 28.392-3.441-.725-6.99-1.054-10.594-.966-5.718.134-11.236 1.296-16.378 3.421-8.073-14.564-23.76-23.992-41.11-23.578-4.363.102-8.689.832-12.824 2.147-8.802-11.167-22.504-17.814-37.049-17.481-25.22.591-45.257 21.59-44.665 46.81.148 6.332 1.619 12.537 4.256 18.214-12.038 7.679-20.229 20.132-22.462 34.364-8.974-.986-18.176-.344-27.14 2.049-3.457.923-6.158 3.624-7.081 7.082-5.246 19.642-2.079 40.427 8.186 57.451-21.491 7.484-36.954 27.949-36.954 51.958 0 5.523 4.478 10 10 10h10.211c1.322 31.736 8.845 62.286 22.393 90.894 12.953 27.348 30.75 51.594 52.953 72.16l-12.859 38.8c-1.011 3.048-.495 6.396 1.385 9s4.896 4.146 8.107 4.146h327.62c3.211 0 6.228-1.542 8.107-4.146s2.396-5.952 1.385-9l-12.858-38.8c22.203-20.565 40-44.811 52.953-72.16 13.549-28.608 21.072-59.158 22.393-90.894h10.211c5.522 0 10-4.477 10-10 0-24.009-15.463-44.474-36.954-51.959zm-9.915-46.429c2.34 15.529-2.214 31.458-12.484 43.388h-48.721c1.989-10.625 7.127-20.424 14.888-28.186 12.169-12.17 29.477-17.739 46.317-15.202zm-171.516-91.216c5.019.685 9.747-2.478 11.03-7.37 3.54-13.495 15.772-22.92 29.745-22.92 9.202 0 17.835 4.064 23.685 11.151 5.883 7.126 8.253 16.411 6.504 25.473-.514 2.658.073 5.41 1.625 7.628s3.936 3.712 6.608 4.141c15.559 2.498 26.641 16.285 25.779 32.071-.147 2.714.815 5.371 2.668 7.36 1.852 1.989 4.435 3.138 7.152 3.183 10.237.169 19.589 5.514 25.096 13.75-10.706 3.579-20.624 9.597-28.836 17.809-11.532 11.532-18.836 26.346-20.998 42.328h-25.684c.674-4.122 1.013-8.298 1.013-12.5 0-22.213-9.393-42.273-24.417-56.416l7.666-31.858c1.292-5.37-2.014-10.77-7.383-12.062-5.376-1.292-10.771 2.014-12.062 7.383l-5.793 24.078c-10.644-5.51-22.72-8.625-35.51-8.625-.736 0-1.47.011-2.203.031-1.714-9.442-6.347-18.077-13.423-24.83-1.242-1.185-2.537-2.292-3.882-3.319 5.849-11.39 18.538-18.281 31.62-16.486zm-105.462 134.604c-11.456-13.156-16.483-30.86-13.729-48.048 18.515-2.966 37.601 3.087 50.984 16.471 8.668 8.667 14.33 19.666 16.372 31.577zm73.845 0c-2.191-17.265-10.012-33.284-22.447-45.719-.949-.949-1.92-1.871-2.911-2.765 10.845-13.587 27.156-21.517 44.862-21.517 31.706 0 57.5 25.794 57.5 57.5 0 4.22-.462 8.404-1.375 12.5h-75.629zm-158.937-84.298c3.17-1.054 5.604-3.622 6.488-6.844s.101-6.672-2.088-9.197c-3.963-4.569-6.132-10.188-6.274-16.249-.333-14.195 10.945-26.014 25.14-26.347 9.971-.224 19.336 5.431 23.745 14.436 1.216 2.483 3.406 4.353 6.05 5.163 2.641.811 5.504.491 7.903-.884 3.736-2.141 7.832-3.278 12.175-3.38 12.339-.272 23.173 8.235 25.771 20.269.733 3.4 3.182 6.174 6.463 7.326 3.283 1.152 6.928.515 9.624-1.68 4.461-3.631 9.866-5.622 15.632-5.757 6.891-.161 13.402 2.365 18.38 7.113 3.854 3.677 6.42 8.347 7.456 13.46-15.541 4.55-29.295 13.896-39.357 26.977-14.977-7.76-32.245-10.62-49.137-7.865l-13.345-23.107c-2.762-4.783-8.88-6.421-13.66-3.659-4.782 2.762-6.421 8.878-3.658 13.661l14.991 25.958c-3.949 18.843-.794 38.4 8.462 54.905h-35.497c-2.162-15.982-9.466-30.796-20.998-42.328-7.172-7.171-15.644-12.669-24.805-16.331 1.169-11.786 9.065-21.825 20.539-25.64zm-56.193 40.91c16.839-2.536 34.146 3.033 46.316 15.203 7.762 7.762 12.899 17.56 14.888 28.186h-48.721c-10.269-11.931-14.823-27.86-12.483-43.389zm8.13 63.388h402.002c15.825 0 29.231 10.558 33.545 25h-469.091c4.314-14.442 17.719-25 33.544-25zm51.041 239.999 8.285-25h283.351l8.285 25zm295.046-44.999h-290.17c-18.042-16.373-33.02-35.554-44.489-56.585 6.144-3.069 10.46-7.822 13.975-11.692 5.087-5.602 7.761-8.294 12.931-8.294 5.169 0 7.844 2.692 12.931 8.294 5.69 6.267 13.484 14.849 27.736 14.849s22.046-8.582 27.736-14.849c5.087-5.602 7.762-8.294 12.931-8.294 5.17 0 7.844 2.692 12.931 8.294 5.691 6.266 13.484 14.848 27.736 14.848 14.253 0 22.047-8.583 27.737-14.849 5.087-5.602 7.761-8.294 12.93-8.294 5.17 0 7.844 2.692 12.931 8.294 5.69 6.266 13.484 14.848 27.736 14.848 14.253 0 22.046-8.582 27.737-14.849 5.087-5.602 7.762-8.294 12.931-8.294s7.843 2.692 12.93 8.294c5.69 6.266 13.484 14.849 27.737 14.849 14.252 0 22.045-8.582 27.736-14.848 5.087-5.602 7.761-8.294 12.931-8.294 5.169 0 7.843 2.692 12.93 8.294 3.514 3.87 7.831 8.623 13.976 11.693-11.47 21.031-26.448 40.211-44.49 56.585zm53.245-74.568c-2.5-1.279-4.739-3.646-7.926-7.156-5.691-6.266-13.484-14.848-27.736-14.848-14.253 0-22.047 8.583-27.737 14.849-5.087 5.602-7.761 8.294-12.93 8.294-5.17 0-7.844-2.692-12.931-8.294-5.69-6.266-13.484-14.848-27.736-14.848-14.253 0-22.046 8.582-27.737 14.849-5.087 5.602-7.762 8.294-12.931 8.294s-7.843-2.692-12.93-8.294c-5.69-6.266-13.484-14.849-27.737-14.849-14.252 0-22.045 8.582-27.736 14.848-5.087 5.602-7.761 8.294-12.931 8.294-5.169 0-7.843-2.692-12.93-8.294-5.69-6.266-13.484-14.849-27.737-14.849-14.252 0-22.046 8.582-27.736 14.849-5.087 5.602-7.762 8.294-12.931 8.294s-7.844-2.692-12.931-8.294c-5.69-6.267-13.484-14.849-27.736-14.849-14.253 0-22.047 8.583-27.737 14.849-3.186 3.509-5.426 5.876-7.925 7.155-10.22-23.704-16.218-49.248-17.437-75.432h431.535c-1.219 26.185-7.217 51.729-17.437 75.432z"/></g><g/><g/><g/><g/><g/><g/><g/><g/><g/><g/><g/><g/><g/><g/><g/></svg>