<svg id="Capa_1" enable-background="new 0 0 512.002 512.002" viewBox="0 0 512.002 512.002" xmlns="http://www.w3.org/2000/svg"><g><path d="m512.002 146c0-14.109-7.118-26.79-18.345-34.205 6.015-12.035 5.839-26.576-1.216-38.794-7.055-12.219-19.559-19.642-32.989-20.45-.809-13.429-8.231-25.935-20.45-32.989-12.219-7.056-26.761-7.23-38.794-1.216-7.416-11.227-20.098-18.346-34.206-18.346s-26.789 7.118-34.205 18.344c-12.034-6.014-26.575-5.839-38.795 1.217-12.218 7.054-19.641 19.56-20.45 32.989-13.429.809-25.936 8.232-32.989 20.45-7.054 12.218-7.229 26.76-1.216 38.795-11.226 7.416-18.345 20.097-18.345 34.205s7.119 26.79 18.345 34.206c-6.014 12.035-5.838 26.577 1.216 38.794 7.055 12.219 19.559 19.642 32.989 20.451.81 13.429 8.232 25.935 20.45 32.989 12.219 7.054 26.76 7.23 38.795 1.216 7.415 11.225 20.096 18.344 34.205 18.344 14.108 0 26.789-7.119 34.205-18.344 12.035 6.013 26.576 5.836 38.795-1.217 12.219-7.054 19.642-19.56 20.451-32.989 13.429-.809 25.935-8.232 32.988-20.45 7.054-12.218 7.229-26.76 1.216-38.795 11.226-7.415 18.345-20.097 18.345-34.205zm-35.99 20.398c-3.548.867-6.341 3.599-7.286 7.126s.107 7.29 2.746 9.814c7.004 6.7 8.504 17.253 3.649 25.662-4.855 8.408-14.745 12.386-24.047 9.67-3.51-1.023-7.291-.053-9.873 2.528-2.582 2.583-3.552 6.367-2.528 9.873 2.715 9.304-1.262 19.192-9.671 24.048-8.407 4.855-18.961 3.355-25.661-3.648-2.522-2.638-6.282-3.692-9.813-2.747-3.527.945-6.26 3.738-7.126 7.285-2.301 9.415-10.69 15.991-20.4 15.991s-18.098-6.576-20.398-15.99c-.866-3.548-3.598-6.341-7.125-7.286-.856-.229-1.726-.341-2.588-.341-2.692 0-5.314 1.088-7.227 3.087-6.7 7.002-17.254 8.504-25.662 3.649s-12.385-14.744-9.67-24.048c1.023-3.505.054-7.29-2.528-9.873-2.582-2.582-6.364-3.552-9.873-2.528-9.302 2.714-19.192-1.261-24.048-9.67-4.854-8.409-3.354-18.961 3.649-25.661 2.639-2.524 3.691-6.287 2.746-9.814s-3.738-6.259-7.285-7.126c-9.415-2.301-15.991-10.689-15.991-20.399s6.575-18.098 15.99-20.398c3.548-.867 6.341-3.599 7.286-7.126s-.107-7.29-2.746-9.814c-7.004-6.701-8.504-17.253-3.649-25.662 4.856-8.409 14.748-12.382 24.049-9.67 3.506 1.024 7.29.053 9.872-2.528 2.582-2.583 3.552-6.367 2.528-9.873-2.715-9.304 1.262-19.193 9.67-24.048 8.411-4.854 18.962-3.354 25.66 3.648 2.524 2.638 6.288 3.693 9.814 2.747 3.527-.945 6.26-3.738 7.126-7.285 2.301-9.415 10.69-15.991 20.4-15.991s18.099 6.576 20.399 15.991c.866 3.547 3.599 6.34 7.126 7.285 3.524.945 7.289-.108 9.813-2.747 6.7-7.002 17.251-8.504 25.661-3.648 8.409 4.855 12.386 14.744 9.671 24.048-1.023 3.506-.054 7.29 2.528 9.873s6.363 3.553 9.873 2.528c9.307-2.716 19.191 1.262 24.047 9.67 4.854 8.409 3.354 18.961-3.648 25.661-2.64 2.524-3.692 6.287-2.747 9.814s3.738 6.259 7.286 7.126c9.415 2.3 15.99 10.688 15.99 20.398s-6.574 18.099-15.989 20.399z"/><path d="m436.641 117.388c-1.736-26.284-23.673-47.138-50.389-47.138h-40.5c-26.716 0-48.653 20.854-50.389 47.138-6.921 5.548-11.361 14.071-11.361 23.611 0 9.489 4.392 17.972 11.25 23.522v16.979c0 16.68 13.57 30.25 30.25 30.25h81c16.68 0 30.25-13.57 30.25-30.25v-16.978c6.858-5.55 11.25-14.033 11.25-23.522 0-9.541-4.44-18.063-11.361-23.612zm-122.389 33.862c-5.651 0-10.25-4.598-10.25-10.25s4.599-10.25 10.25-10.25h103.5c5.651 0 10.25 4.598 10.25 10.25s-4.599 10.25-10.25 10.25zm31.5-61h40.5c13.316 0 24.667 8.579 28.816 20.5h-98.131c4.148-11.921 15.499-20.5 28.815-20.5zm60.75 101.5h-81c-5.652 0-10.25-4.598-10.25-10.25v-10.25h101.5v10.25c0 5.651-4.598 10.25-10.25 10.25z"/><path d="m266.001 286.001c0-22.056-17.944-40-40-40-6.222 0-12.117 1.428-17.375 3.974-20.919-11.763-44.611-17.974-68.626-17.974-77.196 0-140 62.804-140 140s62.804 140 140 140 140-62.804 140-140c0-24.014-6.21-47.706-17.973-68.626 2.546-5.257 3.974-11.152 3.974-17.374zm-20 0c0 11.028-8.972 20-20 20s-20-8.972-20-20 8.972-20 20-20 20 8.972 20 20zm-106.001 206.001c-66.168 0-120-53.832-120-120s53.832-120 120-120c18.213 0 36.209 4.168 52.534 12.113-4.129 6.293-6.533 13.814-6.533 21.886 0 22.056 17.944 40 40 40 8.072 0 15.594-2.404 21.887-6.533 7.944 16.325 12.112 34.322 12.112 52.534 0 66.168-53.832 120-120 120z"/><path d="m93.002 357.5c1.928 0 3.83.51 5.501 1.474 4.781 2.762 10.898 1.121 13.66-3.662 2.761-4.783 1.121-10.899-3.662-13.66-4.706-2.717-10.066-4.153-15.499-4.153-14.005 0-26.318 9.448-29.944 22.976-1.43 5.334 1.735 10.818 7.07 12.248.867.232 1.738.343 2.595.343 4.415 0 8.456-2.946 9.653-7.414 1.287-4.798 5.656-8.152 10.626-8.152z"/><path d="m189.601 337.5c-5.435 0-10.794 1.436-15.5 4.153-4.783 2.762-6.422 8.877-3.66 13.661 2.762 4.783 8.879 6.422 13.66 3.66 1.67-.964 3.571-1.474 5.5-1.474 4.969 0 9.338 3.353 10.625 8.154 1.197 4.468 5.238 7.414 9.653 7.414.856 0 1.728-.111 2.595-.343 5.335-1.43 8.5-6.914 7.07-12.248-3.626-13.528-15.94-22.977-29.943-22.977z"/><path d="m194.755 390.676c-3.737-1.548-8.039-.693-10.898 2.167-11.002 11.002-25.63 17.061-41.189 17.061s-30.187-6.059-41.188-17.061c-3.906-3.905-10.236-3.905-14.143 0-3.905 3.905-3.905 10.237 0 14.142 13.896 13.894 32.095 21.92 51.591 22.831v3.098c0 17.093 13.907 31 31.001 31s31-13.907 31-31v-33c-.001-4.043-2.438-7.69-6.174-9.238zm-13.827 42.239c0 6.065-4.935 11-11 11-6.066 0-11.001-4.935-11.001-11v-4.692c7.733-1.626 15.139-4.412 22.001-8.27z"/></g><g/><g/><g/><g/><g/><g/><g/><g/><g/><g/><g/><g/><g/><g/><g/></svg>