<svg id="Capa_1" enable-background="new 0 0 512.044 512.044" viewBox="0 0 512.044 512.044" xmlns="http://www.w3.org/2000/svg"><g><path d="m229.43 314.04c-.052-.107-.105-.214-.162-.319-3.261-6.146-8.223-11.157-14.345-14.492l-31.097-16.951c3.508-6.904 5.487-14.711 5.487-22.97v-20.438c0-28.053-22.823-50.875-50.876-50.875s-50.875 22.822-50.875 50.875v20.438c0 8.26 1.979 16.066 5.487 22.97l-31.095 16.948c-6.124 3.336-11.086 8.348-14.349 14.493-.056.105-.11.213-.163.32l-43.216 89.004c-8.802 16.432-3.396 36.909 12.368 46.798l85.354 56.641c.081.055.164.107.247.159 5.822 3.622 12.297 5.349 18.697 5.349 6.119 0 12.171-1.579 17.519-4.588 5.397 3.079 11.42 4.643 17.477 4.643 6.467 0 12.973-1.782 18.794-5.404.083-.051.165-.104.246-.158l85.351-56.639c15.764-9.889 21.172-30.367 12.371-46.8zm-121.868-75.171c0-17.024 13.851-30.875 30.875-30.875h.001c17.024 0 30.875 13.851 30.875 30.875v20.438c0 17.025-13.851 30.876-30.876 30.876-17.024 0-30.875-13.851-30.875-30.876zm142.027 194.069c-.085.053-.17.107-.254.163l-85.331 56.625c-3.391 2.072-7.301 2.725-10.989 2.019 3.46-7.239 4.358-15.377 2.512-23.306-.682-2.928-1.713-5.715-3.059-8.317l55.411-35.801c4.287-2.77 5.8-8.323 3.511-12.885l-23.273-46.37c-2.477-4.937-8.489-6.929-13.423-4.452-4.937 2.478-6.93 8.487-4.452 13.423l19.25 38.354-51.169 33.06-50.946-33.045 19.257-38.368c2.478-4.936.484-10.945-4.452-13.423-4.938-2.478-10.945-.484-13.423 4.452l-23.273 46.37c-2.286 4.555-.78 10.102 3.496 12.875l59.999 38.917c.053.034.105.068.159.102 7.259 4.516 9.49 14.095 4.974 21.354-4.493 7.222-13.998 9.468-21.244 5.041l-85.329-56.624c-.084-.056-.169-.11-.254-.163-6.943-4.312-9.304-13.339-5.375-20.552.074-.137.146-.275.213-.415l43.222-89.012c1.419-2.608 3.551-4.74 6.179-6.171l34.132-18.604c8.86 7.483 20.304 11.999 32.782 11.999s23.921-4.516 32.782-11.999l34.134 18.606c2.624 1.429 4.755 3.559 6.173 6.165l43.225 89.016c.067.14.139.278.213.414 3.926 7.214 1.565 16.241-5.378 20.552z"/><path d="m512.03 148.129c0-14.324-7.252-27.194-18.678-34.686 6.149-12.202 5.994-26.973-1.168-39.378-7.163-12.406-19.876-19.926-33.519-20.701-.776-13.642-8.296-26.356-20.7-33.519-12.404-7.162-27.177-7.317-39.379-1.168-7.493-11.425-20.362-18.677-34.686-18.677s-27.193 7.251-34.686 18.677c-12.205-6.149-26.975-5.994-39.379 1.168-12.405 7.162-19.925 19.877-20.7 33.519-13.642.776-26.356 8.295-33.519 20.7-7.162 12.406-7.317 27.177-1.169 39.378-11.426 7.492-18.677 20.362-18.677 34.686 0 14.951 7.9 28.317 20.2 35.639l-22.052 43.389c-1.575 3.101-1.427 6.797.392 9.761s5.046 4.771 8.523 4.771h46.25c.388 14.095 7.98 27.353 20.751 34.726 12.406 7.164 27.177 7.316 39.378 1.168 7.492 11.426 20.362 18.678 34.687 18.678s27.194-7.251 34.687-18.677c12.203 6.148 26.974 5.992 39.378-1.169 12.405-7.162 19.925-19.877 20.701-33.519 13.64-.776 26.357-8.296 33.519-20.7 7.162-12.405 7.317-27.177 1.168-39.378 11.427-7.494 18.678-20.363 18.678-34.688zm-36.362 20.871c-3.547.866-6.34 3.599-7.285 7.126s.107 7.29 2.747 9.814c7.165 6.854 8.7 17.65 3.733 26.254-4.969 8.604-15.086 12.67-24.604 9.894-3.51-1.024-7.291-.054-9.873 2.528s-3.551 6.366-2.528 9.872c2.777 9.52-1.291 19.638-9.895 24.604s-19.399 3.432-26.254-3.733c-2.523-2.637-6.282-3.693-9.813-2.746-3.527.945-6.26 3.738-7.126 7.285-2.354 9.633-10.937 16.36-20.871 16.36s-18.516-6.728-20.87-16.361c-.866-3.547-3.598-6.34-7.126-7.285-.855-.229-1.725-.341-2.588-.341-2.691 0-5.313 1.089-7.226 3.087-6.855 7.167-17.65 8.703-26.255 3.734-8.604-4.967-12.672-15.085-9.894-24.604.882-3.022.289-6.282-1.6-8.801-1.888-2.519-4.853-4.001-8-4.001h-41.208l19.538-38.442c1.384-2.723 1.447-5.929.173-8.704s-3.747-4.816-6.714-5.541c-9.633-2.354-16.36-10.937-16.36-20.871s6.728-18.516 16.359-20.869c3.548-.867 6.341-3.599 7.286-7.126.945-3.528-.107-7.29-2.746-9.814-7.166-6.854-8.7-17.651-3.733-26.255 4.968-8.604 15.084-12.67 24.605-9.894 3.505 1.024 7.29.054 9.872-2.529 2.582-2.582 3.552-6.367 2.528-9.873-2.778-9.519 1.29-19.636 9.894-24.604 8.602-4.967 19.398-3.433 26.255 3.734 2.524 2.638 6.285 3.692 9.813 2.746 3.527-.945 6.26-3.738 7.126-7.286 2.356-9.63 10.938-16.358 20.872-16.358s18.517 6.728 20.871 16.361c.867 3.547 3.599 6.34 7.126 7.285 3.529.945 7.29-.108 9.814-2.747 6.854-7.164 17.649-8.701 26.254-3.733 8.603 4.967 12.671 15.085 9.894 24.604-1.022 3.505-.054 7.29 2.528 9.872 2.582 2.583 6.367 3.553 9.872 2.528 9.522-2.78 19.638 1.291 24.604 9.894 4.967 8.603 3.432 19.399-3.734 26.254-2.639 2.524-3.691 6.287-2.746 9.814s3.738 6.259 7.285 7.125c9.634 2.354 16.361 10.937 16.361 20.87.001 9.936-6.727 18.519-16.361 20.873z"/><path d="m434.539 119.518c-1.736-26.285-23.672-47.138-50.389-47.138h-40.5c-26.716 0-48.653 20.854-50.389 47.138-6.922 5.548-11.361 14.071-11.361 23.611 0 9.49 4.392 17.972 11.25 23.523v16.977c0 16.68 13.57 30.25 30.25 30.25h81c16.68 0 30.25-13.57 30.25-30.25v-16.977c6.858-5.55 11.25-14.033 11.25-23.523 0-9.54-4.44-18.063-11.361-23.611zm-122.389 33.862c-5.651 0-10.25-4.599-10.25-10.251 0-5.651 4.599-10.249 10.25-10.249h103.5c5.651 0 10.25 4.598 10.25 10.249 0 5.652-4.599 10.251-10.25 10.251zm31.5-61.001h40.5c13.316 0 24.667 8.579 28.816 20.5h-98.132c4.149-11.921 15.499-20.5 28.816-20.5zm60.75 101.5h-81c-5.652 0-10.25-4.598-10.25-10.25v-10.249h101.5v10.249c0 5.652-4.598 10.25-10.25 10.25z"/></g><g/><g/><g/><g/><g/><g/><g/><g/><g/><g/><g/><g/><g/><g/><g/></svg>