<svg id="Capa_1" enable-background="new 0 0 512.002 512.002" viewBox="0 0 512.002 512.002" xmlns="http://www.w3.org/2000/svg"><g><path d="m446.001 0h-340c-27.57 0-50 22.43-50 50v412.002c0 27.57 22.43 50 50 50h340c5.523 0 10-4.477 10-10v-492.002c0-5.523-4.477-10-10-10zm-10 322.002h-320v-212.002h320zm-320 20h320v70h-320zm320-252.002h-320v-70h320zm-360-40c0-13.037 8.36-24.159 20-28.286v391.294c-7.385 1.505-14.184 4.643-20 9.018zm30 442.002c-16.542 0-30-13.458-30-30s13.458-30 30-30h330v20h-330c-5.523 0-10 4.477-10 10s4.477 10 10 10h330v20z"/><path d="m226.001 292.536h100c27.57 0 50-22.43 50-50v-20c0-5.523-4.477-10-10-10h-5.392c.226-1.674.341-3.365.341-5.062 0-13.579-7.408-26.291-19.333-33.176-.915-.528-1.843-1.015-2.782-1.461l11.957-17.794c3.08-4.584 1.861-10.797-2.723-13.877-4.584-3.081-10.797-1.86-13.877 2.723l-17.4 25.895c-1.079.196-2.151.443-3.211.742-9.699-10.225-23.243-16.141-37.58-16.141-14.363 0-28.058 6.017-37.779 16.36-.91-.229-1.83-.424-2.759-.585l-17.652-26.271c-3.08-4.583-9.293-5.803-13.877-2.723s-5.803 9.293-2.723 13.877l12.059 17.947c-13.094 5.968-22.218 19.181-22.218 34.484 0 1.697.115 3.388.341 5.062h-5.391c-5.523 0-10 4.477-10 10v20c-.001 27.57 22.428 50 49.999 50zm130-50c0 16.542-13.458 30-30 30h-100c-16.542 0-30-13.458-30-30v-10h160zm-144.95-35.062c0-9.855 8.018-17.874 17.874-17.874 4.774 0 9.263 1.859 12.639 5.235 3.905 3.905 10.237 3.905 14.143 0 3.717-3.717 3.896-9.634.536-13.562 5.562-4.401 12.522-6.89 19.758-6.89 10.509 0 20.326 5.179 26.258 13.854 2.95 4.314 8.727 5.628 13.254 3.015 6.982-4.032 13.587-1.088 16.104.365 5.844 3.375 9.333 9.302 9.333 15.855 0 1.719-.25 3.424-.733 5.062h-128.433c-.483-1.636-.733-3.341-.733-5.06z"/><path d="m186.001 65.001h180.001c5.523 0 10-4.477 10-10s-4.477-10-10-10h-180.001c-5.523 0-10 4.477-10 10s4.477 10 10 10z"/><path d="m366.002 367.003h-180.001c-5.523 0-10 4.477-10 10s4.477 10 10 10h180.001c5.523 0 10-4.477 10-10s-4.477-10-10-10z"/></g><g/><g/><g/><g/><g/><g/><g/><g/><g/><g/><g/><g/><g/><g/><g/></svg>