<svg id="Capa_1" enable-background="new 0 0 512.002 512.002" viewBox="0 0 512.002 512.002" xmlns="http://www.w3.org/2000/svg"><g><path d="m486.001 312.002h-30.51l6.164-26.036c13.987-3.627 24.346-16.359 24.346-31.464v-22.5c0-5.523-4.478-10-10-10h-212.002c-5.522 0-10 4.477-10 10v22.5c0 15.106 10.359 27.837 24.346 31.464l6.164 26.036h-78.009v-26.574c13.043-4.227 22.5-16.493 22.5-30.926v-37.5c0-5.523-4.477-10-10-10h-17.48c-8.63-23.309-28.653-40.434-52.55-45.604 6.571-8.273 10.501-18.734 10.501-30.095v-40.692c12.854-5.562 21.52-18.292 21.52-32.883 0-19.237-15.232-34.983-34.268-35.813-6.715-13.224-20.422-21.915-35.723-21.915s-29.007 8.691-35.723 21.915c-19.036.83-34.267 16.576-34.267 35.813 0 14.591 8.667 27.32 21.52 32.883v40.692c0 11.355 3.926 21.811 10.491 30.082-32.549 7.003-57.019 36.006-57.019 70.617v270c0 5.523 4.477 10 10 10h460c5.522 0 10-4.477 10-10v-180c-.001-5.523-4.478-10-10.001-10zm-10 65.214c-6.977 6.095-15.817 9.422-25.168 9.422-10.235 0-19.857-3.986-27.095-11.224-1.876-1.875-4.419-2.929-7.071-2.929s-5.195 1.054-7.071 2.929c-7.237 7.238-16.86 11.224-27.096 11.224-10.234 0-19.857-3.986-27.097-11.224-3.904-3.905-10.235-3.904-14.142 0-7.237 7.238-16.859 11.224-27.095 11.224s-19.858-3.986-27.096-11.224c-3.906-3.904-10.236-3.904-14.143 0-7.237 7.238-16.86 11.224-27.096 11.224s-19.858-3.986-27.095-11.224c-3.905-3.904-10.237-3.904-14.143 0-7.237 7.238-16.86 11.224-27.095 11.224s-19.858-3.986-27.096-11.224c-3.905-3.905-10.237-3.904-14.142 0-7.237 7.238-16.86 11.224-27.095 11.224-9.351 0-18.191-3.328-25.167-9.422v-45.214h392.002v45.214zm-365.001-110.214c-6.893 0-12.5-5.607-12.5-12.5v-27.5h25v27.5c0 6.893-5.607 12.5-12.5 12.5zm162.999-25h192.002v12.5c0 6.853-5.544 12.435-12.383 12.499-.117-.002-.234-.001-.351.001h-166.553c-.103-.002-.206-.002-.31-.001-6.849-.051-12.405-5.638-12.405-12.499zm25.144 45h141.714l-5.918 25h-129.877zm-90.144-32.5c0 6.893-5.607 12.5-12.5 12.5s-12.5-5.607-12.5-12.5v-27.5h25zm-126.469-123.199v-19.203h56.942v19.203c0 15.699-12.772 28.471-28.471 28.471s-28.471-12.772-28.471-28.471zm-21.52-73.575c0-8.738 7.109-15.848 15.848-15.848 1.049 0 2.101.104 3.124.307 5.187 1.034 10.278-2.148 11.625-7.26 2.313-8.789 10.289-14.927 19.393-14.927s17.08 6.138 19.395 14.927c1.347 5.112 6.438 8.292 11.625 7.26 1.023-.204 2.074-.307 3.124-.307 8.738 0 15.848 7.109 15.848 15.848 0 7.765-5.544 14.336-13.182 15.624-4.813.812-8.337 4.979-8.337 9.861v8.888h-56.943v-8.888c0-4.881-3.524-9.049-8.337-9.861-7.639-1.288-13.183-7.859-13.183-15.624zm2.989 434.274h-27.998v-260c0-28.799 23.429-52.229 52.228-52.229h45.543c19.351 0 36.805 10.748 45.827 27.229h-5.6c-5.523 0-10 4.477-10 10v37.5c0 14.433 9.457 26.699 22.5 30.926v26.574h-65.499v-26.574c13.043-4.227 22.5-16.493 22.5-30.926v-37.5c0-5.523-4.477-10-10-10h-45c-5.523 0-10 4.477-10 10v37.5c0 14.433 9.457 26.698 22.5 30.926v26.574h-27.001c-5.523 0-10 4.477-10 10zm20 0v-91.04c7.757 3.716 16.312 5.676 25.167 5.676 12.442 0 24.289-3.87 34.167-11.04 9.878 7.17 21.726 11.04 34.167 11.04 12.442 0 24.289-3.87 34.167-11.04 9.878 7.17 21.725 11.04 34.167 11.04s24.289-3.87 34.167-11.04c9.878 7.17 21.725 11.04 34.167 11.04 12.441 0 24.289-3.87 34.166-11.041 9.879 7.17 21.726 11.041 34.167 11.041 12.442 0 24.289-3.87 34.167-11.04 9.878 7.17 21.725 11.04 34.166 11.04 8.856 0 17.411-1.961 25.168-5.677v91.04h-392.003z"/><path d="m306.057 182.466c-2.505 4.922-.546 10.943 4.376 13.448 1.453.74 3.002 1.09 4.528 1.09 3.643 0 7.154-1.997 8.92-5.466 8.224-16.157 3.249-25.592-.043-31.836-2.465-4.675-3.388-6.425.043-13.164 2.505-4.922.546-10.943-4.376-13.448-4.921-2.504-10.942-.546-13.448 4.376-8.131 15.974-3.184 25.355.09 31.564 2.499 4.74 3.433 6.513-.09 13.436z"/><path d="m361.057 182.466c-2.505 4.922-.546 10.943 4.376 13.448 1.453.74 3.002 1.09 4.528 1.09 3.643 0 7.154-1.997 8.92-5.466 8.224-16.157 3.249-25.592-.043-31.836-2.465-4.675-3.388-6.425.043-13.164 2.505-4.922.546-10.943-4.376-13.448-4.922-2.504-10.942-.546-13.448 4.376-8.131 15.974-3.184 25.355.09 31.564 2.499 4.74 3.433 6.513-.09 13.436z"/><path d="m416.056 182.466c-2.505 4.922-.546 10.943 4.376 13.448 1.453.74 3.002 1.09 4.528 1.09 3.643 0 7.154-1.997 8.92-5.466 8.224-16.157 3.249-25.592-.043-31.836-2.465-4.675-3.387-6.425.043-13.164 2.505-4.922.546-10.943-4.376-13.448-4.921-2.504-10.943-.546-13.448 4.376-8.13 15.973-3.184 25.355.09 31.563 2.499 4.741 3.433 6.514-.09 13.437z"/></g><g/><g/><g/><g/><g/><g/><g/><g/><g/><g/><g/><g/><g/><g/><g/></svg>