<svg id="Capa_1" enable-background="new 0 0 512 512" viewBox="0 0 512 512" xmlns="http://www.w3.org/2000/svg"><g><path d="m256.001 0c-141.159 0-256.001 114.841-256.001 256s114.842 256 256.001 256c141.158 0 255.999-114.841 255.999-256s-114.841-256-255.999-256zm0 492c-130.131 0-236.001-105.869-236.001-236 0-130.13 105.87-236 236.001-236 130.13 0 235.999 105.87 235.999 236 0 130.131-105.869 236-235.999 236z"/><path d="m421.206 195.313c1.635-28.125-4.152-54.499-17.337-77.338-30.009-51.973-96.706-69.845-148.68-39.837-1.072.619-2.132 1.255-3.179 1.908-46.218 1.043-89.867 20.125-121.935 52.992l-1.136-1.967c-1.326-2.297-3.51-3.973-6.072-4.659-2.561-.685-5.291-.327-7.588.999l-35.507 20.5c-4.783 2.761-6.422 8.877-3.66 13.66l29.988 51.941-25.289-16.682c-2.214-1.46-4.918-1.98-7.516-1.448-2.598.533-4.878 2.076-6.338 4.29l-22.574 34.226c-3.041 4.61-1.769 10.812 2.842 13.854l33.312 21.972c2.307 29.506 12.011 57.929 28.21 82.674-1.46 3.85-2.26 8.023-2.26 12.378 0 16.024 10.825 29.568 25.546 33.703-1.005 3.257-1.546 6.715-1.546 10.297 0 19.299 15.701 35 35.001 35 14.577 0 27.101-8.958 32.357-21.658 18.7 6.562 38.218 9.882 58.155 9.882 97.047 0 176-78.953 176-176 0-20.788-3.631-41.196-10.794-60.687zm-34.658-67.337c41.737 72.292-11.034 180.378-82.554 221.671-40.904 23.614-73.282 8.714-88.58-11.223-14.135-18.421-19.531-48.063 2.022-69.617 25.37-25.371 18.14-46.041 11.147-66.031-5.704-16.307-11.604-33.17-3.332-58.244 6.835-20.723 21.019-38.151 39.938-49.074 42.425-24.493 96.865-9.905 121.359 32.518zm-269.928 21.754 38.75 67.118-18.187 10.5-38.75-67.118zm-38.474 69.301 64.695 42.672-11.563 17.53-64.694-42.672zm48.34 145.745c0-8.271 6.729-15 15-15s15.001 6.729 15.001 15-6.729 15-15.001 15-15-6.729-15-15zm39.001 59c-8.271 0-15.001-6.729-15.001-15s6.729-15 15.001-15 15 6.729 15 15-6.728 15-15 15zm90.513-11.776c-19.358 0-38.271-3.532-56.275-10.503-2.704-12.735-12.355-22.932-24.784-26.423 1.005-3.257 1.546-6.715 1.546-10.298 0-19.299-15.701-35-35.001-35-7.237 0-13.967 2.208-19.554 5.985-9.463-15.903-16.007-33.341-19.351-51.497l26.033 17.171c1.695 1.119 3.606 1.653 5.496 1.653 3.249 0 6.435-1.581 8.357-4.495l22.575-34.225c1.46-2.214 1.981-4.917 1.448-7.516s-2.076-4.878-4.29-6.338l-11.736-7.741 23.565-13.605c4.783-2.761 6.422-8.877 3.66-13.66l-37.173-64.387c22.674-24.98 52.599-41.747 85.277-48.18-8.588 10.362-15.244 22.313-19.537 35.325-10.399 31.527-2.722 53.477 3.448 71.113 6.495 18.57 10.073 28.799-6.412 45.285-13.165 13.165-20.16 29.871-20.23 48.313-.064 16.772 5.79 33.684 16.483 47.621 11.894 15.5 28.842 26.066 47.722 29.751 5.072.99 10.242 1.481 15.482 1.481 16.758-.001 34.208-5.029 51.243-14.864 38.431-22.188 72.763-62.622 91.839-108.159 2.11-5.038 4.006-10.062 5.689-15.065.32 4.066.48 8.154.48 12.258 0 86.019-69.981 156-156 156z"/><path d="m317.906 189.868c19.299 0 35-15.701 35-35s-15.701-35-35-35-35 15.701-35 35 15.701 35 35 35zm0-50c8.271 0 15 6.729 15 15s-6.729 15-15 15-15-6.729-15-15 6.729-15 15-15z"/><path d="m296.655 304.909-55.57-14.89c-5.335-1.431-10.817 1.737-12.247 7.071s1.736 10.818 7.071 12.247l55.57 14.89c.867.232 1.737.343 2.594.343 4.415 0 8.456-2.947 9.653-7.415 1.43-5.333-1.736-10.817-7.071-12.246z"/><path d="m262.183 269.791 66.853 17.913c.867.232 1.737.343 2.594.343 4.415 0 8.456-2.947 9.653-7.414 1.43-5.335-1.736-10.818-7.071-12.248l-66.853-17.913c-5.336-1.431-10.817 1.737-12.247 7.071-1.43 5.335 1.736 10.818 7.071 12.248z"/><path d="m265.828 224.18 86.597 23.204c.867.232 1.737.343 2.594.343 4.415 0 8.456-2.947 9.653-7.414 1.43-5.335-1.736-10.818-7.071-12.248l-86.597-23.204c-5.335-1.431-10.817 1.737-12.247 7.071-1.43 5.336 1.736 10.819 7.071 12.248z"/></g><g/><g/><g/><g/><g/><g/><g/><g/><g/><g/><g/><g/><g/><g/><g/></svg>