<svg id="Capa_1" enable-background="new 0 0 512 512" viewBox="0 0 512 512" xmlns="http://www.w3.org/2000/svg"><g><path d="m502 46h-492c-5.522 0-10 4.477-10 10v400c0 5.523 4.478 10 10 10h492c5.522 0 10-4.477 10-10v-400c0-5.523-4.478-10-10-10zm-10 400h-472v-380h472z"/><path d="m278.5 421h178.5c5.522 0 10-4.477 10-10v-310c0-5.523-4.478-10-10-10h-178.5c-5.522 0-10 4.477-10 10v310c0 5.523 4.478 10 10 10zm10-310h158.5v290h-158.5z"/><path d="m55 421h178.5c5.522 0 10-4.477 10-10v-310c0-5.523-4.478-10-10-10h-178.5c-5.522 0-10 4.477-10 10v310c0 5.523 4.478 10 10 10zm10-20v-135h158.5v135zm82.548-190.143c-1.835-3.179-1.749-6.617.231-9.197 1.989-2.592 5.338-3.486 9.185-2.456 10.347 2.772 28.753 3.558 35.698-22.365 1.421-5.301 4.386-5.713 5.261-5.713 3.568 0 5.61 2.179 10.779 9.671 3.647 5.288 7.981 11.568 14.798 15.635v49.568h-73.773c4.882-12.03 5.145-22.456-2.179-35.143zm75.952-43.809c-5.201-7.349-12.431-15.922-25.577-15.922-8.801 0-20.519 5.379-24.579 20.538-2.577 9.617-4.984 9.889-11.203 8.222-6.887-1.846-13.73-1.331-19.612 1.251-3.482-1.242-7.086-3.226-8.533-6.317-1.791-3.823-.144-9.002 1.554-12.674 4.029-8.718 3.435-18.616-1.592-26.477-5.117-8.003-14.2-12.781-24.296-12.781-3.117 0-5.364-1.118-7.288-3.624-1.858-2.421-2.896-5.559-3.354-8.264h124.48zm-144.629-56.048c.553 6.754 2.938 14.317 7.636 20.439 5.665 7.383 13.888 11.449 23.154 11.449 3.336 0 5.98 1.263 7.446 3.556 1.353 2.115 1.457 4.78.287 7.31-6.302 13.633-4.301 23.593-1.512 29.548 1.901 4.059 5.477 9.027 12.192 13.054-2.973 7.8-2.3 16.79 2.153 24.501 4.26 7.379 4.518 11.864-2.642 25.144h-62.585v-135.001z"/><path d="m94.105 218.657c5.522 0 10-4.477 10-10s-4.478-10-10-10h-.008c-5.522 0-9.996 4.477-9.996 10s4.482 10 10.004 10z"/><path d="m163.669 146.281c5.522 0 10-4.477 10-10s-4.478-10-10-10h-.008c-5.522 0-9.996 4.477-9.996 10s4.481 10 10.004 10z"/><path d="m156.587 289.826h-24.674c-25.136 0-45.586 20.45-45.586 45.587 0 25.136 20.45 45.586 45.586 45.586h24.674c25.137 0 45.587-20.45 45.587-45.586 0-25.137-20.45-45.587-45.587-45.587zm0 71.174h-24.674c-14.108 0-25.586-11.478-25.586-25.586 0-14.109 11.478-25.587 25.586-25.587h24.674c14.108 0 25.587 11.479 25.587 25.587s-11.479 25.586-25.587 25.586z"/><path d="m330.112 159.404c1.953 1.953 4.512 2.929 7.071 2.929s5.119-.977 7.071-2.929c3.905-3.905 3.905-10.237 0-14.142l-7.071-7.071c-3.906-3.905-10.238-3.905-14.143 0s-3.905 10.237 0 14.142z"/><path d="m401.979 177.387-8.66 5c-4.783 2.761-6.422 8.877-3.66 13.66 1.853 3.208 5.213 5.001 8.67 5.001 1.696 0 3.416-.432 4.99-1.341l8.66-5c4.783-2.761 6.422-8.877 3.66-13.66s-8.877-6.421-13.66-3.66z"/><path d="m349.148 231.797h-10c-5.522 0-10 4.477-10 10s4.478 10 10 10h10c5.522 0 10-4.477 10-10s-4.477-10-10-10z"/><path d="m394.479 301.708c1.575.909 3.294 1.341 4.99 1.341 3.456 0 6.817-1.793 8.67-5.001 2.762-4.783 1.123-10.899-3.66-13.66l-8.66-5c-4.785-2.761-10.898-1.123-13.66 3.66s-1.123 10.899 3.66 13.66z"/><path d="m330.729 326.638-8.66 5c-4.783 2.761-6.422 8.877-3.66 13.66 1.853 3.208 5.213 5.001 8.67 5.001 1.696 0 3.416-.432 4.99-1.341l8.66-5c4.783-2.761 6.422-8.877 3.66-13.66s-8.876-6.422-13.66-3.66z"/><path d="m402.64 359.094-9.659 2.588c-5.335 1.429-8.501 6.913-7.071 12.247 1.197 4.468 5.237 7.415 9.653 7.415.856 0 1.727-.111 2.594-.343l9.659-2.588c5.335-1.429 8.501-6.913 7.071-12.247s-6.908-8.502-12.247-7.072z"/></g><g/><g/><g/><g/><g/><g/><g/><g/><g/><g/><g/><g/><g/><g/><g/></svg>