<svg id="Capa_1" enable-background="new 0 0 512 512" viewBox="0 0 512 512" xmlns="http://www.w3.org/2000/svg"><g><path d="m512 121v-55c0-22.056-17.944-40-40-40h-100c-5.523 0-10 4.478-10 10v15c0 18.604 12.767 34.283 30 38.734v31.266c0 20.845 10.685 39.242 26.866 50-16.181 10.758-26.866 29.154-26.866 49.999v40.858l-6.564 6.565h-29.436v-49.749c0-5.522-4.477-10-10-10h-3.432c1.091-3.625 1.656-7.43 1.656-11.321 0-21.556-17.537-39.092-39.092-39.092-3.31 0-6.619.429-9.824 1.26-10.067-10.849-24.267-17.141-39.309-17.141-14.964 0-29.228 6.309-39.302 17.141-3.177-.828-6.478-1.26-9.831-1.26-21.555 0-39.092 17.536-39.092 39.092 0 3.892.565 7.697 1.656 11.321h-3.43c-5.523 0-10 4.478-10 10v49.749h-29.436l-6.564-6.564v-40.859c0-20.845-10.685-39.241-26.866-49.999 16.181-10.758 26.866-29.155 26.866-50v-55c0-22.056-17.944-40-40-40h-40c-22.056 0-40 17.944-40 40v55c0 20.845 10.685 39.242 26.866 50-16.181 10.758-26.866 29.154-26.866 49.999v255.001c0 5.522 4.477 10 10 10s10-4.478 10-10v-82.577h80v82.577c0 5.522 4.477 10 10 10s10-4.478 10-10v-127.577h36.709c2.179 15.271 9.323 29.38 20.578 40.378 13.279 12.976 30.756 20.121 49.212 20.121h59.002c35.243 0 64.869-26.426 69.783-60.499h36.716v127.577c0 5.522 4.477 10 10 10s10-4.478 10-10v-82.577h80v82.577c0 5.522 4.477 10 10 10s10-4.478 10-10v-255.001c0-20.845-10.685-39.241-26.866-49.999 16.181-10.758 26.866-29.155 26.866-50zm-324.225 76.352c0-10.527 8.564-19.092 19.092-19.092 6.191 0 12.02 3.019 15.593 8.075 3.186 4.511 9.425 5.583 13.938 2.396 4.511-3.187 5.583-9.427 2.396-13.938-1.225-1.734-2.581-3.351-4.047-4.842 5.94-4.833 13.444-7.573 21.253-7.573 11.113 0 21.493 5.477 27.766 14.649 2.83 4.137 8.288 5.542 12.763 3.28 2.654-1.34 5.629-2.049 8.604-2.049 10.527 0 19.092 8.564 19.092 19.092 0 4.13-1.303 8.061-3.714 11.321h-129.022c-2.411-3.259-3.714-7.189-3.714-11.319zm-167.775-131.352c0-11.028 8.972-20 20-20h40c11.028 0 20 8.972 20 20v5h-50c-5.523 0-10 4.478-10 10 0 12.894-8.327 24.108-20 28.274zm.97 63.777c19.137-4.33 34.077-19.704 38.011-38.777h41.019v30c0 22.056-17.944 40-40 40-19.042 0-35.019-13.374-39.03-31.223zm-.97 243.646v-152.424c0-22.056 17.944-39.999 40-39.999s40 17.943 40 39.999v20.859l-32.929-32.929c-3.905-3.904-10.237-3.904-14.143 0-3.905 3.905-3.905 10.237 0 14.143l62.422 62.422c1.875 1.875 4.419 2.929 7.071 2.929h66.079c11.028 0 20 8.972 20 20s-8.972 20.001-20 20.001h-78.5c-5.339 0-10.361-2.081-14.14-5.86l-28.789-28.789c-3.905-3.904-10.237-3.904-14.143 0-3.905 3.905-3.905 10.237 0 14.143l28.79 28.789c5.138 5.138 11.426 8.705 18.282 10.463v26.255h-80zm265.501 15.499h-59.002c-24.179 0-44.781-17.503-49.489-40.499h11.49c22.056 0 40-17.944 40-40.001 0-22.056-17.944-40-40-40h-12.5v-39.749h160v39.749h-12.5c-22.056 0-40 17.944-40 40 0 22.057 17.944 40.001 40 40.001h11.494c-4.692 23.021-25.234 40.499-49.493 40.499zm206.499-15.499h-80v-26.255c6.856-1.758 13.144-5.325 18.282-10.463l28.789-28.789c3.905-3.905 3.905-10.237 0-14.143-3.905-3.904-10.237-3.904-14.142 0l-28.788 28.789c-3.78 3.779-8.802 5.86-14.141 5.86h-78.5c-11.028 0-20-8.973-20-20.001s8.972-20 20-20h66.078c2.652 0 5.196-1.054 7.071-2.929l62.422-62.422c3.905-3.905 3.905-10.237 0-14.143-3.905-3.904-10.237-3.904-14.143 0l-32.928 32.93v-20.858c0-22.056 17.944-39.999 40-39.999s40 17.943 40 39.999zm-40-212.423c-22.056 0-40-17.944-40-40v-30h41.019c3.934 19.074 18.874 34.447 38.011 38.777-4.011 17.849-19.988 31.223-39.03 31.223zm40-51.726c-11.672-4.166-20-15.381-20-28.274 0-5.522-4.477-10-10-10h-60c-11.028 0-20-8.972-20-20v-5h90c11.028 0 20 8.972 20 20z"/><path d="m192.057 102.842c-2.505 4.922-.546 10.943 4.376 13.448 1.453.739 3.002 1.09 4.528 1.09 3.642 0 7.154-1.997 8.92-5.466 8.224-16.156 3.249-25.592-.043-31.835-2.465-4.676-3.388-6.426.043-13.165 2.505-4.922.546-10.943-4.376-13.448-4.922-2.504-10.943-.547-13.448 4.376-8.13 15.975-3.184 25.356.089 31.564 2.5 4.74 3.435 6.514-.089 13.436z"/><path d="m247.057 102.842c-2.505 4.922-.546 10.943 4.376 13.448 1.454.739 3.002 1.09 4.528 1.09 3.642 0 7.154-1.997 8.92-5.466 8.224-16.156 3.249-25.592-.043-31.835-2.465-4.676-3.387-6.426.043-13.165 2.505-4.922.546-10.943-4.376-13.448-4.921-2.503-10.943-.546-13.448 4.376-8.13 15.975-3.184 25.356.09 31.564 2.498 4.74 3.433 6.513-.09 13.436z"/><path d="m302.057 102.842c-2.505 4.922-.546 10.943 4.376 13.448 1.453.739 3.002 1.09 4.528 1.09 3.642 0 7.154-1.997 8.92-5.466 8.224-16.156 3.249-25.592-.043-31.835-2.465-4.676-3.388-6.426.043-13.165 2.505-4.922.546-10.943-4.376-13.448-4.922-2.504-10.943-.547-13.448 4.376-8.13 15.975-3.184 25.356.089 31.564 2.499 4.74 3.434 6.514-.089 13.436z"/></g><g/><g/><g/><g/><g/><g/><g/><g/><g/><g/><g/><g/><g/><g/><g/></svg>