<svg id="Capa_1" enable-background="new 0 0 512.002 512.002" viewBox="0 0 512.002 512.002" xmlns="http://www.w3.org/2000/svg"><g><path d="m164.427 71.001c-5.523 0-10 4.478-10 10v65h-20v-65c0-5.522-4.477-10-10-10s-10 4.478-10 10v65h-20v-65c0-5.522-4.477-10-10-10s-10 4.478-10 10v100c0 13.003 8.316 24.1 19.909 28.253l-2.408 219.137c-.094 8.598 3.218 16.734 9.327 22.91 6.186 6.255 14.416 9.699 23.172 9.699s16.987-3.444 23.173-9.7c6.109-6.176 9.421-14.312 9.326-22.91l-2.408-219.136c11.593-4.153 19.909-15.25 19.909-28.253v-100c0-5.522-4.478-10-10-10zm-10 95v15c0 5.514-4.486 10-10 10h-40c-5.514 0-10-4.486-10-10v-15zm-19.604 71.135h-20.793l.287-26.135h20.218zm-1.443 200.101c-2.401 2.427-5.581 3.764-8.954 3.764s-6.553-1.337-8.953-3.764c-2.323-2.349-3.583-5.412-3.547-8.626l1.884-171.476h21.232l1.884 171.476c.037 3.214-1.223 6.278-3.546 8.626z"/><path d="m268.14 53.067c-2.466-1.892-5.671-2.53-8.676-1.726-27.293 7.313-45.41 38.662-55.384 95.837-6 34.395-8.917 77.432-8.917 131.57 0 2.652 1.054 5.195 2.929 7.071l10.413 10.412-1.452 132.159c-.094 8.598 3.218 16.734 9.327 22.91 6.187 6.255 14.416 9.699 23.173 9.699 17.92 0 32.5-14.579 32.5-32.5v-367.5c-.001-3.107-1.446-6.039-3.913-7.932zm-39.699 249.069h23.611v25.001h-23.886zm23.611-223.872v203.872h-29.359l-7.523-7.522c.397-131.586 19.749-179.642 36.882-196.35zm-12.5 362.737c-3.373 0-6.552-1.337-8.953-3.764-2.323-2.349-3.583-5.412-3.547-8.626l.895-81.475h24.105v81.364c0 6.894-5.607 12.501-12.5 12.501z"/><path d="m367.314 56.001c-20.261 0-38.862 11.776-52.377 33.16-11.199 17.719-17.884 40.739-17.884 61.579 0 29.277 15.179 53.207 40.108 64.106l-2.347 213.545c-.094 8.598 3.218 16.734 9.327 22.91 6.186 6.255 14.416 9.699 23.172 9.699s16.987-3.444 23.173-9.7c6.109-6.176 9.421-14.312 9.326-22.91l-2.347-213.544c24.929-10.897 40.108-34.828 40.108-64.106 0-20.84-6.686-43.86-17.884-61.579-13.513-21.384-32.114-33.16-52.375-33.16zm8.953 381.236c-2.401 2.427-5.581 3.764-8.954 3.764s-6.553-1.337-8.953-3.764c-2.323-2.349-3.583-5.412-3.547-8.626l1.884-171.476h21.233l1.884 171.476c.036 3.214-1.224 6.278-3.547 8.626zm8.099-238.805c-4.192 1.33-7.023 5.243-6.975 9.642l.319 29.062h-20.793l.319-29.062c.048-4.398-2.783-8.312-6.975-9.642-20.795-6.6-33.209-24.428-33.209-47.691 0-30.474 19.58-74.739 50.261-74.739s50.261 44.266 50.261 74.739c.001 23.264-12.414 41.092-33.208 47.691z"/><path d="m483.072 42.929-40-40c-1.875-1.875-4.419-2.929-7.071-2.929h-360c-2.652 0-5.196 1.054-7.071 2.929l-40 40c-1.875 1.876-2.929 4.419-2.929 7.071v412.002c0 2.652 1.054 5.195 2.929 7.071l40 40c1.875 1.875 4.419 2.929 7.071 2.929h360c2.652 0 5.196-1.054 7.071-2.929l40-40c1.875-1.876 2.929-4.419 2.929-7.071v-412.002c0-2.652-1.054-5.195-2.929-7.071zm-17.071 414.93-34.142 34.143h-351.716l-34.142-34.142v-403.718l34.142-34.142h351.716l34.142 34.143z"/></g><g/><g/><g/><g/><g/><g/><g/><g/><g/><g/><g/><g/><g/><g/><g/></svg>