<svg id="Capa_1" enable-background="new 0 0 512 512" viewBox="0 0 512 512" xmlns="http://www.w3.org/2000/svg"><g><path d="m502 253.499h-35.547l-66.922-76.579c-1.899-2.173-4.645-3.42-7.53-3.42h-72v-70c0-5.522-4.478-10-10-10h-300.001c-5.523 0-10 4.478-10 10v260c0 5.522 4.477 10 10 10h35.912c4.716 25.569 27.176 44.999 54.089 44.999s49.373-19.43 54.089-44.999h203.822c4.716 25.569 27.176 44.999 54.089 44.999s49.373-19.43 54.089-44.999h35.91c5.522 0 10-4.478 10-10v-100.001c0-5.522-4.478-10-10-10zm-402 145c-19.299 0-35-15.701-35-35s15.701-35 35-35c19.291 0 34.986 15.688 35 34.975v.026.025c-.014 19.287-15.709 34.974-35 34.974zm200-44.999h-145.91c-4.715-25.57-27.176-45.001-54.089-45.001s-49.374 19.431-54.09 45.001h-25.911v-240h280zm65-160h22.458l52.433 59.999h-74.891zm47 204.999c-19.299 0-35-15.701-35-35s15.701-35 35-35c19.282 0 34.972 15.674 35 34.95 0 .017-.001.034-.001.051s.001.034.001.051c-.028 19.275-15.718 34.948-35 34.948zm80-44.999h-25.91c-4.715-25.57-27.176-45.001-54.089-45.001s-49.374 19.431-54.089 45.001h-37.912v-160h25v69.999c0 5.522 4.478 10 10 10h137z"/><path d="m265 308.5h-85c-5.523 0-10 4.478-10 10s4.477 10 10 10h85c5.522 0 10-4.478 10-10s-4.478-10-10-10z"/><path d="m412.003 353.5h-.007c-5.522 0-9.997 4.478-9.997 10s4.481 10 10.004 10 10-4.478 10-10-4.477-10-10-10z"/><path d="m100.004 353.5h-.007c-5.523 0-9.996 4.478-9.996 10s4.48 10 10.003 10 10-4.478 10-10-4.477-10-10-10z"/><path d="m55 274.577h210c5.522 0 10-4.478 10-10s-4.478-10-10-10h-.015c-2.321-24.724-13.182-47.635-31.071-65.215-17.447-17.146-39.848-27.518-63.914-29.773v-2.168c0-5.522-4.477-10-10-10s-10 4.478-10 10v2.168c-24.066 2.255-46.467 12.627-63.914 29.773-17.89 17.58-28.75 40.491-31.071 65.215h-.015c-5.523 0-10 4.478-10 10s4.478 10 10 10zm105-95.454c43.432 0 79.847 33.138 84.865 75.454h-169.729c5.018-42.316 41.432-75.454 84.864-75.454z"/></g><g/><g/><g/><g/><g/><g/><g/><g/><g/><g/><g/><g/><g/><g/><g/></svg>