<svg id="Capa_1" enable-background="new 0 0 512.001 512.001" viewBox="0 0 512.001 512.001" xmlns="http://www.w3.org/2000/svg"><g><path d="m452.467 288.377c4.999-19.047 7.533-38.681 7.533-58.377 0-61.436-23.924-119.193-67.365-162.635s-101.2-67.365-162.635-67.365c-61.436 0-119.193 23.924-162.635 67.365s-67.365 101.199-67.365 162.635c0 61.435 23.924 119.193 67.365 162.635s101.199 67.365 162.635 67.365c19.696 0 39.33-2.534 58.377-7.533 20.844 35.585 59.49 59.534 103.624 59.534 66.168 0 120-53.832 120-120 0-44.134-23.949-82.779-59.534-103.624zm-222.467 151.623c-115.795 0-210-94.205-210-210s94.205-210 210-210 210 94.205 210 210c0 16.713-1.998 33.376-5.944 49.606-13.093-4.915-27.266-7.605-42.055-7.605-38.016 0-71.959 17.769-93.961 45.438l-53.897-53.897 40.613-40.613 7.071 7.071c5.85 5.849 13.53 8.772 21.213 8.772 7.682 0 15.365-2.925 21.213-8.772l49.498-49.497c3.905-3.905 3.905-10.237 0-14.143-3.905-3.902-10.235-3.904-14.143 0l-27.426 27.426-14.142-14.141 27.426-27.426c3.905-3.905 3.905-10.237 0-14.143-3.906-3.904-10.236-3.904-14.143 0l-27.426 27.426-14.142-14.142 27.427-27.427c3.905-3.905 3.905-10.237 0-14.143-3.906-3.904-10.236-3.904-14.143 0l-49.498 49.498c-5.65 5.651-8.763 13.185-8.762 21.214 0 8.028 3.112 15.562 8.763 21.213l7.071 7.071-40.613 40.613-41.17-41.17c7.34-9.979 11.432-21.569 11.689-33.449.34-15.694-6.134-30.999-18.229-43.095-12.124-12.124-29.21-20.781-46.878-23.751-19.956-3.355-37.207 1.062-48.582 12.438-11.375 11.375-15.792 28.628-12.437 48.582 2.97 17.667 11.627 34.753 23.751 46.877 11.794 11.794 26.637 18.242 41.919 18.242.392 0 .784-.004 1.176-.013 11.88-.257 23.47-4.349 33.449-11.689l41.17 41.17-72.524 72.524c-3.905 3.905-3.905 10.237 0 14.143 1.953 1.952 4.512 2.929 7.071 2.929s5.118-.977 7.071-2.929l72.524-72.524 56.739 56.739c-9.392 17.102-14.738 36.727-14.738 57.578 0 14.789 2.69 28.962 7.605 42.055-16.23 3.946-32.893 5.944-49.606 5.944zm55.612-274.497 42.426 42.425-7.929 7.929c-1.873 1.873-4.384 2.905-7.07 2.905s-5.197-1.032-7.07-2.905l-28.284-28.284c-1.874-1.873-2.905-4.385-2.905-7.071s1.031-5.197 2.904-7.07zm-173.326 36.185c-9.115-9.114-15.908-22.591-18.171-36.051-2.219-13.202.279-24.547 6.856-31.123 5.005-5.005 12.769-7.648 22.013-7.648 2.904 0 5.956.262 9.111.792 13.459 2.263 26.937 9.055 36.051 18.17 16.445 16.444 16.445 39.416 0 55.86-16.445 16.447-39.415 16.445-55.86 0zm279.715 290.313c-55.141 0-100-44.859-100-100s44.859-100 100-100 100 44.859 100 100-44.859 100-100 100z"/><path d="m401.216 384.994-10.777-4.463c-5.051-2.093-7.459-7.905-5.365-12.958 1.005-2.428 2.914-4.325 5.375-5.345 2.462-1.02 5.152-1.028 7.581-.022l5.389 2.232c5.101 2.114 10.952-.309 13.065-5.411 2.114-5.103-.309-10.952-5.411-13.065l-5.389-2.232c-1.209-.501-2.439-.919-3.683-1.255v-5.473c0-5.522-4.478-10-10-10s-10 4.478-10 10v7.091c-7.015 3.138-12.467 8.73-15.405 15.827-6.313 15.239.948 32.774 16.188 39.089l10.779 4.463c5.052 2.093 7.459 7.905 5.366 12.958-1.005 2.428-2.914 4.325-5.375 5.345-2.462 1.02-5.154 1.026-7.581.023l-5.389-2.232c-5.1-2.113-10.952.31-13.065 5.411-2.114 5.103.309 10.952 5.411 13.065l5.39 2.233c1.209.5 2.438.918 3.681 1.254v5.473c0 5.522 4.478 10 10 10s10-4.478 10-10v-7.092c7.015-3.138 12.468-8.73 15.407-15.828 6.312-15.239-.951-32.774-16.192-39.088z"/></g><g/><g/><g/><g/><g/><g/><g/><g/><g/><g/><g/><g/><g/><g/><g/></svg>