<svg id="Capa_1" enable-background="new 0 0 512.002 512.002" viewBox="0 0 512.002 512.002" xmlns="http://www.w3.org/2000/svg"><g><path d="m466.228 241.776c-3.892-22.95-22.049-41.108-44.999-45.001-4.177-24.628-24.783-43.737-50.108-45.62l40.175-64.87c5.486-8.86 7.08-19.422 4.485-29.74-2.657-10.568-9.57-19.74-18.968-25.166-9.391-5.421-20.799-6.815-31.302-3.827-10.222 2.909-18.564 9.563-23.49 18.737l-39.581 73.727h-96.857c-21.861 0-41.173 12.746-49.988 32.007-3.47-.679-7.011-1.021-10.597-1.021-27.183 0-49.824 19.823-54.226 45.773-22.95 3.892-41.107 22.051-44.999 45.001-25.949 4.401-45.773 27.042-45.773 54.225 0 5.522 4.478 10 10 10h26.271l9.747 170.571c.302 5.293 4.683 9.43 9.983 9.43h40c4.936 0 9.133-3.602 9.884-8.479l8.695-56.521h282.842l8.695 56.521c.751 4.878 4.948 8.479 9.884 8.479h40c5.301 0 9.682-4.137 9.983-9.43l9.747-170.571h26.271c5.522 0 10-4.478 10-10 0-27.183-19.824-49.824-45.774-54.225zm-106.585-186.026c2.343-4.364 6.372-7.547 11.344-8.962 5.331-1.515 11.098-.819 15.827 1.911 4.737 2.735 8.227 7.373 9.571 12.723 1.264 5.023.521 10.114-2.093 14.333l-66.425 107.256c-7.504-7.841-17.339-13.356-28.223-15.501zm-259.644 160.252c5.522 0 10-4.477 10-10 .001-19.299 15.702-35 35-35 4.539 0 8.955.856 13.125 2.544 2.69 1.091 5.724.956 8.308-.366 2.585-1.322 4.468-3.703 5.158-6.523 3.842-15.686 17.82-26.641 33.994-26.641h86.12l-15.07 28.071c-2.433.607-4.828 1.388-7.176 2.342-5.116 2.081-7.577 7.915-5.497 13.03s7.913 7.575 13.03 5.497c3.98-1.619 8.178-2.439 12.475-2.439 15.628 0 29.27 11.107 32.438 26.411.978 4.725 5.14 7.975 9.781 7.975.672 0 1.354-.068 2.038-.21 5.408-1.119 8.885-6.411 7.765-11.819-.483-2.334-1.119-4.608-1.894-6.811l18.532-29.924c2.886-.754 5.862-1.136 8.877-1.136 19.298 0 34.999 15.701 35 35 0 5.523 4.478 10 10 10 15.825 0 29.231 10.558 33.544 25h-379.092c4.313-14.443 17.719-25.001 33.544-25.001zm66.889 185 7.692-50h162.842l7.692 50zm279.668 65h-21.976l-8.695-56.521c-.751-4.878-4.948-8.479-9.884-8.479h-40.651l-9.465-61.521c-.751-4.878-4.948-8.479-9.884-8.479h-180c-4.936 0-9.133 3.602-9.884 8.479l-9.465 61.521h-40.651c-4.936 0-9.133 3.602-9.884 8.479l-8.695 56.521h-21.976l-9.144-160.001h399.396zm-425.101-180.001c4.313-14.441 17.72-24.999 33.545-24.999h402.002c15.825 0 29.231 10.558 33.545 24.999z"/><path d="m119.02 76.466c-2.505 4.922-.546 10.942 4.376 13.448 1.453.739 3.002 1.09 4.528 1.09 3.643 0 7.154-1.997 8.92-5.466 8.225-16.157 3.249-25.593-.043-31.837-2.465-4.675-3.387-6.424.043-13.163 2.505-4.922.546-10.943-4.376-13.448-4.92-2.504-10.942-.547-13.448 4.376-8.13 15.974-3.184 25.355.09 31.563 2.498 4.74 3.434 6.514-.09 13.437z"/><path d="m174.02 76.466c-2.505 4.922-.546 10.943 4.376 13.448 1.453.739 3.002 1.09 4.528 1.09 3.643 0 7.154-1.997 8.92-5.466 8.224-16.157 3.249-25.593-.043-31.836-2.465-4.676-3.387-6.425.043-13.164 2.505-4.922.546-10.943-4.376-13.448-4.92-2.504-10.942-.547-13.448 4.376-8.13 15.974-3.184 25.355.09 31.563 2.498 4.74 3.433 6.514-.09 13.437z"/><path d="m229.02 76.466c-2.505 4.922-.546 10.943 4.376 13.448 1.453.739 3.002 1.09 4.528 1.09 3.643 0 7.154-1.997 8.92-5.466 8.224-16.157 3.249-25.593-.043-31.836-2.465-4.676-3.388-6.425.043-13.164 2.505-4.922.546-10.942-4.376-13.448-4.921-2.504-10.942-.547-13.448 4.376-8.131 15.974-3.184 25.355.09 31.563 2.498 4.74 3.433 6.514-.09 13.437z"/><path d="m216.06 203.608c1.952 1.953 4.511 2.929 7.07 2.929s5.119-.977 7.071-2.93c3.905-3.905 3.905-10.237-.001-14.142l-7.071-7.07c-3.904-3.906-10.237-3.905-14.142.001-3.905 3.905-3.905 10.237.001 14.142z"/><path d="m151.273 226.504c1.696 0 3.416-.433 4.99-1.342l8.66-5c4.783-2.762 6.422-8.877 3.66-13.66-2.761-4.781-8.877-6.421-13.66-3.66l-8.66 5c-4.783 2.762-6.422 8.877-3.66 13.66 1.853 3.208 5.213 5.002 8.67 5.002z"/></g><g/><g/><g/><g/><g/><g/><g/><g/><g/><g/><g/><g/><g/><g/><g/></svg>