<svg id="Capa_1" enable-background="new 0 0 512.002 512.002" viewBox="0 0 512.002 512.002" xmlns="http://www.w3.org/2000/svg"><g><path d="m502.002 315.675h-10.211c-2.512-60.036-27.368-116.064-70.375-158.327-37.491-36.842-85.2-59.71-136.617-65.94 1.949-4.119 3.04-8.72 3.04-13.571 0-17.555-14.282-31.836-31.837-31.836s-31.836 14.281-31.836 31.836c0 4.851 1.091 9.452 3.04 13.571-51.417 6.23-99.127 29.098-136.618 65.94-43.007 42.263-67.863 98.291-70.375 158.327h-10.213c-5.523 0-10 4.478-10 10 0 30.326 24.673 54.999 55 54.999h110.357c11.482 38.707 36.236 71.101 88.055 84.985.848.228 1.718.341 2.588.341s1.74-.113 2.588-.341c51.819-13.885 76.573-46.278 88.055-84.985h110.358c30.327 0 55-24.673 55-54.999.001-5.522-4.476-10-9.999-10zm-257.837-237.838c0-6.526 5.31-11.836 11.836-11.836s11.837 5.31 11.837 11.836c0 6.527-5.31 11.838-11.837 11.838s-11.836-5.31-11.836-11.838zm11.836 31.838c114.958 0 210.468 91.846 215.768 206h-116c.164-5.327.232-10.651.232-15.948 0-5.522-4.477-10-10-10-19.299 0-35-15.701-35-35 0-5.522-4.477-10-10-10h-90c-5.523 0-10 4.478-10 10 0 19.299-15.701 35-35 35-5.523 0-10 4.478-10 10 0 5.297.068 10.622.232 15.948h-116c5.3-114.154 100.81-206 215.768-206zm-201.001 250.999c-15.825 0-29.231-10.558-33.545-24.999h135.904c.717 8.44 1.767 16.807 3.267 24.999zm201.001 84.948c-66.899-19.271-78.937-76.245-79.929-136.818 22.293-4.143 39.905-21.773 44.018-44.076h71.822c4.113 22.303 21.725 39.934 44.018 44.076-.992 60.572-13.031 117.546-79.929 136.818zm201.001-84.948h-105.626c1.499-8.192 2.55-16.559 3.267-24.999h135.904c-4.314 14.442-17.72 24.999-33.545 24.999z"/><path d="m174.161 163.924c-2.761-4.783-8.877-6.423-13.66-3.66-28.995 16.74-53.17 40.915-69.911 69.911-2.762 4.783-1.123 10.898 3.66 13.66 1.575.909 3.294 1.342 4.991 1.342 3.456 0 6.817-1.794 8.669-5.002 14.988-25.96 36.632-47.604 62.591-62.591 4.783-2.76 6.422-8.876 3.66-13.66z"/><path d="m282.68 325.792-37.93 37.929-15.429-15.429c-3.905-3.904-10.237-3.904-14.143 0-3.905 3.905-3.905 10.237 0 14.143l22.5 22.5c1.953 1.952 4.512 2.929 7.071 2.929s5.119-.977 7.071-2.929l45-45c3.905-3.905 3.906-10.237 0-14.143-3.903-3.903-10.235-3.904-14.14 0z"/></g><g/><g/><g/><g/><g/><g/><g/><g/><g/><g/><g/><g/><g/><g/><g/></svg>