<svg id="Capa_1" enable-background="new 0 0 512.002 512.002" viewBox="0 0 512.002 512.002" xmlns="http://www.w3.org/2000/svg"><g><path d="m425.687 266.332c.208-3.422.314-6.897.314-10.331 0-45.147-17.51-87.664-49.304-119.718-31.585-31.844-73.611-49.673-118.424-50.266-7.381-5.868-16.693-9.016-26.219-8.723-6.952-12.456-20.327-20.609-34.978-20.609-14.92 0-28.413 8.36-35.268 21.122-.191-.002-.384-.004-.576-.004-14.057 0-27.534 7.475-34.761 19.992-5.328 9.228-6.599 19.958-4.112 29.825-12.573.203-23.928 7.146-30.001 17.74-12.203.162-23.849 6.712-30.13 17.591-6.399 11.083-6.147 24.63.083 35.346-5.962 10.65-6.112 24.01.169 34.888 5.174 8.962 13.915 14.964 23.624 16.914-.068 1.971-.103 3.942-.103 5.903 0 93.738 76.261 170 170 170 11.919 0 23.867-1.263 35.518-3.752 12.088 4.363 24.794 6.544 37.499 6.544 28.168 0 56.337-10.722 77.781-32.166 35.224-35.224 41.519-88.588 18.888-130.296zm-96.669 24.226c-14.654-14.654-22.406-43.754-18.85-70.764 1.903-14.45 6.82-26.122 13.831-33.247l61.138 61.138c-3.167 26.074-31.606 43.868-52.986 46.394-.969-1.225-2.013-2.401-3.133-3.521zm11.263 22.46c13.391-2.687 27.179-9.185 38.359-18.276 10.456-8.502 18.118-18.703 22.505-29.737 13.067 17.481 18.952 38.67 17.654 59.49-20.433 8.701-53.869 7.877-78.294-1.693.127-1.308.191-2.629.191-3.961.001-1.967-.14-3.912-.415-5.823zm-196.489-205.223c4.409-7.637 13.464-11.521 22.022-9.445 5.24 1.268 10.546-1.845 11.991-7.04 2.394-8.611 10.318-14.625 19.27-14.625 8.818 0 16.709 5.9 19.191 14.35 1.52 5.174 6.871 8.21 12.092 6.864 8.656-2.228 17.824 1.624 22.301 9.377 4.409 7.637 3.245 17.421-2.831 23.794-3.722 3.904-3.677 10.056.101 13.905 6.26 6.378 7.506 16.248 3.03 24.001-4.409 7.638-13.465 11.518-22.021 9.445-5.242-1.274-10.547 1.843-11.992 7.039-2.394 8.611-10.318 14.625-19.27 14.625-8.818 0-16.709-5.9-19.191-14.349-1.276-4.346-5.254-7.184-9.589-7.184-.827 0-1.667.104-2.503.318-8.654 2.234-17.825-1.623-22.301-9.376-4.409-7.637-3.245-17.422 2.831-23.795 3.722-3.904 3.677-10.056-.101-13.905-6.26-6.377-7.506-16.246-3.03-23.999zm-63.991 115.391c-3.352-5.805-2.467-13.242 2.151-18.087 3.721-3.903 3.676-10.055-.101-13.903-4.758-4.849-5.705-12.351-2.302-18.244 3.352-5.805 10.234-8.752 16.739-7.181 5.243 1.275 10.547-1.843 11.992-7.039 1.819-6.545 7.843-11.116 14.648-11.116.109 0 .219.001.328.004-3.214 10.43-2.16 22.045 3.516 31.876 7.312 12.667 20.902 20.145 35.073 19.999.37 1.831 1.257 3.58 2.663 5.013 4.758 4.848 5.705 12.35 2.303 18.243-3.352 5.806-10.234 8.752-16.739 7.181-5.244-1.274-10.547 1.843-11.992 7.039-1.819 6.545-7.843 11.115-14.648 11.115-6.703 0-12.702-4.484-14.588-10.906-1.52-5.175-6.869-8.212-12.093-6.864-6.577 1.691-13.547-1.236-16.95-7.13zm176.2 182.815c-80.186 0-145.878-63.247-149.813-142.474 5.159 2.915 11.072 4.558 17.243 4.558 12.798 0 24.404-6.99 30.569-17.744 12.203-.162 23.849-6.712 30.131-17.591 2.485-4.305 3.967-8.981 4.485-13.719 2.931.69 5.967 1.054 9.06 1.054 14.919 0 28.413-8.361 35.267-21.122 14.23.178 28.011-7.298 35.337-19.987 7.459-12.92 6.965-28.787-.658-41.104 5.554-9.305 7.104-20.578 4.316-31.022 69.666 7.438 125.37 63.019 133.136 132.488l-73.127-73.126c-3.2-3.199-8.15-3.853-12.071-1.589-15.785 9.113-26.274 27.78-29.537 52.562-4.383 33.287 5.478 68.457 24.536 87.517 3.754 3.754 5.821 8.775 5.821 14.141s-2.068 10.389-5.822 14.143c-7.797 7.798-20.485 7.799-28.284 0l-14.138-14.138c-6.122-6.121-13.965-9.496-21.986-10.125 1.781-7.813 1.701-16.061-.433-24.025-4.604-17.184-18.146-30.729-35.342-35.353-3.455-.929-7.145.06-9.673 2.592-9.218 9.233-14.342 21.635-14.611 34.364-12.729.271-25.132 5.395-34.364 14.611-2.532 2.528-3.521 6.218-2.592 9.673 4.623 17.196 18.169 30.738 35.353 35.343 4.244 1.138 8.566 1.691 12.863 1.691 3.767 0 7.511-.427 11.162-1.26.629 8.021 4.004 15.865 10.126 21.988l28.282 28.282c3.349 3.349 6.862 6.437 10.514 9.263-1.917.072-3.834.109-5.75.109zm6.899-25.995-25.803-25.803c-5.844-5.844-5.849-15.349-.015-21.199l.021-.021.018-.018c2.922-2.908 6.752-4.363 10.583-4.363 3.841 0 7.683 1.463 10.607 4.387l14.138 14.138c1.48 1.48 3.048 2.819 4.687 4.018-6.063 8.436-11.085 19.234-14.236 28.861zm-68.92-53.398c-8.295-2.223-15.179-7.92-18.998-15.438 7.052-4.592 15.838-6.087 24.118-3.887 3.501.963 7.254-.051 9.8-2.657 2.482-2.54 3.419-6.197 2.5-9.599-2.215-8.289-.722-17.091 3.876-24.152 7.519 3.819 13.216 10.702 15.438 18.997 2.76 10.302-.209 21.397-7.737 28.951-.008.008-.016.016-.024.024-.006.006-.012.013-.019.019-7.564 7.534-18.658 10.499-28.954 7.742zm85.773 67.566c1.816-9.567 8.952-27.29 17.02-35.547 4.631.457 9.328.11 13.86-1.04 2.965 9.394 8.185 20.657 17.37 31.224 6.25 7.191 13.468 13.079 21.59 17.628-6.759 1.576-13.667 2.364-20.576 2.363-17.178 0-34.362-4.877-49.264-14.628zm112.904-11.689c-5.071 5.071-10.601 9.41-16.458 13.015-33.712-8.156-44.476-35.777-47.621-47.942.147-.142.293-.286.438-.431 1.72-1.719 3.262-3.57 4.62-5.53 15.37 5.976 33.113 9.008 50.174 9.008 10.758 0 21.245-1.206 30.692-3.641-4.251 12.996-11.533 25.208-21.845 35.521z"/><path d="m344.863 235.714c-4.086-3.716-10.411-3.414-14.126.673s-3.414 10.411.673 14.126l.005.005c1.915 1.741 4.321 2.6 6.72 2.6 2.719 0 5.429-1.104 7.403-3.274 3.716-4.088 3.412-10.415-.675-14.13z"/><path d="m256.001 0c-141.159 0-256.001 114.842-256.001 256.001s114.842 256.001 256.001 256.001 256.001-114.842 256.001-256.001-114.841-256.001-256.001-256.001zm0 492.002c-130.131 0-236.001-105.869-236.001-236.001s105.87-236.001 236.001-236.001 236.001 105.869 236.001 236.001-105.869 236.001-236.001 236.001z"/></g><g/><g/><g/><g/><g/><g/><g/><g/><g/><g/><g/><g/><g/><g/><g/></svg>