<svg id="Capa_1" enable-background="new 0 0 512.001 512.001" viewBox="0 0 512.001 512.001" xmlns="http://www.w3.org/2000/svg"><g><path d="m502.001 421.001h-15.546v-68.9c12.788-4.21 22.046-16.268 22.046-30.447v-70.654c0-5.522-4.478-10-10-10h-100.227v-13.898c12.788-4.21 22.045-16.268 22.045-30.447v-100.654c0-5.522-4.478-10-10-10h-99.319v-50c0-5.522-4.478-10-10-10s-10 4.478-10 10v50h-24.999v-50c0-5.522-4.478-10-10-10s-10 4.478-10 10v50h-25v-50c0-5.522-4.477-10-10-10s-10 4.478-10 10v50h-99.318c-5.523 0-10 4.478-10 10v80.653c0 14.179 9.258 26.238 22.046 30.448v33.898h-100.229c-5.523 0-10 4.478-10 10v110.654c0 14.179 9.257 26.237 22.045 30.448v28.899h-15.545c-5.523 0-10 4.478-10 10 0 30.326 24.673 54.999 55 54.999h402.002c30.326 0 54.999-24.673 54.999-54.999 0-5.522-4.478-10-10-10zm-390.318-315h288.637v90.654c0 6.642-5.403 12.045-12.045 12.045-6.643 0-12.047-5.403-12.047-12.045v-14.608c0-17.67-14.375-32.046-32.045-32.046s-32.046 14.376-32.046 32.046v4.608c0 6.642-5.403 12.045-12.045 12.045-6.643 0-12.046-5.403-12.046-12.045v-24.608c0-17.67-14.375-32.046-32.045-32.046s-32.046 14.376-32.046 32.046v34.608c0 6.642-5.403 12.045-12.045 12.045s-12.046-5.403-12.046-12.045v-24.608c0-17.67-14.375-32.046-32.045-32.046s-32.046 14.376-32.046 32.046v4.607c0 6.642-5.403 12.046-12.045 12.046s-12.046-5.404-12.046-12.046v-70.653zm22.046 101.101c12.788-4.211 22.045-16.269 22.045-30.448v-4.607c0-6.642 5.404-12.046 12.046-12.046s12.045 5.404 12.045 12.046v24.608c0 17.67 14.375 32.045 32.046 32.045 17.669 0 32.045-14.375 32.045-32.045v-34.608c0-6.642 5.404-12.046 12.046-12.046s12.045 5.404 12.045 12.046v24.608c0 17.67 14.376 32.045 32.046 32.045s32.045-14.375 32.045-32.045v-4.608c0-6.642 5.403-12.046 12.046-12.046 6.642 0 12.045 5.404 12.045 12.046v14.608c0 14.18 9.258 26.237 22.047 30.447v13.898h-244.547zm-110.229 53.898h465v60.654c0 6.642-5.403 12.045-12.046 12.045s-12.046-5.403-12.046-12.045v-4.608c0-17.67-14.376-32.046-32.046-32.046s-32.045 14.376-32.045 32.046v24.608c0 6.643-5.403 12.046-12.046 12.046-6.642 0-12.045-5.403-12.045-12.046v-4.608c0-17.67-14.376-32.045-32.046-32.045s-32.045 14.375-32.045 32.045v14.608c0 6.643-5.403 12.046-12.046 12.046-6.642 0-12.045-5.403-12.045-12.046v-24.608c.002-17.67-14.374-32.046-32.044-32.046-17.669 0-32.045 14.376-32.045 32.046v44.608c0 6.643-5.404 12.046-12.046 12.046s-12.045-5.403-12.045-12.046v-54.608c0-17.67-14.376-32.046-32.046-32.046-17.669 0-32.045 14.376-32.045 32.046v24.608c0 6.643-5.404 12.046-12.046 12.046s-12.045-5.403-12.045-12.046v-4.608c0-17.67-14.376-32.045-32.046-32.045s-32.045 14.375-32.045 32.045v24.608c0 6.643-5.404 12.046-12.046 12.046s-12.045-5.403-12.045-12.046v-100.654zm22.045 131.102c12.788-4.21 22.046-16.269 22.046-30.448v-24.608c0-6.642 5.403-12.045 12.045-12.045s12.046 5.403 12.046 12.045v4.608c0 17.67 14.375 32.046 32.045 32.046s32.046-14.376 32.046-32.046v-24.608c0-6.643 5.403-12.046 12.045-12.046s12.046 5.403 12.046 12.046v54.608c0 17.67 14.375 32.046 32.045 32.046s32.046-14.376 32.046-32.046v-44.608c0-6.643 5.403-12.046 12.045-12.046 6.643 0 12.046 5.403 12.046 12.046v24.608c0 17.67 14.375 32.046 32.045 32.046s32.046-14.376 32.046-32.046v-14.608c0-6.642 5.403-12.045 12.045-12.045 6.643 0 12.046 5.403 12.046 12.045v4.608c0 17.67 14.375 32.046 32.045 32.046s32.046-14.376 32.046-32.046v-24.608c0-6.643 5.403-12.046 12.045-12.046 6.643 0 12.046 5.403 12.046 12.046v4.608c0 14.179 9.258 26.237 22.046 30.447v68.9h-420.911zm411.457 73.898h-402.002c-15.825 0-29.231-10.558-33.544-24.999h469.091c-4.315 14.441-17.72 24.999-33.545 24.999z"/></g><g/><g/><g/><g/><g/><g/><g/><g/><g/><g/><g/><g/><g/><g/><g/></svg>