<svg id="Capa_1" enable-background="new 0 0 512.005 512.005" viewBox="0 0 512.005 512.005" xmlns="http://www.w3.org/2000/svg"><g><path d="m441.897 501.522-15-310c-.258-5.328-4.653-9.517-9.988-9.517h-50.944l-15.623-58.307c9.665-3.285 17.193-11.299 19.941-22.191 3.858-15.294-3.831-30.168-18.7-36.17l-21.626-8.731v-9.892c0-8.745-3.27-16.708-9.207-22.423-5.816-5.6-13.882-8.627-22.181-8.314l-44.002 1.685c-1.137.043-2.257.28-3.314.701l-45.342 18.041-123.004-35.999c-5.299-1.552-10.854 1.487-12.406 6.789-1.551 5.301 1.488 10.854 6.789 12.406l126.31 36.966c2.143.627 4.432.519 6.506-.306l46.944-18.68 42.284-1.617c2.898-.123 5.596.861 7.547 2.737 2.013 1.938 3.076 4.708 3.076 8.014v1.935c-4.735-1.14-9.723 1.329-11.602 5.983-2.068 5.121.407 10.948 5.528 13.016l40.213 16.234c8.427 3.402 7.331 10.605 6.795 12.732-1.131 4.478-4.973 9.437-12.078 8.64-4.901-.544-9.483 2.579-10.762 7.352-4.502 16.798-21.035 23.605-49.127 20.236l-197.634-23.71c-5.502-.659-10.463 3.253-11.12 8.737-.658 5.483 3.254 10.462 8.737 11.12l148.381 17.801-9.436 35.215h-50.943c-5.335 0-9.73 4.188-9.988 9.517l-15 310c-.132 2.732.861 5.4 2.748 7.382 1.888 1.98 4.504 3.102 7.24 3.102h280c2.736 0 5.353-1.121 7.24-3.102 1.887-1.982 2.88-4.65 2.748-7.382zm-194.548-352.325 29.193 3.502c5.469.656 10.523.96 15.198.96 20.629-.001 33.836-5.916 42.289-13.571l11.231 41.916h-106.702zm160.033 52.808 2.903 60h-236.752l2.903-60zm-244.978 290 10.161-210h238.688l10.161 210z"/><path d="m381.909 383.54h-5.391c.227-1.673.341-3.365.341-5.062 0-13.578-7.408-26.29-19.334-33.176-.916-.529-1.844-1.015-2.783-1.461l11.957-17.794c3.081-4.584 1.861-10.797-2.723-13.877-4.583-3.079-10.796-1.862-13.877 2.723l-17.4 25.896c-1.079.196-2.151.443-3.211.741-9.698-10.224-23.243-16.142-37.579-16.142-14.363 0-28.058 6.018-37.778 16.36-.91-.229-1.831-.424-2.76-.585l-17.652-26.271c-3.079-4.584-9.294-5.803-13.877-2.723-4.584 3.08-5.804 9.293-2.723 13.877l12.059 17.947c-13.095 5.968-22.219 19.181-22.219 34.485 0 1.697.115 3.388.341 5.062h-5.391c-5.522 0-10 4.478-10 10v20c0 27.57 22.43 50 50 50h100c27.57 0 50-22.43 50-50v-20c0-5.522-4.477-10-10-10zm-154.95-5.061c0-9.855 8.019-17.874 17.874-17.874 4.774 0 9.263 1.859 12.639 5.235 3.906 3.904 10.236 3.904 14.143 0 3.717-3.717 3.896-9.634.536-13.562 5.562-4.401 12.522-6.89 19.759-6.89 10.51 0 20.325 5.179 26.257 13.854 2.951 4.314 8.728 5.633 13.255 3.016 6.98-4.032 13.588-1.087 16.104.365 5.845 3.375 9.334 9.302 9.334 15.855 0 1.719-.25 3.424-.733 5.062h-128.435c-.483-1.638-.733-3.343-.733-5.061zm144.95 35.061c0 16.542-13.458 30-30 30h-100c-16.542 0-30-13.458-30-30v-10h160z"/></g><g/><g/><g/><g/><g/><g/><g/><g/><g/><g/><g/><g/><g/><g/><g/></svg>