<svg id="Capa_1" enable-background="new 0 0 512.002 512.002" viewBox="0 0 512.002 512.002" xmlns="http://www.w3.org/2000/svg"><g><path d="m502.002 265.501h-21.001c0-21.378-14.983-39.32-35-43.88v-6.12c0-5.522-4.478-10-10-10s-10 4.478-10 10v6.12c-20.017 4.559-35 22.502-35 43.88h-30c0-21.378-14.983-39.32-35-43.88v-6.12c0-5.522-4.478-10-10-10s-10 4.478-10 10v6.12c-5.438 1.239-10.504 3.465-15 6.48v-61.6h113c27.846 0 50.5-22.654 50.5-50.5 0-5.522-4.478-10-10-10h-23.5c0-21.378-14.983-39.32-35-43.88v-6.12c0-5.522-4.478-10-10-10s-10 4.478-10 10v6.12c-20.017 4.559-35 22.502-35 43.88h-30c0-21.378-14.983-39.32-35-43.88v-6.12c0-5.522-4.478-10-10-10s-10 4.478-10 10v6.12c-20.017 4.559-35 22.502-35 43.88h-30c0-21.378-14.983-39.32-35-43.88v-6.12c0-5.522-4.478-10-10-10s-10 4.478-10 10v6.12c-20.017 4.559-35 22.502-35 43.88h-23.5c-5.522 0-10 4.478-10 10 0 27.846 22.653 50.5 50.499 50.5h113.001v61.6c-4.496-3.015-9.562-5.241-15-6.48v-6.12c0-5.522-4.478-10-10-10s-10 4.478-10 10v6.12c-20.017 4.559-35 22.502-35 43.88h-30c0-21.378-14.983-39.32-35-43.88v-6.12c0-5.522-4.478-10-10-10s-10 4.478-10 10v6.12c-20.017 4.559-35 22.502-35 43.88h-21.001c-5.522 0-10 4.478-10 10 0 27.846 22.654 50.5 50.5 50.5h170.501v79.5h-34.501c-27.846 0-50.5 22.653-50.5 50.499 0 5.522 4.478 10 10 10h220.002c5.522 0 10-4.478 10-10 0-27.846-22.654-50.499-50.5-50.499h-34.501v-79.5h170.501c27.846 0 50.5-22.654 50.5-50.5 0-5.522-4.478-10-10-10zm-66.001-25c13.785 0 25 11.215 25 25h-50c0-13.785 11.215-25 25-25zm-120 0c13.785 0 25 11.215 25 25h-50c0-13.785 11.215-25 25-25zm60-159.5c13.785 0 25 11.215 25 25h-50c0-13.785 11.215-25 25-25zm-120 0c13.785 0 25 11.215 25 25h-50c0-13.785 11.215-25 25-25zm-120 0c13.785 0 25 11.215 25 25h-50c0-13.785 11.215-25 25-25zm-56.816 45h353.633c-4.149 11.921-15.5 20.5-28.816 20.5h-296.002c-13.316 0-24.667-8.579-28.815-20.5zm191.816 40.5v99h-30v-99zm-75 74c13.785 0 25 11.215 25 25h-50c0-13.785 11.215-25 25-25zm-120 0c13.785 0 25 11.215 25 25h-50c0-13.785 11.215-25 25-25zm278.317 205.499h-196.634c4.149-11.92 15.5-20.499 28.816-20.499h139.002c13.316 0 24.667 8.58 28.816 20.499zm-83.317-40.499h-30v-79.5h30zm190.501-99.5h-411.002c-13.316 0-24.667-8.579-28.816-20.5h468.635c-4.15 11.921-15.501 20.5-28.817 20.5z"/></g><g/><g/><g/><g/><g/><g/><g/><g/><g/><g/><g/><g/><g/><g/><g/></svg>