<svg id="Capa_1" enable-background="new 0 0 512 512" viewBox="0 0 512 512" xmlns="http://www.w3.org/2000/svg"><g><path d="m196 181.428v-171.428c0-5.522-4.477-10-10-10h-60c-5.523 0-10 4.478-10 10v171.428c-30.588 15.203-50 46.132-50 80.572v240c0 5.522 4.477 10 10 10h160c5.523 0 10-4.478 10-10v-240c0-34.439-19.413-65.369-50-80.572zm-20-76.427h-40v-40h40zm-40 20h40v58.647l-20 19.415-20-19.415zm40-105.001v25.001h-40v-25.001zm50 412h-140v-145h140zm-140 60v-40h140v40zm140-225h-140v-5c0-26.412 14.7-50.175 37.949-62.177l25.086 24.353c1.94 1.884 4.453 2.825 6.965 2.825s5.025-.941 6.965-2.825l25.086-24.353c23.249 12.002 37.949 35.766 37.949 62.177z"/><path d="m156 404.5c24.813 0 45-20.187 45-45s-20.187-45-45-45-45 20.187-45 45 20.187 45 45 45zm0-70c13.785 0 25 11.215 25 25s-11.215 25-25 25-25-11.215-25-25 11.215-25 25-25z"/><path d="m426.139 494.317-56.402-47.001v-80.941c19.928-2.522 37.983-12.588 51.614-28.976 16.126-19.385 24.649-45.494 24.649-75.503 0-28.161-7.534-56.271-21.214-79.151-1.806-3.02-5.065-4.868-8.583-4.868h-112.932c-3.518 0-6.777 1.849-8.583 4.868-13.68 22.88-21.214 50.99-21.214 79.151 0 30.009 8.523 56.117 24.649 75.503 13.631 16.387 31.686 26.454 51.614 28.976v80.941l-56.402 47.001c-3.234 2.695-4.434 7.128-3.001 11.087 1.434 3.959 5.192 6.596 9.403 6.596h120c4.21 0 7.969-2.637 9.403-6.596 1.433-3.959.233-8.391-3.001-11.087zm-117.033-296.44h101.261c9.978 18.742 15.633 41.746 15.633 64.02 0 1.718-.034 3.419-.101 5.104h-132.325c-.067-1.684-.101-3.386-.101-5.104.001-22.274 5.655-45.278 15.633-64.02zm-13.042 89.123h127.346c-7.747 35.899-32.165 60.002-63.673 60.002s-55.927-24.103-63.673-60.002zm31.293 205 32.379-26.982 32.38 26.982z"/></g><g/><g/><g/><g/><g/><g/><g/><g/><g/><g/><g/><g/><g/><g/><g/></svg>