<svg id="Capa_1" enable-background="new 0 0 512.002 512.002" viewBox="0 0 512.002 512.002" xmlns="http://www.w3.org/2000/svg"><g><path d="m502.002 358.338h-10.211c-2.513-60.037-27.369-116.064-70.375-158.327-37.491-36.842-85.2-59.71-136.617-65.94 1.949-4.118 3.04-8.719 3.04-13.57 0-17.555-14.282-31.837-31.837-31.837s-31.837 14.282-31.837 31.837c0 4.851 1.091 9.451 3.04 13.57-51.417 6.23-99.127 29.098-136.618 65.94-43.007 42.263-67.862 98.291-70.375 158.327h-10.212c-5.522 0-10 4.478-10 10 0 30.327 24.673 55 55 55h402.002c30.327 0 55-24.673 55-55 0-5.523-4.478-10-10-10zm-257.838-237.837c0-6.527 5.31-11.837 11.837-11.837s11.837 5.31 11.837 11.837-5.31 11.837-11.837 11.837-11.837-5.31-11.837-11.837zm11.837 31.837c114.957 0 210.467 91.846 215.769 206h-45.116c-.273-7.898-3.471-15.48-8.956-21.185 2.43-10.568-.626-22.009-8.531-29.913-8.057-8.057-19.689-11.075-30.379-8.428-7.938-7.389-19.37-10.461-30.171-7.568-8.226 2.204-15.011 7.545-19.19 14.521l-32.121-32.12c-12.375-12.375-32.512-12.375-44.887 0l-26.85 26.852c-5.863-16.365-21.399-27.619-39.329-27.619-15.774 0-29.685 8.624-36.81 21.938-4.852-1.626-10.042-2.508-15.434-2.508-26.842 0-48.68 21.838-48.68 48.68 0 6.014 1.091 11.876 3.177 17.351h-48.261c5.301-114.155 100.811-206.001 215.769-206.001zm-144.844 206c-3.786-4.969-5.84-11.017-5.84-17.351 0-15.814 12.865-28.68 28.68-28.68s28.68 12.865 28.68 28.68c0 6.333-2.054 12.381-5.84 17.351zm67.643-36.385c-2.775-6.507-6.927-12.292-12.09-16.984 3.602-7.311 11.049-12.09 19.53-12.09 8.864 0 16.605 5.274 19.992 13.093-6.219 2.629-11.514 7.179-15.03 13.004-4.311.154-8.531 1.184-12.402 2.977zm3.796 21.851c2.843-3.818 7.784-5.659 12.473-4.525 5.237 1.275 10.547-1.843 11.992-7.039 1.438-5.174 6.2-8.787 11.581-8.787 5.3 0 10.043 3.546 11.534 8.622 1.521 5.175 6.872 8.203 12.092 6.865 5.201-1.342 10.71.976 13.4 5.637 2.529 4.379 2.008 9.934-1.218 13.761h-74.952c1.76-4.617 2.812-9.508 3.098-14.534zm90.393-9.228c-5.696-9.867-16.148-15.789-27.162-16.003-1.275-2.037-2.771-3.913-4.449-5.6l25.184-25.185c4.578-4.578 12.028-4.577 16.603 0l70.55 70.55h-77.423c1.95-7.881.925-16.44-3.303-23.762zm109.01 23.762-37.085-37.084c.383-5.036 3.938-9.367 8.878-10.691 5.117-1.371 10.617.825 13.372 5.342 2.806 4.604 8.759 6.156 13.456 3.502 4.676-2.641 10.599-1.828 14.404 1.977 3.747 3.747 4.594 9.607 2.059 14.251-2.584 4.734-.949 10.664 3.696 13.405 3.394 2.002 5.513 5.516 5.851 9.299h-24.631zm75.003 45h-402.002c-15.825 0-29.231-10.559-33.545-25h469.092c-4.314 14.441-17.72 25-33.545 25z"/><path d="m192.058 234.617c-2.505 4.922-.546 10.943 4.376 13.448 1.453.739 3.002 1.09 4.528 1.09 3.643 0 7.154-1.997 8.92-5.466 8.224-16.157 3.249-25.593-.043-31.836-2.465-4.676-3.387-6.425.043-13.164 2.505-4.922.546-10.943-4.376-13.448-4.92-2.503-10.943-.546-13.448 4.376-8.13 15.974-3.184 25.355.09 31.563 2.498 4.741 3.433 6.514-.09 13.437z"/><path d="m247.058 234.617c-2.505 4.922-.546 10.943 4.376 13.448 1.453.739 3.002 1.09 4.528 1.09 3.643 0 7.154-1.997 8.92-5.466 8.224-16.157 3.249-25.593-.043-31.836-2.465-4.676-3.388-6.425.043-13.164 2.505-4.922.546-10.942-4.376-13.448-4.921-2.503-10.943-.546-13.448 4.376-8.131 15.974-3.184 25.355.09 31.563 2.498 4.741 3.433 6.514-.09 13.437z"/><path d="m302.058 234.617c-2.505 4.922-.546 10.943 4.376 13.448 1.453.739 3.002 1.09 4.528 1.09 3.643 0 7.154-1.997 8.92-5.466 8.224-16.157 3.249-25.593-.043-31.836-2.465-4.676-3.388-6.425.043-13.164 2.505-4.922.546-10.942-4.376-13.448-4.921-2.503-10.943-.546-13.448 4.376-8.131 15.974-3.184 25.355.09 31.563 2.498 4.741 3.433 6.514-.09 13.437z"/></g><g/><g/><g/><g/><g/><g/><g/><g/><g/><g/><g/><g/><g/><g/><g/></svg>