<svg id="Capa_1" enable-background="new 0 0 511.984 511.984" viewBox="0 0 511.984 511.984" xmlns="http://www.w3.org/2000/svg"><g><path d="m305.702 437.637-25.751-8.308-15.856-21.922c-1.881-2.6-4.895-4.14-8.103-4.14s-6.222 1.54-8.103 4.139l-15.857 21.923-25.75 8.308c-3.053.984-5.449 3.375-6.44 6.427-.991 3.051-.458 6.393 1.433 8.984l15.95 21.856-.058 27.057c-.007 3.209 1.526 6.226 4.122 8.111 2.596 1.888 5.94 2.414 8.988 1.414l25.715-8.416 25.715 8.416c1.017.333 2.066.496 3.109.496 2.086 0 4.148-.652 5.879-1.91 2.596-1.886 4.129-4.902 4.122-8.111l-.058-27.057 15.95-21.856c1.891-2.592 2.424-5.934 1.433-8.984-.991-3.052-3.386-5.443-6.44-6.427zm-29.027 28.122c-1.253 1.717-1.927 3.789-1.922 5.916l.035 16.504-15.687-5.134c-1.01-.331-2.06-.496-3.11-.496s-2.1.165-3.11.496l-15.686 5.134.035-16.504c.004-2.127-.669-4.199-1.922-5.916l-9.729-13.333 15.708-5.067c2.023-.652 3.786-1.933 5.032-3.656l9.673-13.372 9.672 13.372c1.246 1.724 3.009 3.004 5.032 3.656l15.708 5.067z"/><path d="m174.308 399.344-25.75-8.306-15.857-21.923c-1.88-2.6-4.894-4.14-8.103-4.14s-6.222 1.54-8.103 4.14l-15.857 21.923-25.75 8.306c-3.054.985-5.449 3.376-6.441 6.427-.991 3.052-.458 6.394 1.433 8.985l15.95 21.856-.057 27.058c-.007 3.209 1.526 6.226 4.122 8.111 2.596 1.887 5.94 2.414 8.988 1.414l25.715-8.416 25.715 8.416c1.017.333 2.066.496 3.11.496 2.086 0 4.148-.652 5.878-1.91 2.596-1.886 4.129-4.902 4.122-8.111l-.057-27.058 15.95-21.856c1.892-2.592 2.424-5.934 1.433-8.985s-3.387-5.442-6.441-6.427zm-29.026 28.123c-1.253 1.717-1.927 3.789-1.922 5.916l.035 16.505-15.686-5.134c-1.01-.331-2.061-.496-3.11-.496s-2.1.165-3.11.496l-15.686 5.134.035-16.505c.004-2.127-.669-4.199-1.922-5.916l-9.729-13.332 15.707-5.066c2.024-.653 3.787-1.934 5.033-3.657l9.673-13.373 9.673 13.373c1.246 1.724 3.009 3.004 5.033 3.657l15.707 5.066z"/><path d="m86.671 235.402.16 29.962c-.867 13.032 5.809 25.649 17.099 32.239l28.047 16.393 16.395 28.051c6.136 10.489 17.545 17.035 29.762 17.083l32.436.173 27.858 15.886c5.402 3.181 11.48 4.774 17.562 4.774 5.896 0 11.796-1.498 17.087-4.502l28.336-16.158 29.961-.16c13.034.873 25.649-5.808 32.239-17.099l16.394-28.047 28.051-16.396c10.488-6.135 17.034-17.544 17.083-29.762l.172-32.436 15.885-27.855c6.265-10.639 6.376-23.901.274-34.652l-16.159-28.336-.159-29.961c.867-13.032-5.809-25.648-17.099-32.24l-28.048-16.393-16.396-28.051c-6.136-10.489-17.545-17.035-29.761-17.083l-32.438-.173-27.86-15.888c-10.639-6.261-23.898-6.371-34.647-.271l-28.334 16.16-29.961.16c-13.034-.877-25.649 5.808-32.24 17.099l-16.393 28.047-28.052 16.396c-10.489 6.136-17.035 17.546-17.082 29.761l-.172 32.437-15.887 27.86c-6.261 10.639-6.372 23.899-.271 34.648zm1.368-52.871c.028-.047.055-.095.083-.142l17.222-30.2c.852-1.494 1.304-3.182 1.313-4.901l.187-35.072c.02-5.187 2.772-10.012 7.178-12.589l30.313-17.717c1.484-.868 2.72-2.104 3.588-3.588l17.718-30.316c2.625-4.497 7.51-7.262 12.675-7.262.384 0 .77.015 1.156.046.284.023.569.031.854.032l32.975-.176c1.719-.009 3.407-.462 4.901-1.313l30.594-17.447c4.537-2.577 10.151-2.52 14.647.144.047.027.095.056.142.082l30.199 17.222c1.494.852 3.182 1.305 4.901 1.313l35.073.187c5.187.021 10.011 2.771 12.588 7.178l17.717 30.312c.868 1.484 2.104 2.72 3.588 3.588l30.316 17.718c4.832 2.821 7.664 8.251 7.217 13.833-.023.284-.033.568-.032.853l.175 32.975c.009 1.72.462 3.407 1.313 4.901l17.448 30.596c2.575 4.537 2.521 10.149-.144 14.646-.027.047-.055.095-.082.142l-17.223 30.2c-.852 1.494-1.305 3.182-1.313 4.901l-.186 35.071c-.021 5.188-2.772 10.012-7.178 12.589l-30.312 17.717c-1.484.868-2.72 2.104-3.588 3.588l-17.72 30.317c-2.819 4.83-8.269 7.667-13.831 7.215-.284-.022-.57-.031-.854-.032l-32.974.176c-1.719.01-3.406.462-4.9 1.313l-30.597 17.448c-4.536 2.573-10.147 2.521-14.646-.145-.047-.027-.094-.055-.142-.082l-30.2-17.222c-1.494-.852-3.181-1.304-4.9-1.313l-35.073-.187c-5.187-.021-10.011-2.771-12.589-7.178l-17.717-30.312c-.867-1.484-2.103-2.72-3.587-3.588l-30.316-17.719c-4.832-2.819-7.664-8.249-7.216-13.832.023-.283.034-.568.032-.854l-.176-32.975c-.009-1.719-.461-3.406-1.313-4.9l-17.447-30.594c-2.575-4.537-2.52-10.149.143-14.647z"/><path d="m131.607 223.361.174 32.713c.019 3.535 1.902 6.797 4.954 8.581l28.138 16.445 16.446 28.138c1.783 3.052 5.045 4.936 8.58 4.954l32.711.174 28.427 16.211c1.535.876 3.245 1.313 4.954 1.313s3.418-.438 4.954-1.313l28.428-16.211 32.712-.174c3.535-.019 6.797-1.902 8.581-4.954l16.444-28.138 28.138-16.445c3.052-1.784 4.936-5.046 4.954-8.58l.175-32.712 16.21-28.427c1.751-3.071 1.751-6.837 0-9.908l-16.21-28.427-.175-32.713c-.019-3.534-1.902-6.796-4.954-8.58l-28.137-16.445-16.446-28.139c-1.784-3.052-5.046-4.936-8.581-4.954l-32.711-.174-28.428-16.21c-3.07-1.752-6.836-1.752-9.908 0l-28.425 16.21-32.713.174c-3.535.019-6.797 1.902-8.581 4.954l-16.445 28.138-28.138 16.445c-3.052 1.784-4.935 5.046-4.954 8.581l-.174 32.711-16.211 28.428c-1.751 3.071-1.751 6.838 0 9.908zm18.673-59.132c.852-1.494 1.304-3.182 1.313-4.901l.158-29.631 25.479-14.891c1.484-.868 2.72-2.104 3.588-3.588l14.891-25.479 29.633-.157c1.719-.009 3.407-.462 4.901-1.313l25.75-14.685 25.751 14.685c1.494.852 3.182 1.305 4.901 1.313l29.631.157 14.892 25.479c.868 1.484 2.104 2.72 3.588 3.588l25.478 14.891.158 29.633c.01 1.719.462 3.406 1.313 4.9l14.685 25.751-14.685 25.751c-.852 1.494-1.304 3.182-1.313 4.9l-.158 29.632-25.479 14.891c-1.484.868-2.72 2.104-3.588 3.588l-14.891 25.479-29.632.157c-1.72.009-3.407.462-4.901 1.313l-25.751 14.686-25.751-14.686c-1.494-.852-3.182-1.305-4.901-1.313l-29.631-.157-14.892-25.479c-.867-1.484-2.103-2.72-3.587-3.588l-25.478-14.891-.158-29.633c-.009-1.72-.461-3.407-1.313-4.901l-14.685-25.75z"/><path d="m202.705 200.607v56.618c0 2.652 1.054 5.195 2.929 7.071 1.875 1.875 4.419 2.929 7.071 2.929h86.573c5.522 0 10-4.478 10-10v-56.618c14.426-5.888 24.213-19.976 24.213-36.167 0-21.221-16.998-38.545-38.094-39.07-7.222-14.837-22.415-24.632-39.406-24.632-16.992 0-32.185 9.795-39.406 24.632-21.096.525-38.094 17.85-38.094 39.07.001 16.191 9.788 30.279 24.214 36.167zm20 46.618v-20h66.573v20zm-5.13-101.868c1.264 0 2.529.124 3.76.37 5.188 1.033 10.278-2.148 11.625-7.261 2.749-10.438 12.22-17.729 23.032-17.729s20.283 7.29 23.033 17.729c1.347 5.112 6.435 8.293 11.624 7.261 1.231-.246 2.496-.37 3.76-.37 10.522 0 19.083 8.561 19.083 19.083 0 9.351-6.677 17.263-15.876 18.814-4.812.812-8.337 4.979-8.337 9.86v14.11h-66.573v-14.11c0-4.881-3.524-9.049-8.337-9.86-9.199-1.552-15.876-9.464-15.876-18.814-.001-10.523 8.559-19.083 19.082-19.083z"/><path d="m437.095 399.344-25.75-8.306-15.857-21.923c-1.88-2.6-4.894-4.14-8.103-4.14s-6.223 1.54-8.103 4.14l-15.857 21.923-25.75 8.306c-3.054.985-5.449 3.376-6.441 6.428-.991 3.051-.458 6.393 1.433 8.984l15.951 21.856-.058 27.058c-.007 3.209 1.526 6.226 4.122 8.111 2.595 1.886 5.938 2.412 8.988 1.414l25.715-8.416 25.715 8.416c1.017.333 2.066.496 3.109.496 2.086 0 4.148-.652 5.879-1.91 2.596-1.886 4.129-4.902 4.122-8.11l-.057-27.058 15.95-21.857c1.891-2.592 2.424-5.934 1.433-8.985-.992-3.051-3.388-5.442-6.441-6.427zm-29.027 28.123c-1.253 1.717-1.927 3.789-1.922 5.915l.034 16.506-15.686-5.134c-1.011-.331-2.061-.496-3.11-.496s-2.1.165-3.11.496l-15.686 5.133.035-16.504c.005-2.127-.669-4.199-1.922-5.916l-9.73-13.332 15.707-5.066c2.024-.653 3.787-1.934 5.033-3.657l9.673-13.373 9.673 13.373c1.246 1.724 3.009 3.004 5.033 3.657l15.707 5.066z"/></g><g/><g/><g/><g/><g/><g/><g/><g/><g/><g/><g/><g/><g/><g/><g/></svg>