<svg id="Capa_1" enable-background="new 0 0 512.002 512.002" viewBox="0 0 512.002 512.002" xmlns="http://www.w3.org/2000/svg"><g><path d="m502.001 43.112h-52.147v-13.112c0-16.542-13.458-30-30-30s-30 13.458-30 30v13.112h-21.927v-13.112c0-16.542-13.458-30-30-30-16.541 0-29.999 13.458-29.999 30v13.112h-21.927v-13.112c0-16.542-13.458-30-30-30s-30 13.458-30 30v13.112h-21.926v-13.112c0-16.542-13.458-30-30-30s-30 13.458-30 30v13.112h-21.926v-13.112c0-16.542-13.458-30-30-30s-30 13.458-30 30v13.112h-52.148c-5.522 0-10 4.478-10 10v448.89c0 5.522 4.478 10 10 10h492c5.522 0 10-4.478 10-10v-448.89c0-5.522-4.478-10-10-10zm-92.147-13.112c0-5.514 4.486-10 10-10s10 4.486 10 10v13.112h-20zm-81.926 0c0-5.514 4.485-10 9.999-10s10 4.486 10 10v13.112h-19.999zm-81.927 0c0-5.514 4.486-10 10-10s10 4.486 10 10v13.112h-20zm-81.926 0c0-5.514 4.486-10 10-10s10 4.486 10 10v13.112h-20zm-81.926 0c0-5.514 4.486-10 10-10s10 4.486 10 10v13.112h-20zm-20 33.112v13.111c0 16.543 13.458 30.001 30 30.001 5.522 0 10-4.478 10-10s-4.478-10-10-10c-5.514 0-10-4.486-10-10.001v-13.111h61.926v13.111c0 16.543 13.458 30.001 30 30.001 5.522 0 10-4.478 10-10s-4.478-10-10-10c-5.514 0-10-4.486-10-10.001v-13.111h61.926v13.111c0 16.543 13.458 30.001 30 30.001 5.522 0 10-4.478 10-10s-4.478-10-10-10c-5.514 0-10-4.486-10-10.001v-13.111h61.927v13.111c0 16.543 13.458 30.001 29.999 30.001 5.522 0 10-4.478 10-10s-4.478-10-10-10c-5.514 0-9.999-4.486-9.999-10.001v-13.111h61.926v13.111c0 16.543 13.458 30.001 30 30.001 5.522 0 10-4.478 10-10s-4.478-10-10-10c-5.514 0-10-4.486-10-10.001v-13.111h82.147v63.112h-472v-63.112zm-42.148 428.89v-345.777h472v345.777z"/><path d="m444.903 395.098h-9.178c-2.461-44.892-21.326-86.708-53.561-118.385-27.158-26.689-61.346-43.762-98.31-49.481 2.015-4.109 3.147-8.726 3.147-13.603 0-17.094-13.906-31-31-31s-31.001 13.906-31.001 31c0 4.877 1.133 9.494 3.148 13.603-36.964 5.719-71.153 22.792-98.311 49.481-32.235 31.677-51.099 73.492-53.561 118.385h-9.177c-5.522 0-10 4.478-10 10 0 27.846 22.654 50.5 50.499 50.5h296.804c27.846 0 50.5-22.654 50.5-50.5.001-5.523-4.476-10-9.999-10zm-188.901-192.469c6.065 0 11 4.935 11 11s-4.935 11-11 11c-6.066 0-11.001-4.935-11.001-11s4.935-11 11.001-11zm0 42.469c84.281 0 154.45 66.648 159.686 150h-319.373c5.236-83.353 75.405-150 159.687-150zm148.401 190.5h-296.803c-13.316 0-24.667-8.579-28.815-20.5h354.435c-4.15 11.921-15.5 20.5-28.817 20.5z"/><path d="m188.501 288.184c-20.495 11.834-37.582 28.921-49.413 49.414-2.762 4.783-1.123 10.899 3.66 13.66 1.575.909 3.294 1.342 4.99 1.342 3.456 0 6.818-1.794 8.67-5.002 10.078-17.457 24.634-32.013 42.093-42.094 4.783-2.762 6.422-8.878 3.66-13.66-2.761-4.782-8.877-6.421-13.66-3.66z"/></g><g/><g/><g/><g/><g/><g/><g/><g/><g/><g/><g/><g/><g/><g/><g/></svg>