<svg id="Capa_1" enable-background="new 0 0 512.002 512.002" viewBox="0 0 512.002 512.002" xmlns="http://www.w3.org/2000/svg"><g><path d="m511.659 153.933c-5.514-20.506-21.668-36.655-42.157-42.146-11.705-3.137-24.087-2.576-35.38 1.421-5.85-19.323-19.835-37.718-40.297-52.404-22.121-15.877-62.497-34.803-129.222-34.803s-107.1 18.926-129.222 34.803c-27.567 19.786-43.379 46.305-43.379 72.757 0 9.128 2.703 16.418 8.038 21.702-5.338 11.322-8.038 23.13-8.038 35.211 0 14.977 3.06 28.45 9.114 40.211-26.293 6.967-45.027 17.095-57.736 26.216-27.568 19.786-43.38 46.306-43.38 72.757 0 9.128 2.703 16.419 8.038 21.702-5.338 11.323-8.038 23.13-8.038 35.211 0 33.345 14.9 58.682 44.286 75.308 28.689 16.231 70.662 24.122 128.315 24.122 51.93 0 90.42-5.691 117.672-17.4 24.593-10.566 41.059-26.68 49.104-48.005 2.346.969 4.767 1.794 7.252 2.463.858.23 1.73.343 2.596.343 2.621 0 5.178-1.031 7.078-2.935 11.719-11.739 17.729-27.041 17.346-43.361 16.09.278 31.848-5.853 43.416-17.401 2.532-2.528 3.521-6.218 2.592-9.674-5.514-20.506-21.668-36.655-42.158-42.146-11.702-3.135-24.084-2.574-35.378 1.422-2.431-8.031-6.268-15.9-11.39-23.411 27.623-3.899 49.232-10.688 65.73-20.612 16.823-10.12 28.527-23.803 34.921-40.784 2.345.969 4.765 1.793 7.249 2.461.858.23 1.73.343 2.596.343 2.621 0 5.178-1.031 7.078-2.935 11.719-11.738 17.729-27.041 17.346-43.361 16.041.286 31.848-5.852 43.417-17.401 2.532-2.528 3.52-6.218 2.591-9.674zm-94.455-20.372c0 5.686-1.757 7.205-2.419 7.777-4.023 3.481-13.655 3.927-26.088 2.957 7.931-18.171 5.465-42.317-.051-62.221 18.014 15.055 28.558 33.87 28.558 51.487zm-255.08 8.251c-13.631-17.011-4.143-58.063 6.552-77.315 8.528-3.988 18.586-7.738 30.361-10.805-10.857 37.719-9.492 65.001-4.778 83.53-6.414.875-12.55 1.77-18.355 2.616-4.664.68-9.284 1.354-13.78 1.974zm52.173-7.086c-4.959-17.08-6.601-44.528 7.102-85.61 10.075-1.544 21.119-2.588 33.205-2.962v85.673c-13.975.374-27.523 1.485-40.307 2.899zm60.307-88.571c12.084.374 23.127 1.418 33.202 2.961 13.7 41.116 12.053 68.557 7.104 85.61-12.784-1.415-26.332-2.525-40.306-2.899zm55.577 7.54c11.77 3.066 21.823 6.814 30.348 10.801 10.681 19.236 20.16 60.319 6.553 77.316-4.495-.62-9.116-1.294-13.78-1.974-5.793-.845-11.917-1.738-18.317-2.611 6.097-23.457 4.487-51.451-4.804-83.532zm-189.638 28.393c-5.523 19.905-7.988 44.036-.042 62.208-12.429.969-22.057.522-26.08-2.957-.662-.572-2.419-2.092-2.419-7.777 0-17.612 10.538-36.422 28.541-51.474zm184.66 247.57c0 5.686-1.757 7.205-2.419 7.777-4.024 3.48-13.656 3.927-26.089 2.957 7.932-18.172 5.466-42.317-.051-62.222 18.014 15.055 28.559 33.871 28.559 51.488zm-56.677-69.065c10.682 19.234 20.162 60.319 6.554 77.316-4.495-.62-9.115-1.294-13.779-1.974-5.794-.845-11.918-1.738-18.318-2.611 6.097-23.457 4.487-51.451-4.804-83.532 11.769 3.066 21.822 6.814 30.347 10.801zm-52.722-15.38c13.701 41.117 12.054 68.557 7.104 85.61-12.784-1.415-26.332-2.525-40.306-2.899v-85.673c12.084.374 23.127 1.418 33.202 2.962zm-53.202 82.711c-13.974.374-27.522 1.484-40.306 2.899-4.96-17.081-6.601-44.528 7.102-85.61 10.075-1.544 21.119-2.588 33.204-2.962zm-92.479 9.985c-13.633-17.01-4.145-58.063 6.553-77.316 8.528-3.988 18.585-7.738 30.361-10.804-10.857 37.718-9.492 65-4.777 83.53-6.414.875-12.551 1.77-18.356 2.616-4.666.68-9.286 1.354-13.781 1.974zm-21.581-59.725c-5.524 19.905-7.988 44.036-.042 62.208-12.428.97-22.056.522-26.08-2.957-.662-.572-2.419-2.092-2.419-7.777-.001-17.612 10.537-36.421 28.541-51.474zm124.06 187.817c-152.602 0-152.602-59.785-152.602-79.43 0-9.1 2.067-18.065 6.155-26.733 3.887.663 8.145.953 12.764.953 13.135-.001 29.182-2.34 47.869-5.065 25.513-3.72 54.429-7.937 85.813-7.937s60.301 4.217 85.813 7.937c16.991 2.478 31.797 4.637 44.218 5.009-.535 6.741.08 13.562 1.85 20.165 3 11.196 9.182 21.097 17.518 28.676-11.822 38.965-58.341 56.425-149.398 56.425zm199.721-138.798c11.645 3.12 21.184 11.424 25.994 22.291-9.58 6.978-22.007 9.397-33.694 6.303-3.41-.9-7.038.058-9.556 2.522-2.519 2.466-3.553 6.075-2.723 9.5 3.047 12.569.834 24.399-6.22 33.913-10.883-4.807-19.2-14.353-22.323-26.01-1.469-5.48-1.743-11.181-.827-16.718 5.029-1.296 9.336-3.367 12.891-6.441 6.195-5.357 9.337-13.063 9.337-22.905 0-.013 0-.027 0-.04 8.457-4.009 17.929-4.878 27.121-2.415zm13.828-79.058c-16.57 9.967-39.88 16.357-71.192 19.505-4.019-3.759-8.404-7.353-13.136-10.749-22.121-15.877-62.497-34.803-129.222-34.803-19.092 0-36.026 1.55-50.993 4.134-6.458-9.986-9.606-21.727-9.606-35.758 0-9.1 2.067-18.064 6.154-26.733 14.943 2.551 35.374-.428 60.634-4.113 25.513-3.72 54.429-7.937 85.813-7.937s60.301 4.217 85.812 7.937c16.993 2.478 31.797 4.637 44.219 5.009-.535 6.74.08 13.561 1.85 20.165 3 11.199 9.185 21.102 17.524 28.681-4.424 14.698-13.581 26.075-27.857 34.662zm70.472-88.445c-3.404-.9-7.037.057-9.555 2.522-2.519 2.466-3.553 6.075-2.723 9.5 3.047 12.569.835 24.4-6.22 33.914-10.882-4.808-19.2-14.354-22.323-26.01-1.469-5.482-1.742-11.184-.826-16.72 5.029-1.296 9.336-3.367 12.89-6.441 6.195-5.357 9.337-13.063 9.337-22.905 0-.013 0-.026 0-.04 8.457-4.009 17.929-4.877 27.121-2.416 11.645 3.12 21.183 11.424 25.994 22.291-9.58 6.981-22.002 9.401-33.695 6.305z"/><path d="m81.451 381.364c-3.906-3.904-10.236-3.904-14.143 0-3.905 3.905-3.905 10.237 0 14.143l7.071 7.071c1.953 1.952 4.512 2.929 7.071 2.929s5.118-.977 7.071-2.929c3.905-3.905 3.905-10.237 0-14.143z"/><path d="m138.781 417.846-8.66 5c-4.783 2.762-6.422 8.877-3.66 13.66 1.853 3.208 5.213 5.002 8.67 5.002 1.696 0 3.416-.433 4.99-1.342l8.66-5c4.783-2.762 6.422-8.877 3.66-13.66-2.76-4.781-8.877-6.421-13.66-3.66z"/><path d="m202.067 381.339c-1.43-5.334-6.907-8.501-12.247-7.071-5.335 1.429-8.501 6.912-7.071 12.247l2.588 9.659c1.197 4.468 5.237 7.415 9.653 7.415.856 0 1.727-.111 2.594-.344 5.335-1.429 8.501-6.912 7.071-12.247z"/><path d="m270.781 409.346-8.66-5c-4.785-2.762-10.898-1.122-13.66 3.66-2.762 4.783-1.123 10.898 3.66 13.66l8.66 5c1.575.909 3.294 1.342 4.99 1.342 3.456 0 6.817-1.794 8.67-5.002 2.762-4.783 1.123-10.898-3.66-13.66z"/><path d="m276.453 184.598-8.66 5c-4.783 2.762-6.422 8.877-3.66 13.66 1.853 3.208 5.213 5.002 8.67 5.002 1.696 0 3.416-.433 4.99-1.342l8.66-5c4.783-2.762 6.422-8.877 3.66-13.66-2.76-4.781-8.877-6.421-13.66-3.66z"/><path d="m363.371 210.893-9.659-2.588c-5.338-1.429-10.817 1.737-12.247 7.071-1.43 5.335 1.736 10.818 7.071 12.247l9.659 2.588c.867.232 1.737.344 2.594.344 4.415 0 8.456-2.947 9.653-7.415 1.43-5.335-1.736-10.818-7.071-12.247z"/><path d="m180.365 179.511-9.659 2.588c-5.335 1.429-8.501 6.912-7.071 12.247 1.197 4.468 5.237 7.415 9.653 7.415.856 0 1.727-.111 2.594-.344l9.659-2.588c5.335-1.429 8.501-6.912 7.071-12.247-1.429-5.333-6.909-8.5-12.247-7.071z"/></g><g/><g/><g/><g/><g/><g/><g/><g/><g/><g/><g/><g/><g/><g/><g/></svg>