<svg id="Capa_1" enable-background="new 0 0 512.003 512.003" viewBox="0 0 512.003 512.003" xmlns="http://www.w3.org/2000/svg"><g><path d="m392.234 247.873c8.392-28.698 2.708-56.232-14.739-75.846l40.536-64.278c5.528-8.767 7.17-19.272 4.622-29.582-2.636-10.665-9.583-19.921-19.061-25.393-9.472-5.468-20.972-6.85-31.553-3.793-10.186 2.943-18.452 9.612-23.276 18.776l-8.325 15.814c-5.569-5.674-12.636-10.882-21.581-15.204-.291-6.314-1.694-15.773-6.606-25.904-7.551-15.573-25.076-35.559-65.688-42.327-4.219-.703-8.41 1.351-10.441 5.109-6.264 11.588-17.408 21.021-28.185 30.144-20.13 17.04-42.727 36.168-33.704 70.795-6.221 2.941-14.391 7.896-21.877 15.879-12.38 13.201-25.255 37.352-18.534 78.38-3.19 2.539-7.039 6.241-10.353 11.244-5.169 7.804-9.791 19.939-6.223 36.353-16.312 1.722-29.065 15.559-29.065 32.319 0 14.734 9.856 27.209 23.321 31.18l19.229 191.463c.513 5.11 4.814 9.001 9.95 9.001h230.633c5.136 0 9.437-3.891 9.95-9.001l19.229-191.463c13.465-3.97 23.321-16.446 23.321-31.18-.001-17.612-14.084-31.997-31.58-32.486zm-254.344-.014c-3.023-9.459-2.4-17.696 1.871-24.536 3.888-6.228 9.52-9.312 9.603-9.359.002-.001.003-.001.005-.002.131-.063.26-.129.386-.198 13.21-6.656 38.421-6.748 65.1-6.844 45.145-.165 100.727-.369 133.845-32.907 28.372 16.601 32.036 47.614 22.469 73.847h-233.279zm228.569-170.785c2.267-4.307 6.22-7.46 11.132-8.879 5.381-1.557 11.214-.863 16 1.899 4.792 2.767 8.308 7.458 9.646 12.871 1.23 4.979.477 9.992-2.123 14.115l-38.956 61.772c-1.294-.848-2.622-1.666-3.985-2.453 1.478-7.183 2.938-18.235 1.611-30.43-.801-7.355-2.674-15.637-6.506-23.859zm-145.602-26.42c10.38-8.786 21.061-17.828 28.979-29.521 21.786 4.832 36.578 14.654 44.017 29.252 4.367 8.568 5.029 16.731 5.05 20.704-16.898 19.438-53.036 30.086-105.066 30.968-6.086-21.949 6.096-33.69 27.02-51.403zm-32.781 71.462c59.549-.177 100.975-11.973 123.345-35.092 37.763 19.432 28.688 60.619 26.149 69.691-26.592 29.852-77.652 30.039-122.786 30.204-24.029.088-45.49.167-62.035 4.552-6.343-53.97 28.883-67.37 35.327-69.355zm183.247 279.712c-1.891-1.373-3.79-3.405-6.256-6.12-5.69-6.266-13.484-14.848-27.736-14.848s-22.046 8.582-27.736 14.848c-5.087 5.602-7.762 8.294-12.931 8.294s-7.844-2.692-12.931-8.294c-5.69-6.266-13.484-14.848-27.736-14.848s-22.045 8.582-27.736 14.848c-5.087 5.602-7.762 8.294-12.931 8.294s-7.843-2.692-12.93-8.294c-5.69-6.266-13.484-14.848-27.736-14.848s-22.046 8.582-27.736 14.848c-2.466 2.715-4.365 4.747-6.256 6.12l-8.935-88.969h248.523zm-221.597 90.175-6.95-69.207c8.911-2.582 14.561-8.802 18.956-13.642 5.087-5.602 7.762-8.294 12.931-8.294s7.844 2.692 12.931 8.294c5.69 6.266 13.484 14.848 27.736 14.848s22.046-8.582 27.737-14.848c5.087-5.602 7.761-8.294 12.931-8.294 5.169 0 7.844 2.692 12.931 8.294 5.69 6.266 13.484 14.848 27.736 14.848s22.046-8.582 27.736-14.848c5.087-5.602 7.762-8.294 12.931-8.294s7.843 2.692 12.93 8.294c4.395 4.839 10.045 11.061 18.956 13.642l-6.95 69.207zm241.59-199.144c-.015 0-.031 0-.046 0h-270.59c-6.893 0-12.5-5.607-12.5-12.5s5.607-12.5 12.5-12.5h270.633c6.893 0 12.5 5.607 12.5 12.5 0 6.892-5.606 12.499-12.497 12.5z"/><path d="m246.21 76.969c5.523 0 10-4.478 10-10s-4.477-10-10-10h-.007c-5.523 0-9.997 4.478-9.997 10s4.481 10 10.004 10z"/><path d="m294.711 150.469c5.523 0 10-4.478 10-10s-4.477-10-10-10h-.007c-5.523 0-9.996 4.478-9.996 10s4.48 10 10.003 10z"/><path d="m202.718 165.969c5.523 0 10-4.478 10-10s-4.477-10-10-10h-.007c-5.523 0-9.997 4.478-9.997 10s4.481 10 10.004 10z"/><path d="m334.217 210.969h-.008c-5.523 0-9.996 4.478-9.996 10s4.481 10 10.004 10 10-4.478 10-10-4.477-10-10-10z"/></g><g/><g/><g/><g/><g/><g/><g/><g/><g/><g/><g/><g/><g/><g/><g/></svg>