<svg id="Capa_1" enable-background="new 0 0 512 512" viewBox="0 0 512 512" xmlns="http://www.w3.org/2000/svg"><g><path d="m270.519 172.854c5.706 3.305 12.043 4.994 18.465 4.994 3.194-.001 6.41-.418 9.579-1.263 9.54-2.542 17.519-8.647 22.467-17.191 4.948-8.543 6.273-18.502 3.731-28.043-2.542-9.54-8.648-17.519-17.197-22.47-6.393-3.697-13.098-6.65-19.99-8.861 14.164-9.96 23.438-26.427 23.438-45.02 0-30.327-24.673-55-55-55s-55 24.673-55 55c0 18.593 9.273 35.06 23.438 45.02-6.893 2.211-13.6 5.165-19.996 8.864-8.543 4.948-14.649 12.927-17.191 22.467-2.542 9.541-1.217 19.5 3.731 28.043 4.948 8.544 12.928 14.649 22.468 17.191 9.538 2.542 19.496 1.218 28.039-3.729 1.443-.833 2.954-1.528 4.511-2.089v22.957c-25.569 4.716-45 27.176-45 54.089 0 16.575 7.37 31.462 19.006 41.554-5.339 1.986-10.547 4.429-15.564 7.33-8.543 4.948-14.649 12.927-17.191 22.467s-1.217 19.5 3.731 28.043c4.948 8.544 12.928 14.649 22.468 17.191 3.169.845 6.383 1.262 9.578 1.262 6.42 0 12.756-1.688 18.46-4.99 1.443-.833 2.954-1.528 4.511-2.088v143.418c0 5.522 4.477 10 10 10s10-4.478 10-10v-143.422c1.557.56 3.067 1.256 4.507 2.089 8.544 4.949 18.504 6.275 28.043 3.731 9.54-2.542 17.519-8.647 22.467-17.191 4.948-8.543 6.273-18.503 3.731-28.043s-8.648-17.519-17.197-22.47c-5.014-2.9-10.22-5.342-15.557-7.327 11.635-10.092 19.005-24.978 19.005-41.553 0-26.913-19.431-49.373-45-54.089v-22.96c1.558.56 3.068 1.256 4.509 2.089zm-14.507-152.854c19.299 0 35 15.701 35 35s-15.701 35-35 35-35-15.701-35-35 15.701-35 35-35zm-24.519 135.54c-.004.002-.008.005-.012.007-3.92 2.271-8.492 2.877-12.869 1.713-4.378-1.167-8.04-3.969-10.311-7.89s-2.879-8.491-1.712-12.869 3.969-8.04 7.883-10.308c12.813-7.409 27.177-11.113 41.542-11.113 14.362 0 28.726 3.704 41.533 11.11 3.921 2.271 6.722 5.933 7.889 10.311s.559 8.948-1.712 12.869-5.933 6.723-10.311 7.89c-4.379 1.164-8.949.558-12.875-1.717-14.888-8.607-34.139-8.608-49.045-.003zm73.942 168.774c1.167 4.378.559 8.948-1.712 12.869s-5.933 6.723-10.311 7.89c-4.379 1.163-8.949.558-12.875-1.717-14.887-8.607-34.138-8.608-49.044-.003-.004.002-.008.005-.012.007-3.92 2.271-8.492 2.877-12.869 1.713-4.378-1.167-8.04-3.969-10.311-7.89s-2.879-8.491-1.712-12.869 3.969-8.04 7.883-10.307c12.813-7.41 27.177-11.114 41.542-11.114 14.362 0 28.726 3.704 41.533 11.11 3.92 2.271 6.721 5.934 7.888 10.311zm-14.423-76.501c0 19.299-15.701 35-35 35s-35-15.701-35-35 15.701-35 35-35 35 15.702 35 35z"/><path d="m467.564 296.694c-5.014-2.9-10.221-5.342-15.558-7.327 11.635-10.092 19.006-24.979 19.006-41.554 0-26.913-19.431-49.373-45-54.089v-22.96c1.557.56 3.067 1.256 4.507 2.089 5.706 3.305 12.043 4.994 18.465 4.994 3.194-.001 6.41-.418 9.579-1.263 9.54-2.542 17.52-8.647 22.468-17.191 10.215-17.637 4.177-40.296-13.465-50.513-6.393-3.697-13.099-6.65-19.99-8.861 14.164-9.96 23.438-26.427 23.438-45.02 0-30.327-24.673-55-55-55s-55 24.673-55 55c0 18.593 9.273 35.06 23.438 45.02-6.893 2.211-13.601 5.165-19.996 8.864-8.543 4.948-14.648 12.927-17.191 22.467-2.542 9.541-1.217 19.5 3.731 28.043 4.948 8.544 12.927 14.649 22.467 17.191 9.541 2.543 19.5 1.218 28.043-3.731 1.441-.831 2.951-1.526 4.507-2.085v22.957c-25.569 4.716-45 27.176-45 54.089 0 16.575 7.37 31.462 19.006 41.554-5.339 1.986-10.548 4.429-15.564 7.33-8.543 4.948-14.648 12.927-17.191 22.467-2.542 9.541-1.217 19.5 3.731 28.043 4.948 8.544 12.927 14.649 22.467 17.191 9.541 2.543 19.5 1.219 28.043-3.731 1.441-.831 2.951-1.526 4.507-2.085v143.417c0 5.522 4.477 10 10 10s10-4.478 10-10v-143.422c1.557.56 3.067 1.256 4.507 2.089 5.706 3.305 12.043 4.994 18.465 4.993 3.194 0 6.41-.417 9.579-1.262 9.54-2.542 17.52-8.647 22.468-17.191 10.213-17.637 4.175-40.296-13.467-50.513zm-51.552-276.694c19.299 0 35 15.701 35 35s-15.701 35-35 35-35-15.701-35-35 15.701-35 35-35zm-24.52 135.54c-.004.002-.008.005-.012.007-3.92 2.271-8.489 2.877-12.869 1.713-4.378-1.167-8.04-3.969-10.311-7.89s-2.879-8.491-1.712-12.869 3.968-8.04 7.883-10.307c12.813-7.41 27.177-11.114 41.542-11.114 14.362 0 28.726 3.704 41.533 11.11 3.92 2.271 6.722 5.933 7.889 10.311s.559 8.948-1.712 12.869-5.933 6.723-10.311 7.89c-4.379 1.164-8.948.558-12.875-1.717-14.887-8.607-34.138-8.608-49.045-.003zm24.52 57.273c19.299 0 35 15.701 35 35s-15.701 35-35 35-35-15.701-35-35 15.701-35 35-35zm47.711 124.371c-2.271 3.921-5.933 6.723-10.311 7.89-4.379 1.163-8.948.558-12.875-1.717-14.886-8.607-34.137-8.608-49.044-.003-.004.002-.008.005-.012.007-3.92 2.271-8.49 2.878-12.869 1.713-4.378-1.167-8.04-3.969-10.311-7.89s-2.879-8.491-1.712-12.869 3.968-8.04 7.883-10.307c12.813-7.41 27.177-11.114 41.542-11.114 14.362 0 28.726 3.704 41.533 11.11 8.092 4.687 10.863 15.086 6.176 23.18z"/><path d="m110.519 172.854c5.706 3.305 12.043 4.994 18.465 4.994 3.194-.001 6.41-.418 9.579-1.263 9.54-2.542 17.519-8.647 22.467-17.191 4.948-8.543 6.273-18.502 3.731-28.042-2.542-9.541-8.647-17.52-17.196-22.471-6.393-3.697-13.099-6.65-19.99-8.861 14.164-9.96 23.438-26.427 23.438-45.02 0-30.327-24.673-55-55-55s-55 24.673-55 55c0 18.593 9.273 35.06 23.438 45.02-6.893 2.211-13.601 5.165-19.996 8.864-8.543 4.948-14.649 12.927-17.191 22.468-2.542 9.54-1.217 19.499 3.731 28.042 4.948 8.544 12.927 14.649 22.467 17.191 9.541 2.543 19.5 1.218 28.043-3.731 1.441-.831 2.951-1.526 4.507-2.085v22.957c-25.569 4.716-45 27.176-45 54.089 0 16.575 7.37 31.462 19.006 41.554-5.339 1.986-10.548 4.429-15.564 7.33-8.543 4.948-14.649 12.927-17.191 22.468-2.542 9.54-1.217 19.499 3.731 28.042 4.948 8.544 12.927 14.649 22.467 17.191 9.541 2.543 19.5 1.219 28.043-3.731 1.441-.831 2.951-1.526 4.507-2.085v143.416c0 5.522 4.477 10 10 10s10-4.478 10-10v-143.422c1.557.56 3.067 1.256 4.507 2.089 5.706 3.305 12.043 4.994 18.465 4.993 3.194 0 6.41-.417 9.579-1.262 9.54-2.542 17.519-8.647 22.467-17.191 4.948-8.543 6.273-18.502 3.731-28.042-2.542-9.541-8.647-17.52-17.196-22.471-5.014-2.9-10.221-5.342-15.558-7.327 11.635-10.092 19.006-24.979 19.006-41.554 0-26.913-19.431-49.373-45-54.089v-22.96c1.556.561 3.066 1.257 4.507 2.09zm-14.507-152.854c19.299 0 35 15.701 35 35s-15.701 35-35 35-35-15.701-35-35 15.701-35 35-35zm-24.519 135.54c-.004.002-.008.005-.012.007-3.92 2.271-8.489 2.877-12.869 1.713-4.378-1.167-8.04-3.969-10.311-7.89s-2.879-8.491-1.712-12.869 3.968-8.04 7.883-10.307c12.813-7.41 27.177-11.114 41.542-11.114 14.362 0 28.726 3.704 41.533 11.11 3.92 2.271 6.722 5.933 7.889 10.311s.559 8.948-1.712 12.869-5.933 6.723-10.311 7.89c-4.379 1.164-8.949.558-12.875-1.717-14.888-8.607-34.139-8.608-49.045-.003zm73.942 168.774c1.167 4.378.559 8.948-1.712 12.869s-5.933 6.723-10.311 7.89c-4.379 1.163-8.949.558-12.875-1.717-14.887-8.607-34.138-8.608-49.044-.003-.004.002-.008.005-.012.007-3.92 2.271-8.49 2.878-12.869 1.713-4.378-1.167-8.04-3.969-10.311-7.89s-2.879-8.491-1.712-12.869 3.968-8.04 7.883-10.307c12.813-7.41 27.177-11.114 41.542-11.114 14.362 0 28.726 3.704 41.533 11.11 3.92 2.271 6.722 5.934 7.888 10.311zm-14.423-76.501c0 19.299-15.701 35-35 35s-35-15.701-35-35 15.701-35 35-35 35 15.702 35 35z"/></g><g/><g/><g/><g/><g/><g/><g/><g/><g/><g/><g/><g/><g/><g/><g/></svg>