<svg id="Capa_1" enable-background="new 0 0 512.001 512.001" viewBox="0 0 512.001 512.001" xmlns="http://www.w3.org/2000/svg"><g><path d="m502.001 421h-31.881l-49.367-217.532c-5.829-25.684-25.357-42.279-49.752-42.279h-46.712c5.699-7.293 9.212-17.271 9.212-30.922 0-20.64-8.188-46.137-21.371-66.54-15.718-24.328-35.651-37.727-56.13-37.727-20.478 0-40.411 13.398-56.129 37.727-13.182 20.403-21.371 45.9-21.371 66.54 0 13.651 3.513 23.629 9.212 30.922h-46.712c-24.394 0-43.923 16.596-49.752 42.279l-49.367 217.532h-31.881c-5.523 0-10 4.478-10 10 0 30.327 24.673 55 55 55h402.002c30.326 0 54.999-24.673 54.999-55 0-5.522-4.478-10-10-10zm-285.331-346.419c11.735-18.164 26.07-28.581 39.33-28.581s27.596 10.417 39.331 28.58c11.038 17.084 18.17 38.942 18.17 55.687 0 23.84-12.897 30.733-57.5 30.733s-57.5-6.894-57.5-30.733c-.001-16.744 7.131-38.601 18.169-55.686zm-105.918 133.313c1.422-6.265 7.805-26.705 30.248-26.705h230.001c22.443 0 28.826 20.44 30.248 26.705l10.315 45.453c-15.809 4.256-27.802 18.507-27.802 34.88v21.525c0 9.679-7.874 17.553-17.553 17.553-9.678 0-17.552-7.874-17.552-17.553v-10.762c0-19.607-17.197-36.173-37.553-36.173s-37.553 16.565-37.553 36.173v56.561c0 9.679-7.874 17.553-17.553 17.553-9.678 0-17.552-7.874-17.552-17.553v-96.678c0-19.607-17.197-36.172-37.553-36.172s-37.553 16.564-37.553 36.172v45.791c0 9.679-7.874 17.553-17.552 17.553s-17.552-7.874-17.552-17.553v-16.437c0-16.694-11.801-30.782-27.789-34.932zm-14.741 64.954c7.006 2.134 12.227 8.315 12.227 15.379v16.437c0 20.707 16.846 37.553 37.552 37.553s37.552-16.846 37.552-37.553v-45.791c0-8.766 8.038-16.172 17.553-16.172 9.351 0 17.553 7.557 17.553 16.172v96.678c0 20.707 16.846 37.553 37.552 37.553 20.707 0 37.553-16.846 37.553-37.553v-56.561c0-8.767 8.038-16.173 17.553-16.173s17.553 7.406 17.553 16.173v10.763c0 20.707 16.846 37.553 37.552 37.553 20.707 0 37.553-16.846 37.553-37.553v-21.525c0-7.064 5.221-13.245 12.227-15.379l33.621 148.151h-387.223zm360.991 193.152h-402.002c-15.825 0-29.231-10.559-33.544-25h469.091c-4.315 14.442-17.72 25-33.545 25z"/><path d="m229.119 121.522c.867.232 1.737.344 2.594.344 4.415 0 8.456-2.947 9.653-7.415l2.588-9.659c1.429-5.335-1.736-10.818-7.071-12.247-5.335-1.431-10.818 1.736-12.247 7.071l-2.588 9.659c-1.43 5.335 1.736 10.818 7.071 12.247z"/><path d="m270.636 121.702c1.197 4.468 5.238 7.414 9.653 7.414.856 0 1.728-.111 2.595-.344 5.335-1.43 8.5-6.913 7.07-12.248l-2.589-9.659c-1.43-5.334-6.909-8.499-12.248-7.07-5.335 1.43-8.5 6.913-7.07 12.248z"/></g><g/><g/><g/><g/><g/><g/><g/><g/><g/><g/><g/><g/><g/><g/><g/></svg>