<svg id="Capa_1" enable-background="new 0 0 512.004 512.004" viewBox="0 0 512.004 512.004" xmlns="http://www.w3.org/2000/svg"><g><path d="m446.756 372.192c-.059.014-.117.027-.177.041l-82.666 19.961c-1.43-6.062-4.743-11.463-9.579-15.504-5.761-4.815-13-7.098-20.379-6.41-4.87.45-21.312 2.272-38.721 4.202-16.546 1.833-33.654 3.729-38.341 4.162-9.665.894-23.068-1.119-37.251-3.253-24.633-3.704-52.55-7.9-80.656-1.566-33.438 7.537-58.984 28.234-78.097 63.274l-33.613 60.016c-2.699 4.818-.98 10.913 3.838 13.611 1.546.866 3.224 1.277 4.878 1.277 3.501 0 6.9-1.843 8.733-5.115l33.641-60.063c.019-.033.037-.067.056-.102 36.441-66.862 90.53-58.73 138.246-51.554 15.417 2.317 29.981 4.508 42.065 3.391 4.868-.45 21.304-2.271 38.704-4.2 16.553-1.834 33.669-3.731 38.357-4.164 2.032-.186 4.068.465 5.714 1.841 1.827 1.526 2.949 3.708 3.16 6.144.134 1.538.487 5.626-10.518 10.391-24.357 10.545-50.224 19.387-70.967 24.258-5.377 1.263-8.712 6.645-7.449 12.021s6.647 8.712 12.021 7.449c21.847-5.13 48.943-14.379 74.34-25.375 8.85-3.831 14.426-8.447 17.824-13.191l91.258-22.036c7.511-1.642 12.913.535 14.454 5.843 1.232 4.238-.449 9.571-6.975 11.95-7.227 2.532-24.455 9.584-46.252 18.506-28.881 11.821-64.824 26.534-93.442 37.265-34.928 13.097-44.797 14.665-81.2 12.931l-57.898-2.762c-3.613-.184-7.02 1.61-8.94 4.662l-10.436 16.584c-2.941 4.675-1.536 10.849 3.138 13.79 4.674 2.94 10.849 1.535 13.79-3.138l7.326-11.644 52.067 2.483c39.172 1.87 51.673-.12 89.175-14.181 28.897-10.835 64.994-25.609 93.997-37.481 20.729-8.484 38.632-15.812 45.333-18.156.033-.012.065-.023.098-.035 17.817-6.438 23.259-23.163 19.426-36.355-3.712-12.774-17.211-24.407-38.082-19.768z"/><path d="m502.002 269.674h-10.211c-2.512-60.037-27.368-116.064-70.375-158.327-37.491-36.842-85.2-59.71-136.617-65.94 1.948-4.118 3.039-8.719 3.039-13.57 0-17.555-14.281-31.837-31.836-31.837s-31.837 14.282-31.837 31.837c0 4.851 1.091 9.451 3.039 13.57-51.417 6.23-99.127 29.098-136.618 65.94-43.007 42.263-67.862 98.291-70.375 158.327h-10.21c-5.522 0-10 4.478-10 10 0 30.327 24.673 55 54.999 55h402.002c30.327 0 55-24.673 55-55 0-5.523-4.477-10-10-10zm-246-249.674c6.526 0 11.836 5.31 11.836 11.837s-5.31 11.837-11.836 11.837c-6.527 0-11.837-5.31-11.837-11.837s5.31-11.837 11.837-11.837zm-.001 43.674c114.958 0 210.468 91.846 215.769 206h-431.536c5.301-114.154 100.81-206 215.767-206zm201.001 251h-402.002c-15.825 0-29.23-10.559-33.544-25h469.091c-4.313 14.441-17.719 25-33.545 25z"/><path d="m160.501 114.263c-28.996 16.741-53.171 40.916-69.91 69.911-2.762 4.783-1.123 10.899 3.66 13.66 1.575.909 3.294 1.342 4.99 1.342 3.456 0 6.818-1.794 8.67-5.002 14.987-25.959 36.63-47.603 62.59-62.591 4.783-2.762 6.422-8.877 3.66-13.66-2.761-4.782-8.876-6.422-13.66-3.66z"/></g><g/><g/><g/><g/><g/><g/><g/><g/><g/><g/><g/><g/><g/><g/><g/></svg>