<svg id="Capa_1" enable-background="new 0 0 512 512" viewBox="0 0 512 512" xmlns="http://www.w3.org/2000/svg"><g><path d="m511.976 404.422-10.186-144.715c-.203-22.227-18.347-40.247-40.62-40.247h-44.806v-20.622c0-3.033-1.377-5.902-3.743-7.801-2.365-1.897-5.466-2.619-8.426-1.961l-3.764.836v-19.07c18.406-12.731 30.488-33.987 30.488-58.011v-66.538c.001-25.526-20.766-46.293-46.291-46.293h-120.978c-5.522 0-10 4.478-10 10v18.146c0 22.094 15.558 40.622 36.293 45.205v39.479c0 24.024 12.081 45.28 30.487 58.011v19.071l-3.764-.836c-2.96-.658-6.061.063-8.426 1.961-2.366 1.898-3.743 4.768-3.743 7.801v20.622h-49.913c-14.348.006-24.497 6.05-33.663 12.239l-30.165 20.372-26.168-60.651h69.975c5.522 0 10-4.478 10-10s-4.478-10-10-10h-.649c-2.34-26.516-13.914-51.104-33.078-69.937-18.694-18.371-42.739-29.425-68.554-31.699v-.646c0-5.522-4.478-10-10-10s-10 4.478-10 10v.646c-25.815 2.273-49.859 13.327-68.554 31.699-19.164 18.832-30.738 43.421-33.078 69.937h-.65c-5.522 0-10 4.478-10 10s4.478 10 10 10h67.286l50.849 132.43c.051.13.104.259.159.388 6.56 15.155 18.019 26.367 32.266 31.568 14.619 5.337 31.131 4.06 46.496-3.594l28.199-14.048v163.836c0 5.522 4.478 10 10 10s10-4.478 10-10v-179.99c0-3.463-1.792-6.68-4.736-8.503-2.945-1.823-6.622-1.992-9.723-.448l-42.658 21.251c-10.401 5.182-21.312 6.146-30.719 2.709-9.113-3.327-16.265-10.429-20.691-20.542l-48.017-125.057h44.096l34.366 79.653c1.18 2.733 3.516 4.799 6.373 5.636.922.27 1.867.402 2.808.402 1.974 0 3.927-.585 5.598-1.713l40.164-27.125c7.392-4.991 13.74-8.81 22.474-8.813h49.909v20.622c0 3.033 1.377 5.902 3.743 7.801 2.365 1.897 5.466 2.621 8.426 1.961l33.765-7.502v102.16h-28.621c-22.399 0-40.622 18.224-40.622 40.623s18.223 40.622 40.622 40.622h5.312v56.253c0 5.522 4.478 10 10 10h103.633c5.522 0 10-4.478 10-10v-56.254h20.622c22.399 0 40.623-18.223 40.623-40.622-.002-.234-.01-.469-.026-.702zm-389.694-315.076c47.062 0 86.476 36.11 91.527 82.074h-183.054c5.051-45.964 44.466-82.074 91.527-82.074zm204.84 336.4h-5.312c-11.371 0-20.622-9.251-20.622-20.622s9.251-20.623 20.622-20.623h5.312zm-53.472-397.6v-8.146h110.978c14.497 0 26.292 11.795 26.292 26.293v8.146h-110.977c-14.498 0-26.293-11.794-26.293-26.293zm36.293 84.685v-38.392h100.977v38.392c0 27.839-22.648 50.488-50.488 50.488-27.839 0-50.489-22.649-50.489-50.488zm30.488 67.599c6.343 1.88 13.056 2.89 20.001 2.89 6.944 0 13.657-1.01 20-2.89v13.927l-20 4.444-20.001-4.444zm-15.933 30.874 33.765 7.503c1.428.318 2.91.318 4.338 0l33.764-7.503v36.312l-33.764-7.503c-1.428-.318-2.91-.318-4.338 0l-33.765 7.503zm106.257 280.696h-83.633v-107.499h83.633zm40.622-66.254h-20.622v-109.522c0-5.522-4.478-10-10-10s-10 4.478-10 10v48.277h-60.323v-102.16l33.764 7.502c.719.16 1.445.238 2.169.238 2.254 0 4.466-.763 6.257-2.199 2.366-1.898 3.743-4.768 3.743-7.801v-20.621h44.806c11.371 0 20.622 9.251 20.622 20.623 0 .234.008.469.024.702l10.182 144.656c-.172 11.225-9.356 20.305-20.622 20.305z"/></g><g/><g/><g/><g/><g/><g/><g/><g/><g/><g/><g/><g/><g/><g/><g/></svg>