<svg id="Capa_1" enable-background="new 0 0 512.002 512.002" viewBox="0 0 512.002 512.002" xmlns="http://www.w3.org/2000/svg"><g><path d="m461.502 100.751h-133.402v-20.5h8c5.523 0 10-4.478 10-10s-4.477-10-10-10h-81c-5.523 0-10 4.478-10 10s4.477 10 10 10h8v20.5h-133.403c-27.846 0-50.5 22.654-50.5 50.5 0 5.522 4.477 10 10 10h12.698l3.886 68h-55.281c-27.846 0-50.5 22.653-50.5 50.499 0 5.522 4.477 10 10 10h12.699l8.718 152.571c.303 5.293 4.683 9.43 9.984 9.43h41c4.523 0 8.484-3.037 9.658-7.405l7.01-26.096h204.666l7.011 26.096c1.174 4.368 5.134 7.405 9.658 7.405h41c5.301 0 9.681-4.137 9.984-9.43l8.718-152.571h32.828l7.01 26.096c1.174 4.368 5.134 7.405 9.658 7.405h41c5.301 0 9.681-4.137 9.984-9.43l8.718-152.57h12.699c5.523 0 10-4.478 10-10-.001-27.846-22.655-50.5-50.501-50.5zm-178.402-20.5h25v20.5h-25zm69.204 149h-118.402v-20.5h8c5.523 0 10-4.478 10-10s-4.477-10-10-10h-8v-27.5h123.395v68.245c-1.643-.162-3.309-.245-4.993-.245zm-138.402 0h-25v-20.5h25zm0-40.5h-53c-5.523 0-10 4.478-10 10s4.477 10 10 10h8v20.5h-43.087l-3.886-68h91.973zm-122.501 209.499c-4.523 0-8.484 3.037-9.658 7.405l-7.01 26.096h-23.887l-8.114-142.001h76.973v108.5zm171.698-108.5v108.5h-123.394v-108.5zm88.859 142.001h-23.887l-7.011-26.096c-1.174-4.368-5.134-7.405-9.658-7.405h-28.304v-108.5h76.973zm-330.274-162.001c4.149-11.92 15.5-20.499 28.816-20.499h301.804c13.287 0 24.67 8.517 28.822 20.499zm439.472 33.501h-23.887l-7.01-26.096c-1.174-4.368-5.134-7.405-9.658-7.405h-18.79c-2.926-14.566-12.083-26.796-24.514-33.887v-74.612h91.973zm-360.275-162c4.149-11.921 15.5-20.5 28.816-20.5h331.805c13.316 0 24.667 8.579 28.816 20.5z"/></g><g/><g/><g/><g/><g/><g/><g/><g/><g/><g/><g/><g/><g/><g/><g/></svg>