<svg id="Capa_1" enable-background="new 0 0 512.004 512.004" viewBox="0 0 512.004 512.004" xmlns="http://www.w3.org/2000/svg"><g><path d="m466.602 232.843c-2.075-22.886-11.862-44.15-28.032-60.696l70.36-67.575c1.938-1.861 3.045-4.424 3.073-7.111.027-2.687-1.028-5.271-2.928-7.172l-35.355-35.355c-1.876-1.876-4.42-2.929-7.071-2.929-.034 0-.067 0-.101.001-2.687.026-5.25 1.134-7.111 3.072l-83.835 87.29c-2.839-.24-5.702-.362-8.582-.362-7.49 0-14.859.821-22.003 2.42-17.013-33.286-51.209-54.423-89.012-54.423s-71.998 21.136-89.012 54.422c-7.144-1.598-14.513-2.419-22.003-2.419-2.88 0-5.743.122-8.582.362l-83.836-87.29c-1.861-1.938-4.424-3.046-7.111-3.072-.034-.001-.067-.001-.101-.001-2.65 0-5.195 1.053-7.071 2.929l-35.359 35.354c-1.9 1.9-2.955 4.485-2.928 7.172.027 2.688 1.135 5.25 3.073 7.111l70.36 67.575c-16.169 16.546-25.957 37.81-28.032 60.697-25.767 4.554-45.401 27.108-45.401 54.161 0 5.522 4.477 10 10 10h10.211c1.322 31.736 8.845 62.286 22.394 90.894 12.953 27.348 30.75 51.595 52.953 72.16l-12.859 38.801c-1.01 3.048-.495 6.396 1.385 9s4.896 4.146 8.107 4.146h327.619c3.211 0 6.228-1.542 8.107-4.146s2.395-5.952 1.385-9l-12.859-38.8c22.202-20.566 39.999-44.812 52.952-72.161 13.549-28.608 21.073-59.158 22.394-90.894h10.211c5.523 0 10-4.478 10-10 .001-27.054-19.633-49.607-45.4-54.161zm.189-156.553 20.925 20.925-64.561 62.006c-7.572-5.155-15.773-9.213-24.4-12.092zm-20.404 155.714h-25.276c-2.022-11.052-7.379-21.205-15.544-29.229-10.349-10.17-24.04-15.771-38.55-15.771s-28.201 5.601-38.55 15.771c-8.165 8.023-13.521 18.176-15.544 29.229h-25.276c4.986-39.309 38.928-69.999 79.369-69.999s74.384 30.69 79.371 69.999zm-45.842 0h-67.055c4.348-14.413 17.817-24.999 33.527-24.999s29.18 10.587 33.528 24.999zm-119.584-41.002c-7.691-3.91-16.265-5.999-24.958-5.999s-17.267 2.089-24.959 5.999c-2.461-4.139-5.232-8.114-8.301-11.894 4.658-14.177 18.068-24.105 33.259-24.105s28.601 9.929 33.259 24.105c-3.068 3.779-5.839 7.754-8.3 11.894zm-36.469 41.002c-.778-7.855-2.466-15.515-5.01-22.852 5.056-2.702 10.747-4.15 16.521-4.15s11.465 1.448 16.521 4.15c-2.544 7.337-4.232 14.996-5.01 22.852zm11.51-122.002c29.213 0 55.734 15.779 69.772 40.854-7.585 3.436-14.748 7.836-21.334 13.136-9.414-17.429-27.889-28.99-48.439-28.99s-39.025 11.561-48.439 28.99c-6.586-5.3-13.749-9.7-21.334-13.136 14.041-25.075 40.561-40.854 69.774-40.854zm-31.646 122.002h-25.275c-2.022-11.052-7.379-21.205-15.544-29.229-10.349-10.17-24.04-15.771-38.55-15.771s-28.201 5.601-38.55 15.771c-8.165 8.023-13.521 18.176-15.544 29.229h-25.275c4.986-39.309 38.928-69.999 79.369-69.999s74.383 30.69 79.369 69.999zm-45.842 0h-67.055c4.348-14.413 17.817-24.999 33.528-24.999s29.179 10.587 33.527 24.999zm-133.301-155.714 68.036 70.839c-8.627 2.878-16.828 6.937-24.399 12.091l-64.563-62.005zm9.788 175.714h402.002c15.825 0 29.231 10.559 33.544 25h-469.091c4.314-14.441 17.72-25 33.545-25zm51.04 240 8.285-25h283.352l8.285 25zm295.047-45h-290.171c-18.042-16.373-33.02-35.554-44.489-56.585 6.144-3.07 10.461-7.823 13.975-11.693 5.087-5.602 7.761-8.294 12.931-8.294 5.169 0 7.844 2.692 12.931 8.294 5.69 6.267 13.484 14.849 27.736 14.849s22.046-8.582 27.736-14.849c5.087-5.602 7.761-8.294 12.931-8.294s7.844 2.692 12.931 8.294c5.691 6.267 13.484 14.849 27.736 14.849s22.046-8.582 27.737-14.849c5.087-5.602 7.761-8.294 12.931-8.294 5.169 0 7.844 2.692 12.931 8.294 5.69 6.267 13.484 14.849 27.736 14.849s22.046-8.582 27.736-14.849c5.087-5.602 7.762-8.294 12.931-8.294s7.844 2.692 12.931 8.294c5.69 6.267 13.484 14.849 27.736 14.849s22.046-8.582 27.737-14.849c5.087-5.602 7.761-8.294 12.931-8.294 5.169 0 7.843 2.692 12.93 8.294 3.515 3.87 7.831 8.623 13.975 11.693-11.469 21.031-26.447 40.212-44.489 56.585zm53.245-74.567c-2.499-1.279-4.739-3.646-7.926-7.155-5.691-6.267-13.484-14.849-27.736-14.849s-22.046 8.582-27.737 14.849c-5.087 5.602-7.761 8.294-12.931 8.294s-7.844-2.692-12.931-8.294c-5.69-6.267-13.484-14.849-27.736-14.849s-22.046 8.582-27.736 14.849c-5.087 5.602-7.762 8.294-12.931 8.294s-7.844-2.692-12.931-8.294c-5.69-6.267-13.484-14.849-27.736-14.849s-22.046 8.582-27.737 14.849c-5.087 5.602-7.761 8.294-12.931 8.294-5.169 0-7.843-2.692-12.93-8.294-5.691-6.267-13.484-14.849-27.737-14.849s-22.046 8.582-27.736 14.849c-5.087 5.602-7.762 8.294-12.931 8.294s-7.844-2.692-12.931-8.294c-5.69-6.267-13.484-14.849-27.736-14.849s-22.046 8.582-27.737 14.849c-3.186 3.509-5.426 5.876-7.926 7.155-10.22-23.704-16.217-49.248-17.436-75.432h431.536c-1.219 26.184-7.217 51.728-17.437 75.432z"/><path d="m192.059 50.466c-2.505 4.922-.546 10.943 4.376 13.448 1.454.739 3.002 1.09 4.528 1.09 3.642 0 7.154-1.997 8.92-5.466 8.224-16.157 3.249-25.593-.043-31.836-2.465-4.676-3.387-6.425.043-13.164 2.505-4.922.546-10.943-4.376-13.448s-10.943-.547-13.448 4.376c-8.13 15.974-3.184 25.355.09 31.563 2.499 4.741 3.434 6.514-.09 13.437z"/><path d="m247.059 50.466c-2.505 4.922-.546 10.943 4.376 13.448 1.454.739 3.002 1.09 4.528 1.09 3.642 0 7.154-1.997 8.92-5.466 8.224-16.157 3.249-25.593-.043-31.836-2.465-4.676-3.387-6.425.043-13.164 2.505-4.922.546-10.943-4.376-13.448-4.923-2.505-10.943-.547-13.448 4.376-8.13 15.974-3.184 25.355.09 31.563 2.498 4.741 3.433 6.514-.09 13.437z"/><path d="m302.059 50.466c-2.505 4.922-.546 10.943 4.376 13.448 1.454.739 3.002 1.09 4.528 1.09 3.642 0 7.154-1.997 8.92-5.466 8.224-16.157 3.249-25.593-.043-31.836-2.465-4.676-3.387-6.425.043-13.164 2.505-4.922.546-10.942-4.376-13.448-4.921-2.505-10.943-.547-13.448 4.376-8.13 15.974-3.184 25.355.089 31.563 2.499 4.741 3.434 6.514-.089 13.437z"/></g><g/><g/><g/><g/><g/><g/><g/><g/><g/><g/><g/><g/><g/><g/><g/></svg>