<svg id="Capa_1" enable-background="new 0 0 512.002 512.002" viewBox="0 0 512.002 512.002" xmlns="http://www.w3.org/2000/svg"><g><path d="m305.823 405.861c-13.506-5.714-31.199-8.86-49.822-8.86s-36.316 3.146-49.822 8.86c-21.906 9.27-25.178 21.922-25.178 28.64s3.271 19.371 25.179 28.64c13.505 5.714 31.198 8.86 49.821 8.86s36.316-3.146 49.822-8.86c21.907-9.269 25.179-21.922 25.179-28.64s-3.272-19.37-25.179-28.64zm-49.822 46.14c-35.727 0-55-12.421-55-17.5s19.273-17.5 55-17.5c35.728 0 55.001 12.421 55.001 17.5s-19.273 17.5-55.001 17.5z"/><path d="m461.138 338.975-40.091-89.023c-13.928-31.096-41.606-52.758-70.515-55.187l-54.531-4.583v-19.34c18.407-12.731 30.488-33.987 30.488-58.011v-66.538c0-25.526-20.766-46.293-46.292-46.293h-120.977c-5.522 0-10 4.478-10 10v18.146c0 22.094 15.558 40.622 36.293 45.205v39.479c0 24.025 12.082 45.281 30.488 58.011v19.34l-54.53 4.583c-28.909 2.429-56.588 24.091-70.508 55.168l-40.099 89.042c-9.356 16.93-5.309 38.003 9.729 50.286.169.138.342.27.52.396l75.688 53.987c3.18 18.043 15.772 34.506 36.252 47.072 22.368 13.726 51.827 21.285 82.95 21.285s60.582-7.56 82.95-21.285c20.479-12.567 33.071-29.03 36.251-47.073l75.687-53.987c.178-.127.351-.259.52-.396 15.035-12.281 19.083-33.355 9.727-50.284zm-291.918-310.829v-8.146h110.978c14.497 0 26.292 11.795 26.292 26.293v8.146h-110.977c-14.498 0-26.293-11.794-26.293-26.293zm36.293 84.684v-38.391h100.977v38.391c0 27.839-22.648 50.488-50.488 50.488s-50.489-22.649-50.489-50.488zm50.488 70.488c6.944 0 13.657-1.01 20-2.89v53.698c0 11.028-8.972 20-20 20s-20-8.972-20-20v-53.698c6.343 1.881 13.056 2.89 20 2.89zm-62.108 88.853v-60.061l22.108-1.857v23.874c0 22.056 17.944 40 40 40s40-17.944 40-40v-23.874l22.108 1.857v60.061c0 23.894 17.543 40.162 36.33 44.085l12.651 28.95-37.772 27.764c-20.882-10.347-46.48-15.968-73.316-15.968s-52.435 5.621-73.318 15.969l-37.773-27.764 12.651-28.95c18.788-3.924 36.331-20.193 36.331-44.086zm-125.398 76.253c.154-.272.297-.552.426-.838l40.286-89.459c10.999-24.556 32.17-41.604 53.938-43.433l10.748-.903v58.38c0 16.086-14.221 24.407-23.832 24.966-3.758.219-7.075 2.529-8.582 5.979l-18.096 41.408c-1.872 4.284-.526 9.294 3.24 12.062l37.66 27.681c-13.498 10.24-22.457 22.462-26.239 35.698l-65.025-46.382c-7.397-6.22-9.307-16.752-4.524-25.159zm187.507 143.578c-54.206 0-100.001-26.332-100.001-57.5s45.795-57.5 100.001-57.5 100 26.332 100 57.5-45.794 57.5-100 57.5zm182.981-118.419-65.024 46.381c-3.782-13.236-12.741-25.458-26.239-35.698l37.659-27.68c3.767-2.769 5.112-7.778 3.24-12.062l-18.096-41.408c-1.507-3.449-4.824-5.76-8.582-5.979-9.611-.559-23.832-8.88-23.832-24.966v-58.38l10.748.903c21.768 1.829 42.938 18.877 53.945 43.451l40.278 89.44c.129.286.271.565.426.838 4.784 8.408 2.874 18.94-4.523 25.16z"/></g><g/><g/><g/><g/><g/><g/><g/><g/><g/><g/><g/><g/><g/><g/><g/></svg>