<svg id="Capa_1" enable-background="new 0 0 512.002 512.002" viewBox="0 0 512.002 512.002" xmlns="http://www.w3.org/2000/svg"><g><path d="m501.731 10.271c-6.536-6.537-15.596-10.271-24.893-10.271-.084 0-.169 0-.254.001-9.339.068-18.023 3.753-24.454 10.374l-67.836 69.852c-41.439-31.158-92.332-48.225-144.294-48.225-64.106 0-124.376 24.964-169.706 70.294s-70.293 105.6-70.293 169.706 24.964 124.376 70.294 169.705c45.33 45.331 105.6 70.295 169.706 70.295s124.376-24.964 169.705-70.295c45.331-45.329 70.295-105.599 70.295-169.705 0-51.916-17.077-102.866-48.226-144.294l69.852-67.836c6.621-6.431 10.306-15.115 10.374-24.454.068-9.387-3.675-18.552-10.27-25.147zm-41.73 261.731c0 121.309-98.691 220-220 220s-220-98.691-220-220 98.691-220 220-220c46.787 0 92.628 15.093 130.24 42.697l-21.133 21.761c-31.796-22.27-70.236-34.458-109.107-34.458-104.767 0-190 85.233-190 190s85.233 190 190 190 190-85.233 190-190c0-38.868-12.188-77.317-34.457-109.11l21.758-21.13c27.595 37.604 42.699 83.494 42.699 130.24zm-184.275-133.334c-5.33-1.431-10.817 1.737-12.247 7.071s1.736 10.817 7.071 12.247c40.603 10.88 72.585 42.862 83.465 83.465 1.197 4.469 5.237 7.415 9.653 7.415.856 0 1.728-.111 2.594-.344 5.335-1.43 8.501-6.913 7.071-12.247-2.445-9.123-5.8-17.874-9.964-26.149 2.478-11.681 8.317-22.52 17.741-32.918 18.691 27.883 28.89 61.164 28.89 94.794 0 93.738-76.262 170-170 170s-170-76.262-170-170 76.262-170 170-170c33.633 0 66.906 10.198 94.791 28.891-10.399 9.424-21.237 15.261-32.916 17.739-8.275-4.164-17.026-7.519-26.149-9.964zm216.275-103.397c-.029 3.941-1.56 7.583-4.309 10.253l-115.73 112.391c-9.925 9.637-17.306 19.69-22.267 30.378-7.471-9.771-16.216-18.516-25.987-25.986 10.688-4.961 20.741-12.342 30.379-22.267l112.391-115.73c2.67-2.749 6.312-4.279 10.253-4.309h.111c4.027 0 7.938 1.604 10.746 4.413 2.834 2.833 4.443 6.79 4.413 10.857z"/><path d="m225.924 241.504c17.919 0 32.497-14.578 32.497-32.497 0-17.92-14.578-32.498-32.497-32.498-6.046 0-11.279-2.169-15.557-6.446-6.139-6.138-14.3-9.519-22.981-9.519s-16.842 3.381-22.98 9.519c-12.672 12.672-12.672 33.291 0 45.963 16.192 16.191 38.615 25.478 61.518 25.478zm-47.376-57.299c2.437-2.438 5.638-3.655 8.838-3.655 3.201 0 6.402 1.218 8.839 3.655 8.05 8.049 18.319 12.304 29.699 12.304 6.891 0 12.497 5.606 12.497 12.498 0 6.891-5.606 12.497-12.497 12.497-17.639 0-34.907-7.151-47.376-19.621-4.874-4.874-4.874-12.804 0-17.678z"/><path d="m257.207 352.848c3.886 14.503 17.05 24.091 31.397 24.091 2.776 0 5.598-.359 8.403-1.111 22.124-5.929 41.379-20.702 52.828-40.534 8.96-15.519 3.623-35.435-11.896-44.396-15.518-8.958-35.433-3.624-44.396 11.896-3.023 5.238-7.518 8.688-13.356 10.252-8.385 2.246-15.393 7.624-19.733 15.142-4.341 7.517-5.494 16.275-3.247 24.66zm28.155-20.484c10.992-2.945 19.812-9.714 25.502-19.57 3.447-5.972 11.107-8.022 17.075-4.576 5.969 3.446 8.022 11.106 4.576 17.075-8.817 15.272-23.646 26.65-40.684 31.216-6.656 1.782-13.523-2.181-15.307-8.837-1.782-6.657 2.182-13.525 8.838-15.308z"/><path d="m171.757 281.028c-15.516-8.961-35.434-3.624-44.393 11.896-8.959 15.519-3.623 35.433 11.896 44.393 5.235 3.022 8.684 7.518 10.249 13.361 3.888 14.504 17.052 24.091 31.399 24.091 2.776 0 5.599-.359 8.404-1.111 17.31-4.638 27.619-22.493 22.981-39.804-5.925-22.121-20.701-41.375-40.536-52.826zm12.379 73.311c-6.651 1.782-13.523-2.181-15.309-8.838-2.946-10.997-9.713-19.816-19.567-25.505-5.968-3.446-8.021-11.104-4.575-17.072 3.445-5.969 11.104-8.02 17.073-4.575 15.274 8.819 26.653 23.646 31.218 40.681 1.783 6.658-2.182 13.525-8.84 15.309z"/><path d="m239.275 273.521h-.008c-5.522 0-9.996 4.478-9.996 10s4.481 10 10.004 10 10-4.478 10-10-4.478-10-10-10z"/><path d="m112.775 224.521h-.008c-5.522 0-9.996 4.478-9.996 10s4.481 10 10.004 10 10-4.478 10-10-4.478-10-10-10z"/><path d="m232.275 393.022h-.008c-5.522 0-9.996 4.478-9.996 10s4.481 10 10.004 10 10-4.478 10-10-4.478-10-10-10z"/><path d="m301.768 250.021c5.522 0 10-4.478 10-10s-4.478-10-10-10h-.008c-5.522 0-9.996 4.478-9.996 10s4.482 10 10.004 10z"/></g><g/><g/><g/><g/><g/><g/><g/><g/><g/><g/><g/><g/><g/><g/><g/></svg>