<svg id="Capa_1" enable-background="new 0 0 512 512" viewBox="0 0 512 512" xmlns="http://www.w3.org/2000/svg"><g><path d="m456 0h-356.888c-5.522 0-10 4.478-10 10v56h-13.112c-16.542 0-30 13.458-30 30s13.458 30 30 30h13.112v20h-13.112c-16.542 0-30 13.458-30 30s13.458 30 30 30h13.112v20h-13.112c-16.542 0-30 13.458-30 30s13.458 30 30 30h13.112v20h-13.112c-16.542 0-30 13.458-30 30s13.458 30 30 30h13.112v20h-13.112c-16.542 0-30 13.458-30 30s13.458 30 30 30h13.112v56c0 5.522 4.478 10 10 10h356.888c5.522 0 10-4.478 10-10v-492c0-5.522-4.478-10-10-10zm-10 426h-248.776v-340h248.776zm-370-320c-5.514 0-10-4.486-10-10s4.486-10 10-10h13.112v20zm0 80c-5.514 0-10-4.486-10-10s4.486-10 10-10h13.112v20zm0 80c-5.514 0-10-4.486-10-10s4.486-10 10-10h13.112v20zm0 80c-5.514 0-10-4.486-10-10s4.486-10 10-10h13.112v20zm0 80c-5.514 0-10-4.486-10-10s4.486-10 10-10h13.112v20zm33.112 66v-86h13.112c5.514 0 10 4.486 10 10 0 5.522 4.478 10 10 10s10-4.478 10-10c0-16.542-13.458-30-30-30h-13.112v-60h13.112c5.514 0 10 4.486 10 10 0 5.522 4.478 10 10 10s10-4.478 10-10c0-16.542-13.458-30-30-30h-13.112v-60h13.112c5.514 0 10 4.486 10 10 0 5.522 4.478 10 10 10s10-4.478 10-10c0-16.542-13.458-30-30-30h-13.112v-60h13.112c5.514 0 10 4.486 10 10 0 5.522 4.478 10 10 10s10-4.478 10-10c0-16.542-13.458-30-30-30h-13.112v-60h13.112c5.514 0 10 4.486 10 10 0 5.522 4.478 10 10 10s10-4.478 10-10c0-16.542-13.458-30-30-30h-13.112v-46h336.888v46h-258.776c-5.522 0-10 4.478-10 10v360c0 5.522 4.478 10 10 10h258.776v46z"/><path d="m258.896 239.984v62.967c0 5.522 4.478 10 10 10h105.432c2.652 0 5.195-1.054 7.071-2.929 1.875-1.876 2.929-4.419 2.929-7.071l-.001-62.967c21.799-5.234 37.285-24.659 37.285-47.413 0-26.896-21.882-48.777-48.777-48.777-.271 0-.542.002-.813.007-8.688-19.691-28.343-32.833-50.409-32.833s-41.722 13.142-50.409 32.833c-.271-.005-.542-.007-.813-.007-26.896 0-48.777 21.882-48.777 48.777-.002 22.754 15.485 42.179 37.282 47.413zm20 52.967v-23.811h85.431v23.811zm-8.506-129.157c1.904 0 3.809.188 5.663.557 5.179 1.036 10.277-2.146 11.625-7.26 4.052-15.381 18.006-26.123 33.935-26.123s29.883 10.742 33.935 26.123c1.347 5.114 6.438 8.296 11.626 7.26 1.853-.369 3.758-.557 5.662-.557 15.868 0 28.777 12.909 28.777 28.777 0 11.724-6.963 21.948-17.285 26.407v-8.174c0-5.523-4.478-10-10-10s-10 4.478-10 10v38.336h-85.431v-38.336c0-5.522-4.478-10-10-10s-10 4.478-10 10v8.174c-10.322-4.459-17.284-14.684-17.284-26.407-.001-15.868 12.908-28.777 28.777-28.777z"/><path d="m231.612 359.491h180c5.522 0 10-4.478 10-10s-4.478-10-10-10h-180c-5.522 0-10 4.478-10 10s4.478 10 10 10z"/><path d="m374.328 381.03h-105.432c-5.522 0-10 4.478-10 10s4.478 10 10 10h105.432c5.522 0 10-4.478 10-10s-4.477-10-10-10z"/></g><g/><g/><g/><g/><g/><g/><g/><g/><g/><g/><g/><g/><g/><g/><g/></svg>