<svg width="80" height="72" viewBox="0 0 80 72" fill="none" xmlns="http://www.w3.org/2000/svg">
<path d="M79.6719 64.7812C79.4063 64.4219 78.9844 64.2188 78.5469 64.2188H74.0626L69.9688 61.5469V52.0469C74.1876 50.8281 77.0313 46.9688 76.7032 42.7188L75.8751 31.8906C75.8126 31.2031 75.2657 30.6875 74.5626 30.6875H59.6094C58.9219 30.6875 58.3594 31.2188 58.2969 31.9062L57.4688 42.7344C57.1407 46.9844 59.9844 50.8594 64.2032 52.0625V61.5625L60.5626 63.9375V63.5625C60.5626 62.2656 59.7657 61.1406 58.6407 60.6719C58.4844 57.0312 57.4688 53.5156 55.7032 50.3906V29.2969C55.7032 26.8906 54.5157 24.625 52.5469 23.2344C50.3282 21.6719 49.1563 19.4062 49.1563 16.7031V2.71875C49.1563 1.59375 48.2501 0.6875 47.1251 0.6875H40.7344C39.6094 0.6875 38.7032 1.59375 38.7032 2.71875V16.6875C38.7032 19.4062 37.5313 21.6562 35.3125 23.2188C33.3282 24.6094 32.1563 26.875 32.1563 29.2812V31.625C31.9219 31.5625 31.6719 31.5 31.3907 31.5C30.0625 31.4531 28.9688 31.9844 28.3438 33C27.6094 34.1875 27.6407 35.9062 28.4219 37.3594C28.6563 37.7969 28.9532 38.2188 29.3126 38.6094C23.5469 38.8594 18.1563 41.2344 14.0313 45.3594C9.9063 49.4844 7.51567 54.8906 7.2813 60.6562C6.1563 61.1406 5.35943 62.25 5.35943 63.5469V64.2188H1.45318C1.01568 64.2188 0.5938 64.4219 0.328175 64.7812C0.0625503 65.1406 -0.0155747 65.5938 0.109425 66.0156C1.01568 69.125 3.9063 71.3125 7.14068 71.3125H72.8438C76.0782 71.3125 78.9688 69.1406 79.8907 66.0312C80.0157 65.5938 79.9376 65.125 79.6719 64.7812ZM73.4532 33.1719L74.1251 41.9062C70.2501 41.8125 68.4063 41.1562 66.6094 40.5312C64.9532 39.9531 63.2501 39.3438 60.2344 39.2031L60.7032 33.1719H73.4532ZM59.9532 42.8906L60.0469 41.6875C62.7188 41.7969 64.1563 42.2969 65.7813 42.875C67.6876 43.5469 69.8282 44.2969 74.1407 44.4062C73.6876 47.0469 71.5157 49.25 68.6094 49.7969C67.9532 49.9219 67.4688 50.5 67.4688 51.1719V62.125C67.4688 62.6094 67.7032 63.0469 68.1094 63.2969L69.5001 64.2031H64.6876L66.0782 63.2969C66.4844 63.0312 66.7188 62.5938 66.7188 62.125V51.1719C66.7188 50.5 66.2344 49.9219 65.5782 49.7969C62.1094 49.1406 59.6876 46.1719 59.9532 42.8906ZM46.6407 3.1875V7.625H41.1876V3.1875H46.6407ZM36.7344 25.2656C39.6094 23.25 41.1876 20.2031 41.1876 16.6875V10.125H46.6407V16.6875C46.6407 20.2031 48.2188 23.25 51.0938 25.2656C52.4063 26.1875 53.1876 27.6875 53.1876 29.2812V33.2969H49.4844C48.7969 33.2969 48.2344 33.8594 48.2344 34.5469C48.2344 35.2344 48.7969 35.7969 49.4844 35.7969H53.1876V46.7812C52.7657 46.2812 52.3282 45.8125 51.8594 45.3438C47.9375 41.4219 42.8594 39.0781 37.4219 38.6406C37.7969 38.2344 38.1094 37.7969 38.3594 37.3281C38.625 36.8281 38.8125 36.3125 38.9063 35.7969H45.5938C46.2813 35.7969 46.8438 35.2344 46.8438 34.5469C46.8438 33.8594 46.2813 33.2969 45.5938 33.2969H38.625C38.5782 33.1875 38.5157 33.0781 38.4532 32.9688C37.8282 31.9531 36.7344 31.4219 35.4063 31.4844C35.125 31.5 34.875 31.5469 34.6407 31.6094V29.2812C34.6407 27.7031 35.4219 26.2031 36.7344 25.2656ZM30.4375 34.2969C30.5001 34.2031 30.6407 33.9844 31.1876 33.9844H31.2657C31.4688 33.9844 31.5938 34.0781 31.8907 34.3281C32.2344 34.5938 32.6875 34.9688 33.375 34.9688C34.0625 34.9688 34.5157 34.5938 34.8594 34.3281C35.1563 34.0781 35.2969 34 35.4844 33.9844C36.1094 33.9531 36.25 34.2031 36.3125 34.2969C36.5313 34.6406 36.5469 35.4219 36.1563 36.1406C35.6563 37.0625 34.6407 37.9375 33.375 38.5312C32.1094 37.9375 31.0938 37.0625 30.5938 36.1406C30.2032 35.4062 30.2188 34.6562 30.4375 34.2969ZM30.3125 41.0781H35.5782C46.5 41.0781 55.4688 49.6406 56.1094 60.4062H9.76567C10.4219 49.625 19.375 41.0781 30.3125 41.0781ZM7.82817 63.5469C7.82817 63.2031 8.12505 62.9062 8.4688 62.9062H57.3907C57.7344 62.9062 58.0313 63.2031 58.0313 63.5469V64.2188H7.82817V63.5469ZM72.8594 68.8125H7.14068C5.5313 68.8125 4.06255 68 3.17193 66.7188H76.8282C75.9376 68 74.4532 68.8125 72.8594 68.8125Z" fill="#E3B0AC"/>
</svg>
